<?xml version="1.0" standalone="no"?>
<!DOCTYPE svg PUBLIC "-//W3C//DTD SVG 20010904//EN"
 "http://www.w3.org/TR/2001/REC-SVG-20010904/DTD/svg10.dtd">
<svg version="1.0" xmlns="http://www.w3.org/2000/svg"
 width="512.000000pt" height="512.000000pt" viewBox="0 0 512.000000 512.000000"
 preserveAspectRatio="xMidYMid meet">
<metadata>
Created by potrace 1.11, written by Peter Selinger 2001-2013
</metadata>
<g transform="translate(0.000000,512.000000) scale(0.100000,-0.100000)"
fill="#000000" stroke="none">
<path d="M2320 5110 c-502 -52 -982 -248 -1365 -557 -288 -232 -517 -518 -684
-854 -276 -554 -342 -1167 -191 -1769 86 -344 263 -697 487 -975 232 -288 518
-517 854 -684 391 -195 793 -283 1224 -268 380 14 715 99 1054 268 261 130
467 277 670 480 203 203 350 409 480 670 124 249 204 502 247 784 26 169 26
541 0 710 -71 465 -260 899 -543 1250 -232 288 -518 517 -854 684 -246 123
-506 205 -779 246 -124 19 -478 28 -600 15z m361 -1565 c166 -25 294 -84 392
-181 204 -203 210 -612 11 -833 -94 -104 -249 -183 -415 -211 -35 -6 -164 -13
-286 -17 l-223 -6 0 -374 0 -374 -132 3 -133 3 -3 1003 -2 1002 347 0 c253 0
374 -4 444 -15z"/>
<path d="M2160 2935 l0 -417 228 5 c240 5 268 9 369 60 66 34 146 123 174 195
33 82 33 242 0 324 -28 71 -102 155 -166 187 -89 45 -139 52 -377 58 l-228 6
0 -418z"/>
</g>
</svg>
