<svg version="1.1" id="Layer_1" xmlns="http://www.w3.org/2000/svg" x="0" y="0" viewBox="0 0 128 128" xml:space="preserve"><style>.st0{fill:#746887}.st4{fill:#f98770}.st9{fill:#b0bacc}.st20{fill:#ffa77b}</style><path class="st9" d="M4.407 60.341s3.42 6.051 9.498 12.62c5.698-3.487 17.083-9.725 31.421-13.866v-.003c-16.073 3.367-40.919 1.249-40.919 1.249z"/><path d="M99.953 1.5c-12.799 0-19.784 9.686-23.176 20.222-1.75 5.437 1.703 11.27 5.737 15.075 3.75 3.537 4.552 9.313 1.363 13.364-2.095 2.661-5.455 4.798-10.844 4.798-34.365 0-63.123 20.593-63.123 20.593s-2.13 28.936 62.26 25.958c37.465-1.733 55.091-24.247 39.155-49.565-1.754-.261-3.435-.614-4.845-1.455-3.182-1.897-7.325-12.438-6.255-17.136 1.062-4.665 5.674-2.605 5.674-2.605s1.235-3.012 4.944-.849c2.382 1.389 4.688 4.117 6.485 6.888 5.79-4.428 7.113-11.063 5.8-15.068C119.62 11.02 112.752 1.5 99.953 1.5z" fill="#e8e8e8"/><path class="st9" d="M101.141 61.793c-3.401 2.722-4.143 7.948-5.484 13.669-2.72 11.598-8.028 22.123-24.498 26.079.344-.014.663-.016 1.011-.032 24.124-1.116 40.01-10.853 44.022-24.402 3.184-15.856-10.268-19.142-15.051-15.314z"/><path class="st20" d="M110.843 29.901c-3.71-2.163-4.944.849-4.944.849s-4.612-2.06-5.674 2.605c-1.07 4.698 3.073 15.238 6.255 17.136 2.191 1.306 5.034 1.439 7.797 1.87 3.44.536 6.674-1.989 6.751-5.47.022-.998-.066-2.05-.324-3.117-.783-3.248-5.18-11.144-9.861-13.873z"/><circle class="st0" cx="114.332" cy="21.722" r="3"/><circle class="st0" cx="93.123" cy="22.805" r="3"/><path class="st20" d="M92.321 118.866h-4.664a4.851 4.851 0 01-4.851-4.851v-13.647c-2.433.417-4.98.732-7.633.94v17.559a7.634 7.634 0 007.633 7.634h9.516a3.817 3.817 0 10-.001-7.635zm-20.875 0h-4.664a4.851 4.851 0 01-4.851-4.851v-12.309c-2.683-.02-5.22-.105-7.633-.245v17.405a7.634 7.634 0 007.633 7.634h9.516a3.817 3.817 0 10-.001-7.634z"/><path class="st4" d="M71.158 103.042a1.5 1.5 0 01-.349-2.959c16.343-3.925 20.98-14.77 23.362-24.859a1.5 1.5 0 112.92.69c-2.007 8.502-5.498 17.499-15.295 23.125 17.458-2.783 29.497-10.793 32.938-22.292 1.7-8.578-1.859-12.184-4.137-13.57-3.123-1.901-6.784-1.602-8.519-.212-1.334 1.068-2.295 2.7-3.116 5.293a1.5 1.5 0 11-2.86-.904c1.01-3.193 2.275-5.27 4.101-6.73 2.947-2.36 8.089-2.363 11.954-.009 2.378 1.448 7.674 5.982 5.504 16.789-.009.044-.02.088-.032.131-4.395 14.84-21.362 24.363-45.391 25.475-.192.009-.374.014-.555.019l-.462.015c-.02-.002-.041-.002-.063-.002z"/><path class="st0" d="M36.739 100.569a1.54 1.54 0 01-.347-.04C7.417 93.66 8.359 76.182 8.414 75.441c.032-.444.261-.851.623-1.11.291-.209 29.549-20.872 63.996-20.872 4.206 0 7.457-1.422 9.665-4.227 2.628-3.337 2.105-8.213-1.214-11.345-2.067-1.95-8.619-8.912-6.135-16.626l.056-.163c.263-.785 1.125-1.241 1.909-.983.786.262 1.223 1.076.961 1.862l-.041.12c-1.575 4.885 1.715 10.218 5.309 13.608C88 39.91 88.65 46.523 85.056 51.088c-2.806 3.564-6.851 5.371-12.022 5.371-30.752 0-57.269 16.949-61.626 19.883.139 3.104 2.176 15.696 25.677 21.268a1.5 1.5 0 01-.346 2.959z"/><path class="st0" d="M63.243 103.223c-6.999 0-13.41-.416-19.142-1.243a1.5 1.5 0 01.427-2.969c7.921 1.143 17.196 1.479 27.571 1.001 20.16-.933 35.104-7.94 41-19.228 4.25-8.136 3.318-17.62-2.689-27.465-1.604-.27-3.248-.675-4.7-1.541-3.878-2.312-8.1-13.706-6.949-18.757.508-2.231 1.719-3.251 2.645-3.714 1.386-.691 2.875-.558 3.89-.322a4.152 4.152 0 011.737-1.146c1.365-.462 2.901-.205 4.565.766 2.396 1.396 4.49 3.809 6.031 5.962 4.043-3.813 5.161-9.059 4.072-12.379C117.529 9.456 110.211 3 99.952 3c-7.996 0-14.273 4.014-18.655 11.93a1.5 1.5 0 01-2.625-1.453C83.553 4.66 90.912 0 99.952 0c11.537 0 20.044 7.35 24.602 21.255 1.549 4.728-.122 11.99-6.314 16.726a1.511 1.511 0 01-1.167.287 1.507 1.507 0 01-1.003-.662c-1.963-3.028-4.088-5.304-5.981-6.408-.857-.5-1.575-.679-2.069-.523-.502.158-.741.667-.744.672-.343.747-1.236 1.111-1.988.773-.413-.179-1.693-.559-2.546-.124-.188.095-.755.383-1.053 1.692-.936 4.106 2.942 13.953 5.561 15.515 1.215.725 2.783 1.033 4.298 1.26.432.064.814.314 1.048.685 6.827 10.847 7.952 21.866 3.166 31.027-6.403 12.258-22.266 19.852-43.521 20.834-3.096.142-6.098.214-8.998.214z"/><path class="st0" d="M115.199 53.932c-.384 0-.769-.029-1.154-.089-.532-.083-1.067-.155-1.601-.227-2.314-.31-4.708-.63-6.733-1.838-3.878-2.312-8.1-13.707-6.949-18.757.508-2.231 1.719-3.251 2.645-3.714 1.386-.691 2.875-.558 3.89-.322a4.152 4.152 0 011.737-1.146c1.365-.462 2.901-.205 4.565.766 5.045 2.94 9.707 11.264 10.563 14.816a13.62 13.62 0 01.365 3.502 7.1 7.1 0 01-2.553 5.277 7.428 7.428 0 01-4.775 1.732zm-11.5-22.137c-.335 0-.672.054-.959.2-.188.095-.755.383-1.053 1.692-.936 4.106 2.942 13.953 5.561 15.515 1.496.892 3.486 1.158 5.595 1.44a79.32 79.32 0 011.665.235 4.446 4.446 0 003.541-.978 4.042 4.042 0 001.479-3.044 10.679 10.679 0 00-.281-2.731c-.748-3.102-5.028-10.521-9.158-12.928-.857-.5-1.575-.679-2.069-.523-.502.158-.741.667-.744.672-.343.744-1.232 1.105-1.98.777a4.507 4.507 0 00-1.597-.327z"/><path class="st4" d="M56.423 89.655c-.046 0-.092-.002-.139-.006-20.292-1.855-23.394-14.602-23.516-15.144a1.499 1.499 0 011.133-1.793 1.495 1.495 0 011.792 1.125c.11.465 2.866 11.179 20.865 12.824a1.5 1.5 0 01-.135 2.994zM41.164 68.607a1.5 1.5 0 01-.475-2.922c11.81-3.937 32.007-7.666 37.853-3.17 1.265.972 1.883 2.292 1.788 3.817a1.499 1.499 0 11-2.994-.186c.022-.366-.033-.801-.622-1.254-3.449-2.65-19.182-1.66-35.075 3.638a1.49 1.49 0 01-.475.077z"/><path class="st0" d="M46.828 90.354c-13.271 0-22.182-4.254-24.618-9.364-1.364-2.859-.655-5.89 1.944-8.312a1.5 1.5 0 012.045 2.195c-1.646 1.534-2.077 3.158-1.281 4.826 2.109 4.425 13.21 9.511 31.294 6.971 15.965-2.246 28.086-12.843 28.257-20.816.1-4.661-4.058-8.007-11.708-9.42a1.499 1.499 0 01-1.202-1.747 1.494 1.494 0 011.747-1.202c12.505 2.31 14.24 8.781 14.162 12.434-.222 10.356-14.633 21.442-30.838 23.722-3.479.489-6.757.713-9.802.713zM92.321 128h-9.516c-5.036 0-9.134-4.098-9.134-9.134v-17.559a1.5 1.5 0 011.382-1.495 83.466 83.466 0 007.499-.924 1.499 1.499 0 011.753 1.478v13.647a3.356 3.356 0 003.352 3.352h4.664c2.932 0 5.316 2.386 5.316 5.317S95.253 128 92.321 128zm-15.649-25.316v16.183a6.141 6.141 0 006.134 6.134h9.516c1.277 0 2.316-1.039 2.316-2.316s-1.039-2.317-2.316-2.317h-4.664a6.36 6.36 0 01-6.352-6.352v-11.889a88.75 88.75 0 01-4.634.557z"/><path class="st0" d="M71.446 128H61.93c-5.036 0-9.134-4.098-9.134-9.134v-17.405c0-.413.17-.808.471-1.091.3-.283.693-.436 1.116-.406 2.462.142 5.005.224 7.558.242a1.5 1.5 0 011.489 1.5v12.309a3.356 3.356 0 003.352 3.352h4.664c2.932 0 5.316 2.386 5.316 5.317S74.378 128 71.446 128zm-15.649-24.959v15.825A6.141 6.141 0 0061.931 125h9.516c1.277 0 2.316-1.039 2.316-2.316s-1.039-2.317-2.316-2.317h-4.664a6.36 6.36 0 01-6.352-6.352v-10.826a155.669 155.669 0 01-4.634-.148zM13.905 74.46c-.407 0-.81-.165-1.102-.481-6.127-6.621-9.56-12.646-9.702-12.899a1.504 1.504 0 01.043-1.549c.3-.467.84-.731 1.39-.684.246.019 24.815 2.058 40.483-1.224.441-.093.902.018 1.253.304a1.505 1.505 0 01-.529 2.609c-14.266 4.12-25.58 10.354-31.054 13.703a1.491 1.491 0 01-.782.221zM7.244 62.049a79.342 79.342 0 006.939 8.989c3.896-2.324 10.01-5.661 17.643-8.802-9.908.571-19.784.115-24.582-.187z"/></svg>