<?xml version="1.0" encoding="UTF-8"?>
<!DOCTYPE svg PUBLIC "-//W3C//DTD SVG 1.1//EN" "http://www.w3.org/Graphics/SVG/1.1/DTD/svg11.dtd">
<svg version="1.1" xmlns="http://www.w3.org/2000/svg" xmlns:xlink="http://www.w3.org/1999/xlink" x="0" y="0" width="650" height="650" viewBox="0, 0, 650, 650">
  <g id="Layer_1">
    <path d="M648.71,325 C648.71,503.78 503.78,648.71 325,648.71 C146.22,648.71 1.29,503.78 1.29,325 C1.29,146.22 146.22,1.29 325,1.29 C503.78,1.29 648.71,146.22 648.71,325" fill="#D6D6D6"/>
    <path d="M581.494,522.5 L68.506,522.5 C127.697,599.261 220.573,648.71 325,648.71 C429.427,648.71 522.301,599.261 581.494,522.5" fill="#2EA7B9"/>
    <path d="M112.225,365.415 C96.451,365.415 83.663,352.626 83.663,336.852 C83.663,321.077 96.451,308.288 112.225,308.288 C128,308.288 140.788,321.077 140.788,336.852 C140.788,352.626 128,365.415 112.225,365.415 z M175.508,325.3 L167.664,325.3 C166.288,318.286 163.717,312.283 160.054,306.531 L165.728,300.867 C167.016,299.579 167.016,297.495 165.728,296.206 L153.509,283.99 C152.22,282.702 150.132,282.703 148.844,283.991 L143.282,289.539 C137.581,285.783 131.204,283.112 124.602,281.636 L124.602,273.612 C124.602,271.79 123.154,270.016 121.333,270.016 L104.052,270.016 C102.231,270.016 100.674,271.79 100.674,273.612 L100.674,281.456 C94.072,282.832 87.678,285.403 81.927,289.066 L76.273,283.392 C74.984,282.104 72.906,282.104 71.618,283.392 L59.404,295.611 C58.115,296.899 58.118,298.988 59.406,300.276 L64.955,306.022 C61.199,311.723 58.529,317.461 57.052,324.887 L49.028,324.887 C47.206,324.887 45.802,325.965 45.802,327.787 L45.802,345.068 C45.802,346.889 47.206,347.991 49.028,347.991 L56.873,347.991 C58.249,354.592 60.819,361.214 64.482,366.966 L58.809,372.733 C57.521,374.021 57.521,376.157 58.809,377.445 L71.028,389.687 C72.316,390.975 74.405,390.987 75.693,389.699 L81.212,384.158 C86.912,387.913 93.247,390.591 99.848,392.068 L99.848,400.091 C99.848,401.914 101.382,403.687 103.204,403.687 L120.484,403.687 C122.306,403.687 123.777,401.914 123.777,400.091 L123.777,392.247 C130.379,390.871 136.815,388.3 142.567,384.637 L148.242,390.311 C149.531,391.599 151.62,391.599 152.908,390.311 L165.128,378.092 C166.415,376.804 166.415,374.715 165.128,373.427 L159.58,368.093 C163.336,362.392 166.007,355.83 167.484,349.641 L175.508,349.641 C177.33,349.641 178.649,347.738 178.649,345.916 L178.649,328.636 C178.649,326.814 177.33,325.3 175.508,325.3" fill="#397FCD"/>
    <path d="M50.493,252.656 C39.235,252.656 30.109,243.53 30.109,232.271 C30.109,221.013 39.235,211.886 50.493,211.886 C61.752,211.886 70.878,221.013 70.878,232.271 C70.878,243.53 61.752,252.656 50.493,252.656 z M95.657,224.027 L90.059,224.027 C89.077,219.022 87.242,214.737 84.628,210.632 L88.677,206.59 C89.597,205.671 89.597,204.184 88.677,203.264 L79.957,194.545 C79.037,193.626 77.546,193.627 76.627,194.546 L72.658,198.505 C68.589,195.825 64.038,193.919 59.327,192.865 L59.327,187.138 C59.327,185.838 58.293,184.572 56.994,184.572 L44.661,184.572 C43.361,184.572 42.249,185.838 42.249,187.138 L42.249,192.737 C37.538,193.719 32.975,195.554 28.87,198.168 L24.835,194.119 C23.915,193.199 22.432,193.199 21.513,194.119 L12.796,202.839 C11.877,203.759 11.878,205.249 12.797,206.168 L16.757,210.27 C14.077,214.338 12.172,218.433 11.118,223.733 L5.391,223.733 C4.091,223.733 3.088,224.502 3.088,225.802 L3.088,238.135 C3.088,239.435 4.091,240.222 5.391,240.222 L10.99,240.222 C11.972,244.933 13.806,249.659 16.42,253.763 L12.371,257.88 C11.452,258.799 11.452,260.323 12.371,261.243 L21.091,269.979 C22.011,270.899 23.502,270.907 24.421,269.988 L28.36,266.033 C32.428,268.713 36.949,270.624 41.66,271.678 L41.66,277.405 C41.66,278.705 42.755,279.971 44.055,279.971 L56.388,279.971 C57.688,279.971 58.738,278.705 58.738,277.405 L58.738,271.806 C63.449,270.824 68.043,268.989 72.148,266.375 L76.198,270.425 C77.117,271.344 78.609,271.344 79.528,270.425 L88.249,261.704 C89.168,260.785 89.168,259.294 88.249,258.375 L84.29,254.568 C86.97,250.5 88.877,245.816 89.931,241.399 L95.657,241.399 C96.957,241.399 97.898,240.041 97.898,238.741 L97.898,226.408 C97.898,225.108 96.957,224.027 95.657,224.027" fill="#EE3645"/>
    <path d="M529.414,453.314 L120.584,453.314 L120.584,217.306 C120.584,215.002 122.451,213.136 124.754,213.136 L525.247,213.136 C527.55,213.136 529.414,215.002 529.414,217.306 L529.414,453.314" fill="#5C5C5C"/>
    <path d="M140.175,232.726 L509.825,232.726 L509.825,433.722 L140.175,433.722 z" fill="#FFFFFF"/>
    <path d="M529.414,453.314 L120.584,453.314 L120.584,497.903 C120.584,500.206 122.451,502.069 124.754,502.069 L525.247,502.069 C527.55,502.069 529.414,500.206 529.414,497.903 L529.414,453.314" fill="#F3F3F3"/>
    <path d="M391.772,542.931 L258.228,542.931 C254.512,542.931 251.499,545.941 251.499,549.659 C251.499,553.373 254.512,556.388 258.228,556.388 L391.772,556.388 C395.488,556.388 398.501,553.373 398.501,549.659 C398.501,545.941 395.488,542.931 391.772,542.931" fill="#F5F5F5"/>
    <path d="M365.823,502.069 L284.177,502.069 L277,542.931 L372.999,542.931 L365.823,502.069" fill="#E5E5E5"/>
    <path d="M335.851,478.522 C335.851,484.515 330.993,489.375 325,489.375 C319.007,489.375 314.149,484.515 314.149,478.522 C314.149,472.529 319.007,467.673 325,467.673 C330.993,467.673 335.851,472.529 335.851,478.522" fill="#E5E5E5"/>
    <path d="M590.183,89.298 C590.183,63.324 569.128,42.268 543.153,42.268 C517.182,42.268 496.127,63.324 496.127,89.298 C496.127,97.486 498.439,105.569 502.578,112.62 C504.668,116.187 507.221,119.367 510.056,122.369 C512.756,125.234 516.373,127.096 518.944,130.057 C521.164,132.614 521.427,135.701 522.5,138.761 C523.813,142.507 527.346,145.014 531.314,145.014 L555.028,145.014 C558.978,145.014 562.501,142.527 563.829,138.804 C564.74,136.241 565.364,132.973 566.784,130.674 C568.555,127.812 572.509,126.343 574.941,124.021 C578.058,121.044 580.823,117.825 583.089,114.143 C587.654,106.717 590.183,98.024 590.183,89.298" fill="#FFAE23"/>
    <path d="M557.313,59.941 C556.827,59.941 556.332,59.844 555.856,59.64 C554.779,59.176 553.669,58.769 552.55,58.428 C550.598,57.833 549.502,55.77 550.094,53.82 C550.691,51.87 552.753,50.772 554.7,51.366 C556.078,51.786 557.447,52.288 558.774,52.857 C560.647,53.663 561.512,55.834 560.707,57.707 C560.106,59.105 558.746,59.941 557.313,59.941" fill="#FFF5E9"/>
    <path d="M579.112,92.99 C577.073,92.99 575.417,91.337 575.417,89.298 C575.417,80.358 571.833,72.04 565.318,65.872 C563.838,64.471 563.773,62.135 565.174,60.654 C566.575,59.174 568.911,59.109 570.391,60.511 C578.28,67.977 582.803,78.469 582.803,89.298 C582.803,91.337 581.147,92.99 579.112,92.99" fill="#FFF5E9"/>
    <path d="M532.577,104.521 C530.926,104.521 529.275,104.048 527.855,103.099 L523.638,100.284 C522.722,99.673 522.472,98.435 523.087,97.52 C523.698,96.605 524.932,96.358 525.848,96.969 L530.066,99.784 C531.615,100.816 533.673,100.789 535.194,99.715 L538.316,97.507 C541.289,95.405 545.271,95.426 548.216,97.56 L551.135,99.667 C552.651,100.766 554.723,100.808 556.286,99.771 L560.86,96.739 C561.775,96.131 563.015,96.381 563.62,97.299 C564.231,98.216 563.977,99.453 563.061,100.061 L558.492,103.094 C555.551,105.042 551.652,104.964 548.795,102.897 L545.881,100.79 C544.313,99.656 542.2,99.645 540.619,100.762 L537.492,102.97 C536.031,104.003 534.306,104.521 532.577,104.521" fill="#FFE2BB"/>
    <path d="M532.785,148.615 C531.832,148.615 530.986,147.926 530.824,146.952 L522.389,96.641 C522.209,95.555 522.939,94.527 524.026,94.345 C525.113,94.163 526.14,94.896 526.32,95.982 L534.755,146.293 C534.935,147.378 534.205,148.406 533.118,148.588 C533.007,148.607 532.896,148.615 532.785,148.615" fill="#FFECD3"/>
    <path d="M553.627,148.616 C553.512,148.616 553.401,148.606 553.285,148.586 C552.198,148.399 551.472,147.367 551.662,146.283 L560.333,96.104 C560.522,95.019 561.553,94.293 562.635,94.479 C563.722,94.667 564.448,95.698 564.263,96.783 L555.588,146.961 C555.421,147.932 554.58,148.616 553.627,148.616" fill="#FFECD3"/>
    <path d="M559.176,165.174 L527.134,165.174 C526.611,165.174 526.19,164.752 526.19,164.23 L526.19,145.958 C526.19,145.437 526.611,145.014 527.134,145.014 L559.176,145.014 C559.699,145.014 560.12,145.437 560.12,145.958 L560.12,164.23 C560.12,164.752 559.699,165.174 559.176,165.174" fill="#5C5C5C"/>
    <path d="M543.153,172.898 L543.153,172.898 C537.372,172.898 532.683,168.211 532.683,162.429 L532.683,155.484 C532.683,149.702 537.372,145.014 543.153,145.014 C548.938,145.014 553.622,149.702 553.622,155.484 L553.622,162.429 C553.622,168.211 548.938,172.898 543.153,172.898" fill="#5C5C5C"/>
    <path d="M526.19,149.185 L560.12,149.185 L560.12,153.171 L526.19,153.171 z" fill="#818181"/>
    <path d="M526.19,156.963 L560.12,156.963 L560.12,160.949 L526.19,160.949 z" fill="#818181"/>
    <path d="M543.352,32.852 C542.163,32.852 541.201,31.888 541.201,30.7 L541.201,16.405 C541.201,15.216 542.163,14.253 543.352,14.253 C544.54,14.253 545.502,15.216 545.502,16.405 L545.502,30.7 C545.502,31.888 544.54,32.852 543.352,32.852" fill="#FFCF89"/>
    <path d="M574.659,42.402 C574.118,42.515 573.535,42.422 573.04,42.097 C572.046,41.446 571.764,40.113 572.416,39.118 L580.236,27.153 C580.888,26.158 582.225,25.879 583.219,26.53 C584.213,27.18 584.491,28.514 583.843,29.509 L576.019,41.473 C575.695,41.971 575.195,42.29 574.659,42.402" fill="#FFCF89"/>
    <path d="M605.023,57.784 L592.458,64.606 C591.413,65.173 590.109,64.786 589.54,63.741 C588.972,62.697 589.36,61.39 590.405,60.823 L602.965,54.002 C604.01,53.435 605.319,53.821 605.883,54.866 C606.452,55.911 606.063,57.217 605.023,57.784" fill="#FFCF89"/>
    <path d="M512.793,42.402 C513.334,42.515 513.917,42.422 514.412,42.097 C515.406,41.446 515.688,40.113 515.036,39.118 L507.212,27.153 C506.564,26.158 505.228,25.879 504.234,26.53 C503.239,27.18 502.962,28.514 503.609,29.509 L511.434,41.473 C511.758,41.971 512.252,42.29 512.793,42.402" fill="#FFCF89"/>
    <path d="M482.429,57.784 L494.994,64.606 C496.039,65.173 497.343,64.786 497.912,63.741 C498.481,62.697 498.092,61.39 497.047,60.823 L484.487,54.002 C483.442,53.435 482.133,53.821 481.565,54.866 C481,55.911 481.384,57.217 482.429,57.784" fill="#FFCF89"/>
    <path d="M454.207,623.738 L528.378,603.182 C529.196,602.956 529.201,601.8 528.387,601.564 L454.401,580.333 L454.207,623.738" fill="#FCDBDF"/>
    <path d="M454.304,580.333 L454.105,623.738 L163.423,622.415 L163.62,579.011 L454.304,580.333" fill="#FFAE23"/>
    <path d="M454.16,611.964 L454.105,623.738 L163.423,622.416 L163.477,610.642 L454.16,611.964" fill="#FFCF89"/>
    <path d="M454.304,580.333 L454.248,592.102 L163.567,590.784 L163.62,579.011 L454.304,580.333" fill="#FFCF89"/>
    <path d="M121.005,600.519 L121.005,600.519 C120.951,612.505 130.623,622.268 142.609,622.318 L163.423,622.415 L163.62,579.011 L142.807,578.913 C130.821,578.863 121.06,588.532 121.005,600.519" fill="#F68E98"/>
    <path d="M185.893,579.112 L185.696,622.517 L163.423,622.416 L163.62,579.011 L185.893,579.112" fill="#FCDBDF"/>
    <path d="M528.387,601.564 L498.578,593.009 C498.615,598.785 498.643,605.624 498.615,611.428 L528.378,603.182 C529.196,602.956 529.201,601.8 528.387,601.564" fill="#5C5C5C"/>
    <path d="M437.567,100.288 L169.985,100.288 C181.707,100.288 191.209,109.791 191.209,121.512 L191.209,433.72 L458.789,433.72 L458.789,121.512 C458.789,109.791 449.291,100.288 437.567,100.288" fill="#5C5C5C"/>
    <path d="M169.985,100.288 C158.263,100.288 148.761,109.791 148.761,121.512 L148.761,178.235 C148.761,189.957 139.258,199.459 127.536,199.459 L169.985,199.459 C181.707,199.459 191.209,189.957 191.209,178.235 L191.209,121.512 C191.209,109.791 181.707,100.288 169.985,100.288" fill="#EE3645"/>
    <path d="M148.761,149.874 L148.761,178.235 C148.761,189.957 139.258,199.459 127.536,199.459 C115.814,199.459 106.312,189.957 106.312,178.235 L106.312,149.874 L148.761,149.874" fill="#5C5C5C"/>
    <path d="M296.005,173.904 L245.335,173.904 C243.702,173.904 242.379,172.58 242.379,170.947 C242.379,169.314 243.702,167.991 245.335,167.991 L296.005,167.991 C297.639,167.991 298.962,169.314 298.962,170.947 C298.962,172.58 297.639,173.904 296.005,173.904" fill="#3CD2E9"/>
    <path d="M372.975,173.904 L338.808,173.904 C337.175,173.904 335.851,172.58 335.851,170.947 C335.851,169.314 337.175,167.991 338.808,167.991 L372.975,167.991 C374.608,167.991 375.932,169.314 375.932,170.947 C375.932,172.58 374.608,173.904 372.975,173.904" fill="#FFFFFF"/>
    <path d="M327.133,173.904 L309.468,173.904 C307.835,173.904 306.512,172.58 306.512,170.947 C306.512,169.314 307.835,167.991 309.468,167.991 L327.133,167.991 C328.766,167.991 330.09,169.314 330.09,170.947 C330.09,172.58 328.766,173.904 327.133,173.904" fill="#FFAE23"/>
    <path d="M362.476,211.562 L274.675,211.562 C273.042,211.562 271.718,210.239 271.718,208.606 C271.718,206.973 273.042,205.65 274.675,205.65 L362.476,205.65 C364.109,205.65 365.433,206.973 365.433,208.606 C365.433,210.239 364.109,211.562 362.476,211.562" fill="#FFAE23"/>
    <path d="M263,211.562 L245.335,211.562 C243.702,211.562 242.379,210.239 242.379,208.606 C242.379,206.973 243.702,205.65 245.335,205.65 L263,205.65 C264.633,205.65 265.957,206.973 265.957,208.606 C265.957,210.239 264.633,211.562 263,211.562" fill="#3CD2E9"/>
    <path d="M245.335,249.221 L320.76,249.221 C322.392,249.221 323.716,247.897 323.716,246.264 C323.716,244.632 322.392,243.308 320.76,243.308 L245.335,243.308 C243.702,243.308 242.379,244.632 242.379,246.264 C242.379,247.897 243.702,249.221 245.335,249.221" fill="#3CD2E9"/>
    <path d="M332.434,249.221 L350.099,249.221 C351.732,249.221 353.056,247.897 353.056,246.264 C353.056,244.632 351.732,243.308 350.099,243.308 L332.434,243.308 C330.801,243.308 329.477,244.632 329.477,246.264 C329.477,247.897 330.801,249.221 332.434,249.221" fill="#FFFFFF"/>
    <path d="M360.143,192.733 L410.814,192.733 C412.447,192.733 413.771,191.41 413.771,189.777 C413.771,188.144 412.447,186.82 410.814,186.82 L360.143,186.82 C358.51,186.82 357.187,188.144 357.187,189.777 C357.187,191.41 358.51,192.733 360.143,192.733" fill="#EE3645"/>
    <path d="M245.335,192.733 L307.214,192.733 C308.846,192.733 310.17,191.41 310.17,189.777 C310.17,188.144 308.846,186.82 307.214,186.82 L245.335,186.82 C243.702,186.82 242.379,188.144 242.379,189.777 C242.379,191.41 243.702,192.733 245.335,192.733" fill="#FFFFFF"/>
    <path d="M320.765,192.733 L346.681,192.733 C348.314,192.733 349.638,191.41 349.638,189.777 C349.638,188.144 348.314,186.82 346.681,186.82 L320.765,186.82 C319.132,186.82 317.808,188.144 317.808,189.777 C317.808,191.41 319.132,192.733 320.765,192.733" fill="#3CD2E9"/>
    <path d="M296.005,230.392 L245.335,230.392 C243.702,230.392 242.379,229.068 242.379,227.435 C242.379,225.802 243.702,224.478 245.335,224.478 L296.005,224.478 C297.639,224.478 298.962,225.802 298.962,227.435 C298.962,229.068 297.639,230.392 296.005,230.392" fill="#FFAE23"/>
    <path d="M410.814,230.392 L348.936,230.392 C347.303,230.392 345.979,229.068 345.979,227.435 C345.979,225.802 347.303,224.478 348.936,224.478 L410.814,224.478 C412.447,224.478 413.771,225.802 413.771,227.435 C413.771,229.068 412.447,230.392 410.814,230.392" fill="#3CD2E9"/>
    <path d="M335.385,230.392 L309.468,230.392 C307.835,230.392 306.512,229.068 306.512,227.435 C306.512,225.802 307.835,224.478 309.468,224.478 L335.385,224.478 C337.017,224.478 338.341,225.802 338.341,227.435 C338.341,229.068 337.017,230.392 335.385,230.392" fill="#FFFFFF"/>
    <path d="M272.709,155.074 L230.289,155.074 C228.657,155.074 227.333,153.751 227.333,152.118 C227.333,150.485 228.657,149.162 230.289,149.162 L272.709,149.162 C274.342,149.162 275.665,150.485 275.665,152.118 C275.665,153.751 274.342,155.074 272.709,155.074" fill="#EE3645"/>
    <path d="M306.6,155.074 L284.809,155.074 C283.176,155.074 281.853,153.751 281.853,152.118 C281.853,150.485 283.176,149.162 284.809,149.162 L306.6,149.162 C308.233,149.162 309.556,150.485 309.556,152.118 C309.556,153.751 308.233,155.074 306.6,155.074" fill="#3CD2E9"/>
    <path d="M322.677,268.05 L288.509,268.05 C286.876,268.05 285.552,266.727 285.552,265.094 C285.552,263.461 286.876,262.137 288.509,262.137 L322.677,262.137 C324.31,262.137 325.633,263.461 325.633,265.094 C325.633,266.727 324.31,268.05 322.677,268.05" fill="#FFFFFF"/>
    <path d="M276.835,268.05 L230.289,268.05 C228.657,268.05 227.333,266.727 227.333,265.094 C227.333,263.461 228.657,262.137 230.289,262.137 L276.835,262.137 C278.467,262.137 279.791,263.461 279.791,265.094 C279.791,266.727 278.467,268.05 276.835,268.05" fill="#EE3645"/>
    <path d="M329.011,290.7 L245.335,290.7 C243.702,290.7 242.379,289.376 242.379,287.744 C242.379,286.11 243.702,284.787 245.335,284.787 L329.011,284.787 C330.644,284.787 331.968,286.11 331.968,287.744 C331.968,289.376 330.644,290.7 329.011,290.7" fill="#3CD2E9"/>
    <path d="M360.139,290.7 L342.473,290.7 C340.841,290.7 339.517,289.376 339.517,287.744 C339.517,286.11 340.841,284.787 342.473,284.787 L360.139,284.787 C361.772,284.787 363.095,286.11 363.095,287.744 C363.095,289.376 361.772,290.7 360.139,290.7" fill="#FFAE23"/>
    <path d="M362.476,328.358 L274.675,328.358 C273.042,328.358 271.718,327.035 271.718,325.402 C271.718,323.769 273.042,322.445 274.675,322.445 L362.476,322.445 C364.109,322.445 365.433,323.769 365.433,325.402 C365.433,327.035 364.109,328.358 362.476,328.358" fill="#FFFFFF"/>
    <path d="M263,328.358 L245.335,328.358 C243.702,328.358 242.379,327.035 242.379,325.402 C242.379,323.769 243.702,322.445 245.335,322.445 L263,322.445 C264.633,322.445 265.957,323.769 265.957,325.402 C265.957,327.035 264.633,328.358 263,328.358" fill="#3CD2E9"/>
    <path d="M245.335,366.017 L320.76,366.017 C322.392,366.017 323.716,364.693 323.716,363.06 C323.716,361.428 322.392,360.104 320.76,360.104 L245.335,360.104 C243.702,360.104 242.379,361.428 242.379,363.06 C242.379,364.693 243.702,366.017 245.335,366.017" fill="#3CD2E9"/>
    <path d="M332.434,366.017 L350.099,366.017 C351.732,366.017 353.056,364.693 353.056,363.06 C353.056,361.428 351.732,360.104 350.099,360.104 L332.434,360.104 C330.801,360.104 329.477,361.428 329.477,363.06 C329.477,364.693 330.801,366.017 332.434,366.017" fill="#FFFFFF"/>
    <path d="M245.335,309.529 L307.214,309.529 C308.846,309.529 310.17,308.206 310.17,306.573 C310.17,304.94 308.846,303.616 307.214,303.616 L245.335,303.616 C243.702,303.616 242.379,304.94 242.379,306.573 C242.379,308.206 243.702,309.529 245.335,309.529" fill="#EE3645"/>
    <path d="M320.765,309.529 L346.681,309.529 C348.314,309.529 349.638,308.206 349.638,306.573 C349.638,304.94 348.314,303.616 346.681,303.616 L320.765,303.616 C319.132,303.616 317.808,304.94 317.808,306.573 C317.808,308.206 319.132,309.529 320.765,309.529" fill="#3CD2E9"/>
    <path d="M296.005,347.188 L245.335,347.188 C243.702,347.188 242.379,345.864 242.379,344.231 C242.379,342.598 243.702,341.274 245.335,341.274 L296.005,341.274 C297.639,341.274 298.962,342.598 298.962,344.231 C298.962,345.864 297.639,347.188 296.005,347.188" fill="#FFAE23"/>
    <path d="M410.814,347.188 L348.936,347.188 C347.303,347.188 345.979,345.864 345.979,344.231 C345.979,342.598 347.303,341.274 348.936,341.274 L410.814,341.274 C412.447,341.274 413.771,342.598 413.771,344.231 C413.771,345.864 412.447,347.188 410.814,347.188" fill="#3CD2E9"/>
    <path d="M335.385,347.188 L309.468,347.188 C307.835,347.188 306.512,345.864 306.512,344.231 C306.512,342.598 307.835,341.274 309.468,341.274 L335.385,341.274 C337.017,341.274 338.341,342.598 338.341,344.231 C338.341,345.864 337.017,347.188 335.385,347.188" fill="#FFFFFF"/>
    <path d="M322.677,384.847 L288.509,384.847 C286.876,384.847 285.552,383.523 285.552,381.89 C285.552,380.257 286.876,378.933 288.509,378.933 L322.677,378.933 C324.31,378.933 325.633,380.257 325.633,381.89 C325.633,383.523 324.31,384.847 322.677,384.847" fill="#FFFFFF"/>
    <path d="M276.835,384.847 L230.289,384.847 C228.657,384.847 227.333,383.523 227.333,381.89 C227.333,380.257 228.657,378.933 230.289,378.933 L276.835,378.933 C278.467,378.933 279.791,380.257 279.791,381.89 C279.791,383.523 278.467,384.847 276.835,384.847" fill="#EE3645"/>
    <path d="M237.136,136.206 C236.86,136.206 236.58,136.15 236.312,136.033 L226.508,131.754 C225.747,131.422 225.26,130.667 225.271,129.837 C225.281,129.007 225.788,128.264 226.557,127.952 L236.36,123.969 C237.416,123.539 238.619,124.047 239.048,125.103 C239.477,126.159 238.969,127.362 237.913,127.791 L232.646,129.931 L237.962,132.252 C239.006,132.707 239.483,133.923 239.027,134.967 C238.689,135.743 237.931,136.206 237.136,136.206" fill="#FFFFFF"/>
    <path d="M256.46,136.206 C255.664,136.206 254.906,135.743 254.568,134.967 C254.112,133.923 254.589,132.707 255.634,132.252 L260.95,129.931 L255.682,127.791 C254.627,127.362 254.119,126.159 254.547,125.103 C254.976,124.047 256.178,123.539 257.235,123.969 L267.039,127.952 C267.807,128.264 268.314,129.007 268.325,129.837 C268.335,130.667 267.848,131.422 267.087,131.754 L257.284,136.033 C257.015,136.15 256.735,136.206 256.46,136.206" fill="#FFFFFF"/>
    <path d="M245.568,138.621 C245.393,138.621 245.215,138.598 245.039,138.551 C243.937,138.26 243.28,137.131 243.572,136.03 L247.154,122.49 C247.445,121.389 248.574,120.732 249.675,121.024 C250.777,121.315 251.433,122.444 251.142,123.546 L247.56,137.085 C247.316,138.009 246.481,138.621 245.568,138.621" fill="#FFFFFF"/>
    <path d="M237.136,416.875 C236.86,416.875 236.58,416.82 236.312,416.702 L226.508,412.423 C225.747,412.091 225.26,411.336 225.271,410.506 C225.281,409.677 225.788,408.934 226.557,408.622 L236.36,404.638 C237.416,404.208 238.619,404.717 239.048,405.773 C239.477,406.828 238.969,408.032 237.913,408.46 L232.646,410.6 L237.962,412.922 C239.006,413.377 239.483,414.593 239.027,415.637 C238.689,416.412 237.931,416.875 237.136,416.875" fill="#FFFFFF"/>
    <path d="M256.46,416.875 C255.664,416.875 254.906,416.412 254.568,415.637 C254.112,414.593 254.589,413.377 255.634,412.922 L260.95,410.6 L255.682,408.46 C254.627,408.032 254.119,406.828 254.547,405.773 C254.976,404.717 256.178,404.208 257.235,404.638 L267.039,408.622 C267.807,408.934 268.314,409.677 268.325,410.506 C268.335,411.336 267.848,412.091 267.087,412.423 L257.284,416.702 C257.015,416.819 256.735,416.875 256.46,416.875" fill="#FFFFFF"/>
    <path d="M245.568,419.29 C245.393,419.29 245.215,419.268 245.039,419.221 C243.937,418.93 243.28,417.801 243.572,416.699 L247.154,403.16 C247.445,402.058 248.574,401.402 249.675,401.693 C250.777,401.984 251.433,403.114 251.142,404.215 L247.56,417.754 C247.316,418.679 246.481,419.29 245.568,419.29" fill="#FFFFFF"/>
    <path d="M606.003,270.016 L493.547,270.016 C486.786,270.016 481.306,275.495 481.306,282.255 L481.306,366.693 C481.306,373.453 486.786,378.933 493.547,378.933 L502.957,378.933 L502.957,409.945 C502.957,412.986 506.634,414.51 508.784,412.359 L542.209,378.933 L606.003,378.933 C612.76,378.933 618.24,373.453 618.24,366.693 L618.24,282.255 C618.24,275.495 612.76,270.016 606.003,270.016" fill="#EE3645"/>
    <path d="M526.537,339.911 C525.871,339.911 525.201,339.778 524.553,339.496 L500.973,329.203 C499.147,328.405 497.972,326.589 497.995,324.593 C498.023,322.597 499.244,320.811 501.089,320.06 L524.669,310.479 C527.208,309.448 530.103,310.669 531.134,313.208 C532.165,315.746 530.944,318.64 528.405,319.672 L515.735,324.82 L528.521,330.401 C531.032,331.497 532.179,334.422 531.083,336.933 C530.269,338.798 528.447,339.911 526.537,339.911" fill="#FFFFFF"/>
    <path d="M573.013,339.911 C571.098,339.911 569.276,338.798 568.462,336.933 C567.366,334.422 568.513,331.497 571.024,330.401 L583.811,324.82 L571.14,319.672 C568.601,318.641 567.38,315.746 568.411,313.208 C569.443,310.669 572.338,309.447 574.876,310.479 L598.456,320.06 C600.306,320.811 601.522,322.597 601.55,324.593 C601.573,326.589 600.403,328.405 598.572,329.203 L574.992,339.496 C574.349,339.778 573.674,339.911 573.013,339.911" fill="#FFFFFF"/>
    <path d="M546.815,345.719 C546.395,345.719 545.969,345.666 545.544,345.553 C542.894,344.852 541.312,342.137 542.015,339.488 L550.631,306.923 C551.329,304.274 554.048,302.695 556.693,303.396 C559.343,304.096 560.924,306.812 560.222,309.461 L551.606,342.026 C551.019,344.249 549.012,345.719 546.815,345.719" fill="#FFFFFF"/>
    <path d="M101.775,63.136 L238.194,63.136 C242.681,72.687 252.383,79.302 263.633,79.302 C273.906,79.302 282.886,73.785 287.785,65.555 C288.221,64.822 287.7,63.892 286.847,63.892 L259.466,63.892 L252.141,51.205 L259.466,38.518 L286.847,38.518 C287.7,38.518 288.221,37.588 287.785,36.855 C282.886,28.625 273.906,23.108 263.633,23.108 C252.383,23.108 242.681,29.723 238.194,39.274 L101.775,39.274 C97.288,29.723 87.586,23.108 76.336,23.108 C66.063,23.108 57.084,28.625 52.184,36.855 C51.748,37.588 52.269,38.518 53.122,38.518 L80.503,38.518 L87.828,51.205 L80.503,63.892 L53.122,63.892 C52.269,63.892 51.748,64.822 52.184,65.555 C57.084,73.785 66.063,79.302 76.336,79.302 C87.586,79.302 97.288,72.687 101.775,63.136" fill="#FFAE23"/>
    <path d="M119.615,51.205 L119.615,51.205 C119.615,48.412 121.879,46.148 124.672,46.148 L215.297,46.148 C218.09,46.148 220.354,48.412 220.354,51.205 C220.354,53.998 218.09,56.262 215.297,56.262 L124.672,56.262 C121.879,56.262 119.615,53.998 119.615,51.205" fill="#EA9F1F"/>
  </g>
</svg>
