<?xml version="1.0" encoding="UTF-8"?>
<!DOCTYPE svg PUBLIC "-//W3C//DTD SVG 1.1//EN" "http://www.w3.org/Graphics/SVG/1.1/DTD/svg11.dtd">
<svg version="1.1" xmlns="http://www.w3.org/2000/svg" xmlns:xlink="http://www.w3.org/1999/xlink" x="0" y="0" width="900" height="500" viewBox="0, 0, 900, 500">
  <g id="Layer_1">
    <path d="M698.105,250 C698.105,386.749 587.025,497.605 450,497.605 C312.975,497.605 201.895,386.749 201.895,250 C201.895,113.252 312.975,2.395 450,2.395 C587.025,2.395 698.105,113.252 698.105,250" fill="#D6D6D6"/>
    <path d="M646.588,401.067 L253.412,401.067 C298.779,459.782 369.962,497.605 450,497.605 C530.038,497.605 601.22,459.782 646.588,401.067" fill="#2EA7B9"/>
    <path d="M286.921,280.913 C274.83,280.913 265.029,271.131 265.029,259.065 C265.029,246.999 274.83,237.217 286.921,237.217 C299.011,237.217 308.812,246.999 308.812,259.065 C308.812,271.131 299.011,280.913 286.921,280.913 z M335.423,250.229 L329.411,250.229 C328.356,244.864 326.386,240.273 323.578,235.873 L327.927,231.54 C328.914,230.555 328.914,228.961 327.927,227.976 L318.562,218.631 C317.574,217.646 315.974,217.647 314.987,218.632 L310.724,222.876 C306.354,220.003 301.466,217.96 296.407,216.831 L296.407,210.693 C296.407,209.3 295.297,207.943 293.901,207.943 L280.656,207.943 C279.26,207.943 278.067,209.3 278.067,210.693 L278.067,216.694 C273.007,217.746 268.107,219.712 263.698,222.514 L259.365,218.174 C258.378,217.189 256.785,217.189 255.798,218.174 L246.436,227.521 C245.448,228.506 245.451,230.103 246.438,231.089 L250.69,235.484 C247.812,239.845 245.766,244.233 244.634,249.914 L238.484,249.914 C237.087,249.914 236.011,250.738 236.011,252.132 L236.011,265.35 C236.011,266.743 237.087,267.586 238.484,267.586 L244.496,267.586 C245.55,272.635 247.521,277.7 250.328,282.1 L245.98,286.511 C244.993,287.496 244.993,289.13 245.98,290.115 L255.345,299.479 C256.332,300.464 257.933,300.474 258.921,299.488 L263.15,295.25 C267.519,298.122 272.375,300.17 277.434,301.3 L277.434,307.437 C277.434,308.831 278.61,310.188 280.006,310.188 L293.25,310.188 C294.647,310.188 295.774,308.831 295.774,307.437 L295.774,301.437 C300.834,300.384 305.767,298.418 310.176,295.616 L314.525,299.956 C315.513,300.942 317.114,300.942 318.101,299.956 L327.467,290.61 C328.454,289.625 328.454,288.027 327.467,287.042 L323.216,282.962 C326.094,278.601 328.141,273.582 329.273,268.848 L335.423,268.848 C336.819,268.848 337.83,267.392 337.83,265.998 L337.83,252.781 C337.83,251.388 336.819,250.229 335.423,250.229" fill="#397FCD"/>
    <path d="M239.607,194.664 C230.978,194.664 223.983,187.684 223.983,179.072 C223.983,170.461 230.978,163.48 239.607,163.48 C248.235,163.48 255.23,170.461 255.23,179.072 C255.23,187.684 248.235,194.664 239.607,194.664 z M274.222,172.766 L269.931,172.766 C269.179,168.938 267.772,165.66 265.769,162.52 L268.872,159.429 C269.577,158.725 269.577,157.588 268.872,156.885 L262.188,150.215 C261.484,149.512 260.341,149.513 259.637,150.216 L256.594,153.244 C253.476,151.195 249.988,149.737 246.377,148.93 L246.377,144.55 C246.377,143.556 245.585,142.587 244.589,142.587 L235.136,142.587 C234.14,142.587 233.288,143.556 233.288,144.55 L233.288,148.832 C229.677,149.583 226.18,150.987 223.033,152.987 L219.941,149.889 C219.236,149.186 218.099,149.186 217.394,149.889 L210.713,156.559 C210.009,157.263 210.01,158.403 210.715,159.106 L213.75,162.243 C211.695,165.355 210.235,168.487 209.427,172.541 L205.038,172.541 C204.042,172.541 203.273,173.13 203.273,174.124 L203.273,183.557 C203.273,184.552 204.042,185.153 205.038,185.153 L209.329,185.153 C210.082,188.757 211.488,192.372 213.491,195.511 L210.388,198.66 C209.683,199.363 209.683,200.529 210.388,201.232 L217.072,207.915 C217.777,208.618 218.919,208.624 219.624,207.922 L222.642,204.896 C225.761,206.946 229.226,208.408 232.837,209.214 L232.837,213.595 C232.837,214.589 233.675,215.557 234.672,215.557 L244.124,215.557 C245.121,215.557 245.925,214.589 245.925,213.595 L245.925,209.312 C249.536,208.561 253.057,207.158 256.203,205.158 L259.308,208.256 C260.012,208.959 261.155,208.959 261.86,208.256 L268.544,201.585 C269.248,200.882 269.248,199.742 268.544,199.039 L265.509,196.127 C267.563,193.015 269.025,189.432 269.833,186.054 L274.222,186.054 C275.219,186.054 275.94,185.015 275.94,184.021 L275.94,174.587 C275.94,173.593 275.219,172.766 274.222,172.766" fill="#EE3645"/>
    <path d="M606.671,348.147 L293.327,348.147 L293.327,167.625 C293.327,165.863 294.758,164.435 296.523,164.435 L603.478,164.435 C605.243,164.435 606.671,165.863 606.671,167.625 L606.671,348.147" fill="#5C5C5C"/>
    <path d="M308.343,179.42 L591.657,179.42 L591.657,333.161 L308.343,333.161 z" fill="#FFFFFF"/>
    <path d="M606.671,348.147 L293.327,348.147 L293.327,382.253 C293.327,384.014 294.758,385.44 296.523,385.44 L603.478,385.44 C605.243,385.44 606.671,384.014 606.671,382.253 L606.671,348.147" fill="#F3F3F3"/>
    <path d="M501.177,416.695 L398.823,416.695 C395.975,416.695 393.666,418.997 393.666,421.841 C393.666,424.682 395.975,426.988 398.823,426.988 L501.177,426.988 C504.025,426.988 506.334,424.682 506.334,421.841 C506.334,418.997 504.025,416.695 501.177,416.695" fill="#F5F5F5"/>
    <path d="M481.288,385.44 L418.711,385.44 L413.211,416.695 L486.789,416.695 L481.288,385.44" fill="#E5E5E5"/>
    <path d="M458.316,367.428 C458.316,372.013 454.593,375.73 450,375.73 C445.407,375.73 441.683,372.013 441.683,367.428 C441.683,362.844 445.407,359.13 450,359.13 C454.593,359.13 458.316,362.844 458.316,367.428" fill="#E5E5E5"/>
    <path d="M653.248,69.712 C653.248,49.845 637.11,33.739 617.202,33.739 C597.296,33.739 581.159,49.845 581.159,69.712 C581.159,75.975 582.931,82.158 586.103,87.551 C587.705,90.28 589.662,92.712 591.835,95.008 C593.905,97.2 596.676,98.624 598.647,100.888 C600.348,102.844 600.55,105.206 601.372,107.546 C602.379,110.411 605.087,112.329 608.128,112.329 L626.303,112.329 C629.33,112.329 632.031,110.427 633.048,107.579 C633.747,105.619 634.225,103.119 635.313,101.361 C636.671,99.171 639.701,98.048 641.565,96.272 C643.954,93.994 646.074,91.532 647.811,88.716 C651.309,83.036 653.248,76.387 653.248,69.712" fill="#FFAE23"/>
    <path d="M628.054,47.257 C627.682,47.257 627.303,47.183 626.938,47.027 C626.112,46.672 625.261,46.36 624.404,46.1 C622.908,45.645 622.068,44.067 622.522,42.575 C622.979,41.084 624.56,40.244 626.052,40.698 C627.108,41.019 628.157,41.403 629.174,41.839 C630.61,42.455 631.273,44.116 630.656,45.548 C630.195,46.617 629.153,47.257 628.054,47.257" fill="#FFF5E9"/>
    <path d="M644.762,72.536 C643.199,72.536 641.93,71.272 641.93,69.712 C641.93,62.874 639.184,56.511 634.19,51.794 C633.055,50.722 633.006,48.935 634.08,47.803 C635.154,46.67 636.944,46.621 638.078,47.693 C644.124,53.403 647.591,61.429 647.591,69.712 C647.591,71.272 646.322,72.536 644.762,72.536" fill="#FFF5E9"/>
    <path d="M609.096,81.356 C607.83,81.356 606.565,80.995 605.477,80.269 L602.244,78.115 C601.542,77.648 601.351,76.701 601.823,76.001 C602.29,75.301 603.237,75.112 603.938,75.58 L607.171,77.733 C608.358,78.523 609.936,78.501 611.102,77.68 L613.494,75.991 C615.773,74.383 618.825,74.4 621.083,76.032 L623.319,77.643 C624.482,78.484 626.069,78.516 627.267,77.723 L630.773,75.404 C631.475,74.939 632.424,75.13 632.889,75.832 C633.357,76.534 633.162,77.479 632.46,77.945 L628.958,80.264 C626.704,81.755 623.716,81.695 621.526,80.114 L619.293,78.502 C618.091,77.635 616.471,77.626 615.259,78.481 L612.863,80.17 C611.743,80.96 610.421,81.356 609.096,81.356" fill="#FFE2BB"/>
    <path d="M609.255,115.084 C608.525,115.084 607.876,114.557 607.752,113.811 L601.287,75.328 C601.149,74.498 601.709,73.712 602.542,73.573 C603.375,73.434 604.162,73.994 604.3,74.824 L610.765,113.307 C610.903,114.138 610.343,114.923 609.51,115.063 C609.425,115.077 609.34,115.084 609.255,115.084" fill="#FFECD3"/>
    <path d="M625.229,115.084 C625.141,115.084 625.056,115.077 624.967,115.062 C624.134,114.918 623.578,114.129 623.723,113.299 L630.369,74.918 C630.514,74.088 631.305,73.533 632.134,73.675 C632.967,73.819 633.523,74.608 633.382,75.437 L626.732,113.819 C626.605,114.561 625.96,115.084 625.229,115.084" fill="#FFECD3"/>
    <path d="M629.483,127.75 L604.924,127.75 C604.523,127.75 604.201,127.426 604.201,127.028 L604.201,113.051 C604.201,112.653 604.523,112.329 604.924,112.329 L629.483,112.329 C629.883,112.329 630.206,112.653 630.206,113.051 L630.206,127.028 C630.206,127.426 629.883,127.75 629.483,127.75" fill="#5C5C5C"/>
    <path d="M617.202,133.657 L617.202,133.657 C612.771,133.657 609.177,130.072 609.177,125.65 L609.177,120.337 C609.177,115.915 612.771,112.329 617.202,112.329 C621.635,112.329 625.226,115.915 625.226,120.337 L625.226,125.65 C625.226,130.072 621.635,133.657 617.202,133.657" fill="#5C5C5C"/>
    <path d="M604.201,115.519 L630.206,115.519 L630.206,118.568 L604.201,118.568 z" fill="#818181"/>
    <path d="M604.201,121.469 L630.206,121.469 L630.206,124.518 L604.201,124.518 z" fill="#818181"/>
    <path d="M617.354,26.537 C616.443,26.537 615.706,25.8 615.706,24.891 L615.706,13.956 C615.706,13.047 616.443,12.31 617.354,12.31 C618.265,12.31 619.002,13.047 619.002,13.956 L619.002,24.891 C619.002,25.8 618.265,26.537 617.354,26.537" fill="#FFCF89"/>
    <path d="M641.349,33.841 C640.935,33.928 640.488,33.857 640.109,33.608 C639.347,33.11 639.13,32.091 639.63,31.329 L645.624,22.178 C646.123,21.417 647.148,21.203 647.91,21.701 C648.672,22.198 648.885,23.219 648.388,23.979 L642.391,33.131 C642.143,33.512 641.76,33.756 641.349,33.841" fill="#FFCF89"/>
    <path d="M664.621,45.607 L654.991,50.825 C654.19,51.259 653.191,50.963 652.755,50.164 C652.319,49.365 652.617,48.365 653.418,47.932 L663.044,42.714 C663.845,42.28 664.848,42.576 665.281,43.375 C665.717,44.174 665.419,45.173 664.621,45.607" fill="#FFCF89"/>
    <path d="M593.933,33.841 C594.348,33.928 594.794,33.857 595.173,33.608 C595.935,33.11 596.152,32.091 595.652,31.329 L589.655,22.178 C589.159,21.417 588.134,21.203 587.372,21.701 C586.61,22.198 586.398,23.219 586.894,23.979 L592.891,33.131 C593.139,33.512 593.518,33.756 593.933,33.841" fill="#FFCF89"/>
    <path d="M570.661,45.607 L580.291,50.825 C581.092,51.259 582.091,50.963 582.527,50.164 C582.963,49.365 582.665,48.365 581.864,47.932 L572.238,42.714 C571.437,42.28 570.434,42.576 569.998,43.375 C569.565,44.174 569.86,45.173 570.661,45.607" fill="#FFCF89"/>
    <path d="M549.029,478.504 L605.877,462.781 C606.505,462.608 606.508,461.724 605.884,461.543 L549.178,445.304 L549.029,478.504" fill="#FCDBDF"/>
    <path d="M549.104,445.304 L548.951,478.504 L326.16,477.492 L326.312,444.292 L549.104,445.304" fill="#FFAE23"/>
    <path d="M548.994,469.498 L548.951,478.504 L326.161,477.492 L326.202,468.487 L548.994,469.498" fill="#FFCF89"/>
    <path d="M549.104,445.304 L549.061,454.306 L326.271,453.298 L326.312,444.292 L549.104,445.304" fill="#FFCF89"/>
    <path d="M293.65,460.744 L293.65,460.744 C293.608,469.912 301.021,477.379 310.208,477.418 L326.161,477.492 L326.312,444.292 L310.359,444.218 C301.173,444.179 293.692,451.575 293.65,460.744" fill="#F68E98"/>
    <path d="M343.383,444.37 L343.232,477.57 L326.161,477.492 L326.312,444.292 L343.383,444.37" fill="#FCDBDF"/>
    <path d="M605.884,461.543 L583.037,454.999 C583.066,459.417 583.087,464.649 583.066,469.088 L605.877,462.781 C606.505,462.608 606.508,461.724 605.884,461.543" fill="#5C5C5C"/>
    <path d="M536.276,78.118 L331.19,78.118 C340.174,78.118 347.457,85.387 347.457,94.353 L347.457,333.16 L552.542,333.16 L552.542,94.353 C552.542,85.387 545.262,78.118 536.276,78.118" fill="#5C5C5C"/>
    <path d="M331.19,78.118 C322.205,78.118 314.923,85.387 314.923,94.353 L314.923,137.74 C314.923,146.706 307.639,153.974 298.656,153.974 L331.19,153.974 C340.174,153.974 347.457,146.706 347.457,137.74 L347.457,94.353 C347.457,85.387 340.174,78.118 331.19,78.118" fill="#EE3645"/>
    <path d="M314.923,116.046 L314.923,137.74 C314.923,146.706 307.639,153.974 298.656,153.974 C289.671,153.974 282.388,146.706 282.388,137.74 L282.388,116.046 L314.923,116.046" fill="#5C5C5C"/>
    <path d="M427.777,134.427 L388.941,134.427 C387.69,134.427 386.675,133.414 386.675,132.165 C386.675,130.916 387.69,129.904 388.941,129.904 L427.777,129.904 C429.029,129.904 430.043,130.916 430.043,132.165 C430.043,133.414 429.029,134.427 427.777,134.427" fill="#3CD2E9"/>
    <path d="M486.77,134.427 L460.583,134.427 C459.331,134.427 458.316,133.414 458.316,132.165 C458.316,130.916 459.331,129.904 460.583,129.904 L486.77,129.904 C488.022,129.904 489.036,130.916 489.036,132.165 C489.036,133.414 488.022,134.427 486.77,134.427" fill="#FFFFFF"/>
    <path d="M451.635,134.427 L438.096,134.427 C436.844,134.427 435.83,133.414 435.83,132.165 C435.83,130.916 436.844,129.904 438.096,129.904 L451.635,129.904 C452.887,129.904 453.901,130.916 453.901,132.165 C453.901,133.414 452.887,134.427 451.635,134.427" fill="#FFAE23"/>
    <path d="M478.723,163.232 L411.429,163.232 C410.177,163.232 409.162,162.219 409.162,160.97 C409.162,159.721 410.177,158.709 411.429,158.709 L478.723,158.709 C479.975,158.709 480.989,159.721 480.989,160.97 C480.989,162.219 479.975,163.232 478.723,163.232" fill="#FFAE23"/>
    <path d="M402.481,163.232 L388.941,163.232 C387.69,163.232 386.675,162.219 386.675,160.97 C386.675,159.721 387.69,158.709 388.941,158.709 L402.481,158.709 C403.732,158.709 404.747,159.721 404.747,160.97 C404.747,162.219 403.732,163.232 402.481,163.232" fill="#3CD2E9"/>
    <path d="M388.941,192.037 L446.75,192.037 C448.001,192.037 449.016,191.024 449.016,189.775 C449.016,188.526 448.001,187.514 446.75,187.514 L388.941,187.514 C387.69,187.514 386.675,188.526 386.675,189.775 C386.675,191.024 387.69,192.037 388.941,192.037" fill="#3CD2E9"/>
    <path d="M455.698,192.037 L469.237,192.037 C470.489,192.037 471.503,191.024 471.503,189.775 C471.503,188.526 470.489,187.514 469.237,187.514 L455.698,187.514 C454.446,187.514 453.432,188.526 453.432,189.775 C453.432,191.024 454.446,192.037 455.698,192.037" fill="#FFFFFF"/>
    <path d="M476.935,148.829 L515.771,148.829 C517.023,148.829 518.037,147.817 518.037,146.568 C518.037,145.319 517.023,144.307 515.771,144.307 L476.935,144.307 C475.684,144.307 474.669,145.319 474.669,146.568 C474.669,147.817 475.684,148.829 476.935,148.829" fill="#EE3645"/>
    <path d="M388.941,148.829 L436.368,148.829 C437.619,148.829 438.634,147.817 438.634,146.568 C438.634,145.319 437.619,144.307 436.368,144.307 L388.941,144.307 C387.69,144.307 386.675,145.319 386.675,146.568 C386.675,147.817 387.69,148.829 388.941,148.829" fill="#FFFFFF"/>
    <path d="M446.754,148.829 L466.617,148.829 C467.869,148.829 468.883,147.817 468.883,146.568 C468.883,145.319 467.869,144.307 466.617,144.307 L446.754,144.307 C445.502,144.307 444.488,145.319 444.488,146.568 C444.488,147.817 445.502,148.829 446.754,148.829" fill="#3CD2E9"/>
    <path d="M427.777,177.634 L388.941,177.634 C387.69,177.634 386.675,176.622 386.675,175.373 C386.675,174.124 387.69,173.111 388.941,173.111 L427.777,173.111 C429.029,173.111 430.043,174.124 430.043,175.373 C430.043,176.622 429.029,177.634 427.777,177.634" fill="#FFAE23"/>
    <path d="M515.771,177.634 L468.345,177.634 C467.094,177.634 466.079,176.622 466.079,175.373 C466.079,174.124 467.094,173.111 468.345,173.111 L515.771,173.111 C517.023,173.111 518.037,174.124 518.037,175.373 C518.037,176.622 517.023,177.634 515.771,177.634" fill="#3CD2E9"/>
    <path d="M457.959,177.634 L438.096,177.634 C436.844,177.634 435.83,176.622 435.83,175.373 C435.83,174.124 436.844,173.111 438.096,173.111 L457.959,173.111 C459.211,173.111 460.225,174.124 460.225,175.373 C460.225,176.622 459.211,177.634 457.959,177.634" fill="#FFFFFF"/>
    <path d="M409.922,120.024 L377.41,120.024 C376.159,120.024 375.144,119.012 375.144,117.763 C375.144,116.514 376.159,115.502 377.41,115.502 L409.922,115.502 C411.173,115.502 412.188,116.514 412.188,117.763 C412.188,119.012 411.173,120.024 409.922,120.024" fill="#EE3645"/>
    <path d="M435.897,120.024 L419.196,120.024 C417.944,120.024 416.93,119.012 416.93,117.763 C416.93,116.514 417.944,115.502 419.196,115.502 L435.897,115.502 C437.149,115.502 438.163,116.514 438.163,117.763 C438.163,119.012 437.149,120.024 435.897,120.024" fill="#3CD2E9"/>
    <path d="M448.219,206.439 L422.031,206.439 C420.78,206.439 419.766,205.427 419.766,204.178 C419.766,202.929 420.78,201.916 422.031,201.916 L448.219,201.916 C449.471,201.916 450.485,202.929 450.485,204.178 C450.485,205.427 449.471,206.439 448.219,206.439" fill="#FFFFFF"/>
    <path d="M413.084,206.439 L377.41,206.439 C376.159,206.439 375.144,205.427 375.144,204.178 C375.144,202.929 376.159,201.916 377.41,201.916 L413.084,201.916 C414.335,201.916 415.35,202.929 415.35,204.178 C415.35,205.427 414.335,206.439 413.084,206.439" fill="#EE3645"/>
    <path d="M453.074,223.764 L388.941,223.764 C387.69,223.764 386.675,222.751 386.675,221.503 C386.675,220.253 387.69,219.241 388.941,219.241 L453.074,219.241 C454.326,219.241 455.34,220.253 455.34,221.503 C455.34,222.751 454.326,223.764 453.074,223.764" fill="#3CD2E9"/>
    <path d="M476.932,223.764 L463.392,223.764 C462.141,223.764 461.126,222.751 461.126,221.503 C461.126,220.253 462.141,219.241 463.392,219.241 L476.932,219.241 C478.183,219.241 479.198,220.253 479.198,221.503 C479.198,222.751 478.183,223.764 476.932,223.764" fill="#FFAE23"/>
    <path d="M478.723,252.569 L411.429,252.569 C410.177,252.569 409.162,251.556 409.162,250.307 C409.162,249.058 410.177,248.046 411.429,248.046 L478.723,248.046 C479.975,248.046 480.989,249.058 480.989,250.307 C480.989,251.556 479.975,252.569 478.723,252.569" fill="#FFFFFF"/>
    <path d="M402.481,252.569 L388.941,252.569 C387.69,252.569 386.675,251.556 386.675,250.307 C386.675,249.058 387.69,248.046 388.941,248.046 L402.481,248.046 C403.732,248.046 404.747,249.058 404.747,250.307 C404.747,251.556 403.732,252.569 402.481,252.569" fill="#3CD2E9"/>
    <path d="M388.941,281.374 L446.75,281.374 C448.001,281.374 449.016,280.361 449.016,279.112 C449.016,277.863 448.001,276.851 446.75,276.851 L388.941,276.851 C387.69,276.851 386.675,277.863 386.675,279.112 C386.675,280.361 387.69,281.374 388.941,281.374" fill="#3CD2E9"/>
    <path d="M455.698,281.374 L469.237,281.374 C470.489,281.374 471.503,280.361 471.503,279.112 C471.503,277.863 470.489,276.851 469.237,276.851 L455.698,276.851 C454.446,276.851 453.432,277.863 453.432,279.112 C453.432,280.361 454.446,281.374 455.698,281.374" fill="#FFFFFF"/>
    <path d="M388.941,238.166 L436.368,238.166 C437.619,238.166 438.634,237.154 438.634,235.905 C438.634,234.656 437.619,233.644 436.368,233.644 L388.941,233.644 C387.69,233.644 386.675,234.656 386.675,235.905 C386.675,237.154 387.69,238.166 388.941,238.166" fill="#EE3645"/>
    <path d="M446.754,238.166 L466.617,238.166 C467.869,238.166 468.883,237.154 468.883,235.905 C468.883,234.656 467.869,233.644 466.617,233.644 L446.754,233.644 C445.502,233.644 444.488,234.656 444.488,235.905 C444.488,237.154 445.502,238.166 446.754,238.166" fill="#3CD2E9"/>
    <path d="M427.777,266.971 L388.941,266.971 C387.69,266.971 386.675,265.959 386.675,264.71 C386.675,263.461 387.69,262.448 388.941,262.448 L427.777,262.448 C429.029,262.448 430.043,263.461 430.043,264.71 C430.043,265.959 429.029,266.971 427.777,266.971" fill="#FFAE23"/>
    <path d="M515.771,266.971 L468.345,266.971 C467.094,266.971 466.079,265.959 466.079,264.71 C466.079,263.461 467.094,262.448 468.345,262.448 L515.771,262.448 C517.023,262.448 518.037,263.461 518.037,264.71 C518.037,265.959 517.023,266.971 515.771,266.971" fill="#3CD2E9"/>
    <path d="M457.959,266.971 L438.096,266.971 C436.844,266.971 435.83,265.959 435.83,264.71 C435.83,263.461 436.844,262.448 438.096,262.448 L457.959,262.448 C459.211,262.448 460.225,263.461 460.225,264.71 C460.225,265.959 459.211,266.971 457.959,266.971" fill="#FFFFFF"/>
    <path d="M448.219,295.776 L422.031,295.776 C420.78,295.776 419.766,294.764 419.766,293.515 C419.766,292.266 420.78,291.253 422.031,291.253 L448.219,291.253 C449.471,291.253 450.485,292.266 450.485,293.515 C450.485,294.764 449.471,295.776 448.219,295.776" fill="#FFFFFF"/>
    <path d="M413.084,295.776 L377.41,295.776 C376.159,295.776 375.144,294.764 375.144,293.515 C375.144,292.266 376.159,291.253 377.41,291.253 L413.084,291.253 C414.335,291.253 415.35,292.266 415.35,293.515 C415.35,294.764 414.335,295.776 413.084,295.776" fill="#EE3645"/>
    <path d="M382.657,105.592 C382.446,105.592 382.231,105.549 382.026,105.46 L374.512,102.187 C373.929,101.933 373.555,101.355 373.563,100.72 C373.571,100.085 373.959,99.517 374.549,99.278 L382.063,96.232 C382.872,95.903 383.794,96.292 384.123,97.099 C384.451,97.907 384.062,98.827 383.253,99.155 L379.216,100.792 L383.29,102.568 C384.091,102.916 384.456,103.846 384.107,104.645 C383.847,105.238 383.267,105.592 382.657,105.592" fill="#FFFFFF"/>
    <path d="M397.468,105.592 C396.858,105.592 396.277,105.238 396.018,104.645 C395.669,103.846 396.034,102.916 396.835,102.568 L400.909,100.792 L396.872,99.155 C396.063,98.827 395.674,97.907 396.002,97.099 C396.331,96.292 397.252,95.903 398.062,96.232 L405.576,99.278 C406.165,99.517 406.553,100.085 406.562,100.72 C406.57,101.355 406.196,101.933 405.613,102.187 L398.099,105.46 C397.893,105.549 397.679,105.592 397.468,105.592" fill="#FFFFFF"/>
    <path d="M389.12,107.439 C388.986,107.439 388.85,107.422 388.714,107.386 C387.87,107.163 387.367,106.3 387.59,105.457 L390.335,95.101 C390.559,94.259 391.424,93.756 392.268,93.979 C393.112,94.202 393.615,95.065 393.392,95.908 L390.647,106.264 C390.459,106.971 389.82,107.439 389.12,107.439" fill="#FFFFFF"/>
    <path d="M382.657,320.275 C382.446,320.275 382.231,320.233 382.026,320.143 L374.512,316.87 C373.929,316.616 373.555,316.038 373.563,315.403 C373.571,314.769 373.959,314.201 374.549,313.962 L382.063,310.915 C382.872,310.586 383.794,310.975 384.123,311.783 C384.451,312.59 384.062,313.511 383.253,313.839 L379.216,315.476 L383.29,317.251 C384.091,317.599 384.456,318.53 384.107,319.328 C383.847,319.921 383.267,320.275 382.657,320.275" fill="#FFFFFF"/>
    <path d="M397.468,320.275 C396.858,320.275 396.277,319.921 396.018,319.328 C395.669,318.53 396.034,317.599 396.835,317.251 L400.909,315.476 L396.872,313.839 C396.063,313.511 395.674,312.59 396.002,311.783 C396.331,310.975 397.252,310.586 398.062,310.915 L405.576,313.962 C406.165,314.201 406.553,314.769 406.562,315.403 C406.57,316.038 406.196,316.616 405.613,316.87 L398.099,320.143 C397.893,320.232 397.679,320.275 397.468,320.275" fill="#FFFFFF"/>
    <path d="M389.12,322.122 C388.986,322.122 388.85,322.105 388.714,322.07 C387.87,321.847 387.367,320.983 387.59,320.14 L390.335,309.785 C390.559,308.942 391.424,308.439 392.268,308.662 C393.112,308.885 393.615,309.749 393.392,310.591 L390.647,320.947 C390.459,321.655 389.82,322.122 389.12,322.122" fill="#FFFFFF"/>
    <path d="M665.373,207.943 L579.181,207.943 C573.999,207.943 569.799,212.134 569.799,217.305 L569.799,281.891 C569.799,287.062 573.999,291.253 579.181,291.253 L586.394,291.253 L586.394,314.974 C586.394,317.3 589.212,318.466 590.86,316.82 L616.478,291.253 L665.373,291.253 C670.551,291.253 674.751,287.062 674.751,281.891 L674.751,217.305 C674.751,212.134 670.551,207.943 665.373,207.943" fill="#EE3645"/>
    <path d="M604.467,261.405 C603.956,261.405 603.442,261.304 602.946,261.088 L584.873,253.215 C583.473,252.604 582.573,251.215 582.591,249.688 C582.612,248.162 583.548,246.796 584.962,246.221 L603.035,238.893 C604.981,238.104 607.199,239.038 607.99,240.98 C608.78,242.922 607.844,245.136 605.899,245.924 L596.187,249.862 L605.987,254.131 C607.912,254.97 608.791,257.207 607.951,259.128 C607.327,260.554 605.93,261.405 604.467,261.405" fill="#FFFFFF"/>
    <path d="M640.087,261.405 C638.62,261.405 637.224,260.554 636.6,259.128 C635.76,257.207 636.639,254.97 638.563,254.131 L648.364,249.862 L638.652,245.924 C636.706,245.136 635.77,242.922 636.561,240.98 C637.351,239.038 639.57,238.104 641.516,238.893 L659.589,246.221 C661.006,246.796 661.938,248.162 661.96,249.688 C661.977,251.215 661.081,252.604 659.677,253.215 L641.604,261.088 C641.112,261.304 640.594,261.405 640.087,261.405" fill="#FFFFFF"/>
    <path d="M620.009,265.848 C619.686,265.848 619.36,265.807 619.034,265.721 C617.003,265.185 615.791,263.108 616.33,261.082 L622.933,236.173 C623.468,234.147 625.552,232.939 627.579,233.475 C629.61,234.011 630.823,236.088 630.284,238.114 L623.681,263.023 C623.231,264.724 621.692,265.848 620.009,265.848" fill="#FFFFFF"/>
    <path d="M278.911,49.701 L383.469,49.701 C386.908,57.006 394.343,62.066 402.966,62.066 C410.839,62.066 417.722,57.846 421.477,51.551 C421.811,50.99 421.412,50.279 420.758,50.279 L399.772,50.279 L394.158,40.575 L399.772,30.871 L420.758,30.871 C421.412,30.871 421.811,30.159 421.477,29.598 C417.722,23.303 410.839,19.084 402.966,19.084 C394.343,19.084 386.908,24.144 383.469,31.449 L278.911,31.449 C275.472,24.144 268.036,19.084 259.414,19.084 C251.54,19.084 244.658,23.303 240.902,29.598 C240.568,30.159 240.967,30.871 241.621,30.871 L262.607,30.871 L268.221,40.575 L262.607,50.279 L241.621,50.279 C240.967,50.279 240.568,50.99 240.902,51.551 C244.658,57.846 251.54,62.066 259.414,62.066 C268.036,62.066 275.472,57.006 278.911,49.701" fill="#FFAE23"/>
    <path d="M292.584,40.575 L292.584,40.575 C292.584,38.438 294.319,36.707 296.46,36.707 L365.919,36.707 C368.06,36.707 369.795,38.438 369.795,40.575 C369.795,42.711 368.06,44.443 365.919,44.443 L296.46,44.443 C294.319,44.443 292.584,42.711 292.584,40.575" fill="#EA9F1F"/>
  </g>
</svg>
