<svg xmlns="http://www.w3.org/2000/svg" width="650" height="450"><path d="M325 113.493c178.218 0 322.694 73.334 322.694 163.796 0 90.463-144.476 163.796-322.694 163.796-178.219 0-322.694-73.333-322.694-163.796 0-90.462 144.475-163.796 322.694-163.796" fill="#D6D6D6"/><path d="M429.163 65.749v120.706l-86.887 50.169-68.08-39.306V76.611l86.881-50.167 68.086 39.305" fill="#DCDCD7"/><path d="M342.276 236.624l-68.08-39.306V76.611l68.08 39.306v120.707" fill="#F1F0EB"/><path d="M274.196 76.611l68.08 39.306 86.887-50.168-68.086-39.305-86.881 50.167" fill="#FFFFFE"/><path d="M286.357 83.632l38.441 22.194c26.894-2.94 58.327-26.415 80.934-52.236l-34.765-18.814-84.61 48.856" fill="#F1F0EB"/><path d="M293.506 148.11l11.865 6.849-.941 1.641-11.865-6.849.941-1.641zm-11.85-43.122l26.52 15.311-.945 1.641-26.519-15.311.944-1.641zm35.95 22.943l-8.185-4.726.948-1.641 8.185 4.725-.948 1.642zm-15.49 44.46l39.378 22.734-.952 1.641-39.377-22.734.951-1.641" fill="#DCDCD7"/><path d="M351.052 145.376l50.163-28.962-4.291 15.884-45.872 13.078" fill="#BCBEBA"/><path d="M397.589 168.114l28.023-16.178v5.915l-28.023 10.263" fill="#F1F0EB"/><path d="M253.363 57.584l68.081 39.307c27.836.186 62.25-23.549 86.884-50.169-22.695-13.102-45.391-26.203-68.083-39.305-25.2 25.198-47.994 48.366-86.882 50.167" fill="#FFFFFE"/><path d="M341.444 16.536l-.346.607 5.504 3.179.35-.607-5.508-3.179zm1.833-2.273l8.765 5.06-.35.607-8.765-5.06.35-.607" fill="#585E8E"/><path d="M303.273 70.683c.032-.004 9.866-1.448 16.084-5.269l4.036 2.331c-4.11 3.154-10.307 5.081-14.609 6.119l-5.511-3.181" fill="#E77F98"/><path d="M294.737 65.586c.015-.003 5.685-.503 10.22-2.7l4.761 2.748c-3.219 1.811-7.032 2.649-9.607 3.054l-5.374-3.102m-8.305-4.796c.042-.007 14.432-2.595 22.197-8.524l3.884 2.244c-5.572 4.944-15.066 7.942-20.712 9.381l-5.369-3.101" fill="#FBE0B5"/><path d="M291.762 272.711l-76.605-44.227-36.053 20.895-.069-.04-45.061 26.1 77.177 44.555-4.336 2.504 14.23 1.475c1.508.156 2.847-.131 4.16-.888l66.557-38.427c2.194-1.266 3.449-3.441 3.449-5.973 0-2.533-1.255-4.708-3.449-5.974" fill="#6FA6B0"/><path d="M285.477 158.031l2.943 110.741-37.625 23.075-88.182-47.834-2.94-110.748c-.058-2.181.972-4.083 2.83-5.227l31.699-19.513c1.864-1.148 4.035-1.207 5.96-.163l82.202 44.594c1.924 1.042 3.056 2.89 3.113 5.075" fill="#FFFFFE"/><path d="M288.066 161.369v114.217l-38.222 22.066-86.881-50.155V133.28l38.153-22.112 86.95 50.201" fill="#313961"/><path d="M288.066 161.369v114.217l-38.222 22.066V183.436l38.222-22.067" fill="#313961"/><path d="M283.598 169.108l-29.285 16.908v103.898l29.285-16.908V169.108" fill="#F5B96D"/><path d="M162.963 133.28l86.881 50.156 38.222-22.067-86.95-50.201-38.153 22.112" fill="#585E8E"/><path d="M166.975 130.954l80.94 46.728 30.183-17.427-80.994-46.762-30.129 17.461" fill="#F1F0EB"/><path d="M268.954 253.891c5.348-3.087 9.685-1.255 9.685 4.093 0 5.347-4.337 12.185-9.685 15.272-5.346 3.088-9.681 1.256-9.681-4.092s4.335-12.185 9.681-15.273" fill="#313961"/><path d="M166.975 130.954l76.066 43.914 25.75-14.867-76.12-43.948-25.696 14.901m74.62 52.443l2.94 110.742-37.623 23.074-85.16-46.195c-1.923-1.042-3.056-2.89-3.114-5.075l-2.849-107.311c-.058-2.182.972-4.084 2.831-5.228l31.698-19.513c1.865-1.148 4.035-1.207 5.96-.163l82.204 44.594c1.921 1.043 3.054 2.89 3.113 5.075" fill="#FFFFFE"/><path d="M245.036 186.212v114.217l-38.221 22.069-86.882-50.158V158.123l38.153-22.112 86.95 50.201" fill="#313961"/><path d="M245.036 186.212v114.217l-38.221 22.069V208.279l38.221-22.067" fill="#313961"/><path d="M240.568 193.951l-29.285 16.908v103.899l29.285-16.908V193.951" fill="#DF4E6F"/><path d="M119.933 158.123l86.882 50.156 38.221-22.067-86.95-50.201-38.153 22.112" fill="#585E8E"/><path d="M123.945 155.798l80.94 46.727 30.183-17.427-80.994-46.761-30.129 17.461" fill="#F1F0EB"/><path d="M225.925 278.734c5.348-3.087 9.683-1.255 9.683 4.093s-4.335 12.186-9.683 15.274c-5.347 3.088-9.682 1.256-9.682-4.093 0-5.348 4.335-12.186 9.682-15.274" fill="#313961"/><path d="M123.945 155.798l76.066 43.914 25.75-14.868-76.12-43.948-25.696 14.902m109.532 122.12c3.382-.443 5.74 1.588 5.74 5.531 0 5.348-4.335 12.186-9.683 15.275-5.347 3.084-9.682 1.255-9.682-4.093 0-.34.017-.683.051-1.033.467 4.018 4.099 5.26 8.511 2.713 4.73-2.731 8.564-8.779 8.564-13.508 0-2.835-1.379-4.552-3.501-4.885" fill="#FFFFFE"/><path d="M134.36 381.087L36.771 325.42l59.443-34.319 83.636 48.284-45.49 41.702" fill="#6FA6B0"/><path d="M105.708 268.759l18.629 32.232 54.352 16.877 20.842 25.592-65.171 37.627-24.511-23.474-49.873-19.462-18.101-35.257 63.833-34.135" fill="#F1F0EB"/><path d="M105.708 268.759l18.629 32.232-64.361 37.16-18.101-35.257 63.833-34.135m72.981 49.109l20.842 25.592-65.171 37.627-24.511-23.474 68.84-39.745" fill="#FFFFFE"/><path d="M222.962 366.407l48.712-28.122c1.744-1.008 3.477-.088 5.175.994l22.798 14.57 51.702 29.849c1.277.739 2.013 2.009 2.013 3.487 0 1.475-.732 2.745-2.013 3.485l-46.417 26.799c-1.539.887-3.215 1.241-4.86 1.061l-10.878-.495 4.337-2.505-49.927-28.826-21.879-14.439c-.988-.651-.932-2.045-.687-3.205.244-1.157.9-2.059 1.924-2.653" fill="#6FA6B0"/><path d="M215.688 355.951l50.63-29.233c1.744-1.005 3.828-.502 5.175.998l18.706 18.659 51.702 29.848c1.28.739 2.012 2.009 2.012 3.484v5.837c0 1.479-.732 2.745-2.012 3.484l-48.334 27.906c-2.558 1.479-5.487 1.479-8.048 0l-55.092-31.903-15.809-17.389c-.552-.648-.959-1.422-.959-2.24v-5.833c0-.318.036-.64.104-.965.245-1.161.9-2.063 1.925-2.653" fill="#CDC7C2"/><path d="M215.688 355.951l50.63-29.233c1.744-1.005 3.746-.424 5.175.998l18.706 18.659 51.702 29.848c1.28.739 2.012 2.009 2.012 3.484 0 1.479-.732 2.749-2.012 3.488l-48.335 27.903c-2.557 1.478-5.486 1.478-8.047 0l-53.279-30.761-17.79-18.529c-.819-.856-.931-2.048-.687-3.204.245-1.161.9-2.063 1.925-2.653" fill="#F1F0EB"/><path d="M232.504 372.084l45.173-26.416a2.972 2.972 0 001.478-2.172 2.979 2.979 0 00-.742-2.522l-8.005-8.946a3.05 3.05 0 00-3.824-.612l-45.082 26.024a2.972 2.972 0 00-1.49 2.133 2.99 2.99 0 00.688 2.515l7.915 9.339a3.048 3.048 0 003.889.657m80.507 8.303l-7.237 4.181a.932.932 0 00-.481.831c0 .354.173.654.481.831l7.244 4.181a.932.932 0 00.959 0l7.241-4.177a.937.937 0 00.477-.831.938.938 0 00-.477-.832l-7.248-4.184a.946.946 0 00-.959 0m12.554-7.245l-7.241 4.178a.936.936 0 00-.477.831c0 .354.173.654.477.831l7.248 4.185a.95.95 0 00.959 0l7.237-4.181a.933.933 0 00.481-.831.933.933 0 00-.481-.832l-7.244-4.181a.932.932 0 00-.959 0m-37.658 7.245l-7.241 4.181a.937.937 0 00-.478.831c0 .354.174.654.478.831l7.248 4.185a.949.949 0 00.958 0l7.238-4.181a.933.933 0 00.481-.831.933.933 0 00-.481-.832l-7.245-4.184a.944.944 0 00-.958 0m12.55-7.245l-7.237 4.178a.94.94 0 00-.481.831.94.94 0 00.481.831l7.244 4.185a.958.958 0 00.963 0l7.237-4.181a.94.94 0 00.481-.831.941.941 0 00-.481-.832l-7.245-4.181a.938.938 0 00-.962 0m-25.104 0l-7.238 4.178a.934.934 0 00-.481.831c0 .354.174.654.481.831l7.245 4.185a.949.949 0 00.958 0l7.238-4.181a.933.933 0 00.481-.831.933.933 0 00-.481-.832l-7.245-4.181a.93.93 0 00-.958 0m12.554-7.248l-7.241 4.178a.941.941 0 00-.478.831c0 .354.174.654.478.831l7.248 4.185a.93.93 0 00.958 0l7.238-4.181a.93.93 0 00.481-.831.937.937 0 00-.481-.832l-7.245-4.181a.93.93 0 00-.958 0m-25.107 0l-7.239 4.178a.941.941 0 00-.48.831c0 .354.175.654.48.831l7.245 4.185a.934.934 0 00.96 0l7.239-4.181a.935.935 0 00.481-.831.943.943 0 00-.481-.832l-7.246-4.181a.932.932 0 00-.959 0m12.553-7.248l-7.238 4.178a.938.938 0 00-.481.831.93.93 0 00.481.831l7.245 4.185a.93.93 0 00.958 0l7.241-4.181a.933.933 0 00.478-.831.94.94 0 00-.478-.832l-7.248-4.181a.93.93 0 00-.958 0m12.554-7.248l-7.241 4.178a.943.943 0 00-.478.834c0 .351.174.655.478.828l7.244 4.185a.938.938 0 00.962 0l7.238-4.178a.936.936 0 00.481-.831.927.927 0 00-.481-.831l-7.245-4.185a.93.93 0 00-.958 0m-19.792 42.08l7.245 4.181a.93.93 0 00.958 0l7.238-4.177a.936.936 0 00.481-.831.933.933 0 00-.481-.832l-7.245-4.184a.93.93 0 00-.958 0l-7.238 4.181a.934.934 0 00-.481.831c0 .35.174.654.481.831m-12.554-7.248l7.245 4.185a.953.953 0 00.96 0l7.239-4.181a.936.936 0 00.478-.831.936.936 0 00-.478-.832l-7.246-4.184a.948.948 0 00-.96 0l-7.238 4.181a.935.935 0 00-.48.831c0 .354.174.654.48.831" fill="#313961"/><path d="M284.285 396.973l8.935-5.157 7.237-4.181a.938.938 0 01.962 0l7.245 4.184a.941.941 0 01.481.832c0 .35-.177.654-.481.831l-7.241 4.177-.014.011-5.285 3.049-.014.011-3.619 2.087-3.619 2.09a.938.938 0 01-.962 0l-7.244-4.181a.941.941 0 01-.478-.831c0-.354.174-.658.478-.831l3.619-2.091" fill="#DF4E6F"/><path d="M300.482 368.678l5.274 3.046.018.01 7.244 4.185a.932.932 0 00.959 0l7.241-4.178a.942.942 0 00.477-.834.94.94 0 00-.477-.832l-3.626-2.09-12.55-7.248-3.623-2.091a.938.938 0 00-.962 0l-7.237 4.178a.944.944 0 00-.481.831c0 .354.177.658.481.831l7.244 4.185.018.007m-57.474 10.304l7.245 4.185a.953.953 0 00.96 0l7.238-4.181a.937.937 0 00.481-.831.937.937 0 00-.481-.832l-7.244-4.181a.936.936 0 00-.961 0l-7.238 4.178a.936.936 0 00-.481.831c0 .354.175.654.481.831" fill="#313961"/><path d="M301.122 314.567l134.745-77.802c2.561-1.478 5.49-1.478 8.051 0l105.784 61.078c1.277.739 2.009 2.005 2.009 3.484s-.732 2.745-2.009 3.484l-134.745 77.804c-1.354.782-2.815 1.15-4.269 1.104l-15.472.081s1.496-2.957 4.099-5.571l-98.193-56.693c-1.28-.736-2.012-2.006-2.012-3.484 0-1.475.732-2.745 2.012-3.485" fill="#6FA6B0"/><path d="M266.177 176.873l134.932-77.904c1.21-.698 2.571-.737 3.82-.111 1.245.627 2.027 1.744 2.19 3.13l14.269 122.437c.379 3.26-1.128 6.26-3.972 7.901l-134.921 77.905c-1.21.696-2.572.739-3.821.113-1.245-.626-2.027-1.744-2.189-3.131l-14.278-122.439c-.38-3.26 1.127-6.26 3.97-7.901m270.309 124.546v-4.369c0-1.478-.732-2.748-2.012-3.484l-105.785-61.079c-2.557-1.478-5.49-1.478-8.047 0l-134.748 77.804c-1.277.739-2.009 2.005-2.009 3.484v4.372c0 1.475.732 2.745 2.009 3.484l105.788 61.076c2.561 1.479 5.49 1.479 8.051 0l134.741-77.804c1.28-.735 2.012-2.005 2.012-3.484" fill="#CDC7C2"/><path d="M285.894 310.291l134.748-77.804c2.557-1.478 5.49-1.478 8.047 0l105.785 61.079c1.28.736 2.012 2.006 2.012 3.484 0 1.475-.732 2.745-2.012 3.485l-134.741 77.8c-2.561 1.479-5.49 1.479-8.051 0l-105.788-61.076c-1.277-.739-2.009-2.005-2.009-3.484s.732-2.745 2.009-3.484" fill="#F1F0EB"/><path d="M268.844 177.356l134.932-77.904c1.21-.698 2.572-.738 3.817-.111 1.248.627 2.03 1.744 2.193 3.13l14.266 122.437c.382 3.26-1.125 6.26-3.969 7.901l-134.925 77.906c-1.206.697-2.568.736-3.817.11-1.248-.626-2.03-1.744-2.189-3.131l-14.28-122.437c-.379-3.26 1.128-6.26 3.972-7.901" fill="#F1F0EB"/><path d="M288.452 304.164l129.618-74.843c1.451-.838 2.176-2.283 1.981-3.947l-13.558-116.351c-.163-1.386-.945-2.503-2.19-3.13-1.249-.626-2.611-.587-3.82.111l-129.626 74.84c-1.451.837-2.176 2.282-1.985 3.947l13.57 116.352c.162 1.387.944 2.505 2.193 3.131 1.245.626 2.607.587 3.817-.11m87.025 1.047l-8.507 4.913a1.405 1.405 0 00-.718 1.246c0 .53.262.983.718 1.248l10.499 6.06c.456.265.983.265 1.439 0l8.508-4.91a1.41 1.41 0 00.718-1.249c0-.527-.262-.98-.718-1.245l-10.499-6.063a1.417 1.417 0 00-1.44 0zm14.769-8.525l-8.504 4.91c-.46.265-.722.718-.722 1.245 0 .531.262.983.722 1.249l10.495 6.059c.46.265.983.265 1.44 0l8.507-4.91c.456-.265.722-.718.722-1.248 0-.527-.266-.98-.722-1.246l-10.499-6.059a1.402 1.402 0 00-1.439 0zm14.772-8.528l-8.508 4.909a1.41 1.41 0 00-.718 1.249c0 .527.262.98.718 1.245l10.499 6.063c.456.262.98.262 1.44 0l8.504-4.913c.459-.262.721-.718.721-1.245 0-.531-.262-.984-.721-1.249l-10.496-6.059a1.406 1.406 0 00-1.439 0zm14.768-8.528c.46-.264.983-.264 1.44 0l10.498 6.061c.457.264.719.718.719 1.246 0 .529-.262.982-.719 1.247l-8.507 4.912c-.456.261-.98.261-1.436 0l-10.499-6.062a1.402 1.402 0 01-.721-1.247c0-.528.261-.982.721-1.246l8.504-4.911zm-61.079 15.903c.46-.265.983-.265 1.439 0l10.499 6.059c.457.266.722.718.722 1.245 0 .531-.265.984-.722 1.249l-8.507 4.91c-.456.265-.98.265-1.44 0l-10.495-6.06a1.405 1.405 0 01-.722-1.248c0-.527.262-.98.722-1.245l8.504-4.91zm14.772-8.529l-8.508 4.91a1.41 1.41 0 00-.718 1.249c0 .527.262.98.718 1.245l10.499 6.059c.456.266.983.266 1.44 0l8.504-4.909c.459-.266.721-.718.721-1.246 0-.53-.262-.983-.721-1.248l-10.496-6.06a1.406 1.406 0 00-1.439 0zm14.768-8.528c.46-.264.983-.264 1.44 0l10.499 6.061c.456.264.718.718.718 1.247 0 .528-.262.982-.718 1.246l-8.508 4.912a1.41 1.41 0 01-1.436 0l-10.499-6.062a1.402 1.402 0 01-.721-1.246c0-.529.261-.983.721-1.247l8.504-4.911zm14.772-8.527l-8.507 4.911a1.403 1.403 0 00-.718 1.246c0 .529.261.982.718 1.247l10.498 6.061c.457.264.984.264 1.44 0l8.504-4.911c.46-.265.722-.718.722-1.247 0-.529-.262-.982-.722-1.247l-10.495-6.06a1.404 1.404 0 00-1.44 0zm14.772-8.528a1.4 1.4 0 011.436 0l10.499 6.061c.46.264.721.718.721 1.246 0 .529-.261.983-.721 1.247l-8.507 4.91c-.457.265-.98.265-1.437 0l-10.498-6.06a1.41 1.41 0 01-.722-1.247c0-.528.265-.982.722-1.246l8.507-4.911zm-76.686 57.225c.456.265.718.718.718 1.249 0 .527-.262.983-.718 1.245l-8.507 4.909c-.457.266-.98.266-1.44 0l-10.495-6.059a1.4 1.4 0 01-.722-1.245c0-.531.262-.983.722-1.249l8.503-4.91c.46-.265.984-.265 1.44 0l10.499 6.06zm16.767 9.682c.46.265.721.718.721 1.248 0 .527-.261.98-.721 1.245l-8.504 4.914c-.46.261-.983.261-1.44 0l-10.498-6.063a1.408 1.408 0 01-.719-1.245c0-.531.262-.984.719-1.249l8.507-4.91c.456-.265.98-.265 1.44 0l10.495 6.06zm-5.671-7.185l10.499 6.063c.457.262.98.262 1.436 0l8.508-4.913c.456-.262.718-.718.718-1.245 0-.527-.262-.984-.718-1.245l-10.499-6.063a1.417 1.417 0 00-1.44 0l-8.504 4.913a1.401 1.401 0 00-.721 1.245c0 .527.262.983.721 1.245zm-16.77-9.682l10.499 6.064c.456.261.98.261 1.439 0l8.504-4.914c.46-.262.722-.714.722-1.245a1.4 1.4 0 00-.722-1.245l-10.495-6.063a1.417 1.417 0 00-1.44 0l-8.507 4.913a1.404 1.404 0 00-.718 1.245c0 .527.262.984.718 1.245zm-27.644 1.097l6.604 3.813c.456.262.98.262 1.44 0l8.503-4.913a1.4 1.4 0 00.722-1.245c0-.527-.262-.984-.722-1.245l-6.6-3.814a1.404 1.404 0 00-1.44 0l-8.507 4.91a1.409 1.409 0 00-.718 1.249c0 .527.261.98.718 1.245zm14.772-8.528a1.406 1.406 0 01-.722-1.246c0-.53.262-.983.722-1.248l8.503-4.91c.46-.265.984-.265 1.44 0l6.604 3.813c.457.262.718.718.718 1.245 0 .531-.261.984-.718 1.249l-8.507 4.91c-.456.265-.98.265-1.44 0l-6.6-3.813zm14.768-8.529l6.604 3.813c.457.266.984.266 1.44 0l8.504-4.91c.46-.265.721-.718.721-1.248 0-.527-.261-.98-.721-1.245l-6.605-3.813a1.4 1.4 0 00-1.436 0l-8.507 4.909a1.414 1.414 0 00-.718 1.249c0 .527.262.983.718 1.245zm14.772-8.527a1.402 1.402 0 01-.722-1.246c0-.529.262-.983.722-1.247l8.504-4.91c.46-.265.983-.265 1.439 0l6.605 3.812c.456.265.718.718.718 1.247 0 .528-.262.982-.718 1.247l-8.508 4.91a1.4 1.4 0 01-1.436 0l-6.604-3.813zm14.768-8.527l6.605 3.813c.456.264.983.264 1.439 0l8.508-4.911c.456-.264.718-.718.718-1.247 0-.528-.262-.982-.718-1.246l-6.605-3.813a1.406 1.406 0 00-1.439 0l-8.508 4.911a1.407 1.407 0 00-.718 1.246c0 .529.262.983.718 1.247zm14.772-8.528a1.402 1.402 0 01-.721-1.246c0-.529.261-.983.721-1.247l8.504-4.911c.46-.264.983-.264 1.44 0l6.604 3.813c.456.264.722.718.722 1.246 0 .529-.266.983-.722 1.247l-8.504 4.911c-.46.264-.983.264-1.443 0l-6.601-3.813zm14.769-8.527l6.604 3.812c.46.264.983.264 1.44 0l8.507-4.911c.456-.264.718-.717.718-1.246s-.262-.982-.718-1.246l-6.604-3.814a1.413 1.413 0 00-1.44 0l-8.507 4.911a1.407 1.407 0 00-.718 1.247c0 .529.261.983.718 1.247zm14.772-8.528a1.403 1.403 0 01-.722-1.247c0-.528.262-.982.722-1.246l8.503-4.91c.457-.265.98-.265 1.44 0l6.604 3.812c.457.265.718.718.718 1.247 0 .529-.261.982-.718 1.247l-8.504 4.91a1.406 1.406 0 01-1.439 0l-6.604-3.813zm59.14 33.314a1.406 1.406 0 01-1.439 0l-11.291-6.518a1.406 1.406 0 01-.719-1.247c0-.528.262-.982.719-1.246l8.507-4.91c.456-.265.98-.265 1.439 0l11.288 6.517c.456.264.718.718.718 1.247 0 .528-.262.982-.718 1.246l-8.504 4.911zm-14.772 8.527a1.402 1.402 0 01-1.439 0l-11.288-6.517a1.403 1.403 0 01-.722-1.247c0-.529.262-.982.722-1.246l8.504-4.911c.46-.265.983-.265 1.44 0l11.291 6.517c.456.265.718.718.718 1.247 0 .529-.262.982-.718 1.247l-8.508 4.91zm-14.768 8.529l8.507-4.91c.457-.265.718-.718.718-1.249 0-.527-.261-.98-.718-1.245l-11.291-6.518a1.404 1.404 0 00-1.44 0l-8.507 4.912a1.4 1.4 0 00-.718 1.245c0 .527.262.984.718 1.245l11.291 6.52c.457.265.984.265 1.44 0zm-59.077 34.11c-.46.266-.983.266-1.44 0l-11.295-6.519a1.408 1.408 0 01-.718-1.245c0-.531.262-.984.718-1.249l8.508-4.91c.456-.265.98-.265 1.439 0l11.292 6.52c.46.265.721.718.721 1.248 0 .527-.261.98-.721 1.245l-8.504 4.91zm40.082-39.505a1.402 1.402 0 011.439 0l11.291 6.52c.46.261.722.718.722 1.245 0 .53-.262.983-.722 1.245l-38.044 21.97c-.456.262-.98.262-1.439 0l-11.292-6.523a1.396 1.396 0 01-.721-1.245c0-.527.262-.983.721-1.245l38.045-21.967zm9.667-33.27l5.051 2.916c.46.265.722.719.722 1.247 0 .529-.262.982-.722 1.246l-3.265 1.886-7.187 4.149a1.406 1.406 0 00-.719 1.247c0 .528.262.982.719 1.246l10.498 6.061c.457.264.984.264 1.44 0l23.276-13.438c.456-.264.718-.718.718-1.246 0-.529-.262-.983-.718-1.247l-27.266-15.742a1.408 1.408 0 00-1.44 0l-8.507 4.91a1.407 1.407 0 00-.718 1.246c0 .53.262.983.718 1.247l7.4 4.272zm-64.517 81.304l8.503-4.91c.457-.265.718-.718.718-1.245 0-.531-.261-.984-.718-1.249l-11.294-6.519a1.399 1.399 0 00-1.44 0l-8.504 4.91c-.46.265-.722.718-.722 1.248 0 .527.262.98.722 1.245l11.295 6.52c.456.265.98.265 1.44 0" fill="#313961"/><path d="M410.447 328.71l41.359-23.877a1.19 1.19 0 011.217 0l30.34 17.516c.385.227.608.609.608 1.055 0 .449-.223.831-.608 1.054l-41.469 23.94a1.187 1.187 0 01-1.22 0l-30.23-17.584a1.196 1.196 0 01-.605-1.054c.003-.446.223-.828.608-1.05" fill="#DCDCD7"/><path d="M410.447 328.71l41.359-23.877a1.19 1.19 0 011.217 0l30.34 17.516c.385.227.608.609.608 1.055 0 .247-.067.474-.195.665a1.22 1.22 0 00-.413-.39l-30.34-17.516a1.19 1.19 0 00-1.217 0l-41.359 23.877a1.206 1.206 0 00-.413.389 1.191 1.191 0 01-.195-.669c.003-.446.223-.828.608-1.05" fill="#CDC7C2"/><path d="M292.452 286.75l117.288-67.715.35.607-117.288 67.715-.35-.607" fill="#F1F0EB"/><path d="M293.082 282.853l115.561-66.725c1.104-.636 1.656-1.734 1.507-2.999l-10.304-88.417c-.124-1.053-.715-1.902-1.663-2.378a2.984 2.984 0 00-2.904.084l-115.568 66.724c-1.1.636-1.652 1.734-1.507 2.999l10.311 88.418a2.984 2.984 0 001.666 2.379 2.976 2.976 0 002.901-.085" fill="#585E8E"/><path d="M298.112 269.114c-.014-.095-5.334-33.298 7.902-40.144 6.513-3.368 13.86.117 21.479 3.732 7.768 3.683 15.833 7.507 23.191 3.95 6.42-3.103 8.603-16.911 11.1-32.708 2.802-17.723 5.992-37.903 16.198-48.931a4.217 4.217 0 11.958 1.029c-9.862 10.731-13.01 30.634-15.773 48.116-2.557 16.188-4.793 30.336-11.875 33.758-7.962 3.849-16.335-.122-24.397-3.945-7.304-3.464-14.344-6.802-20.24-3.753-12.328 6.376-7.174 38.59-7.16 38.682l-1.383.214" fill="#FFFFFE"/><path d="M381.565 148.195a4.527 4.527 0 11.001 9.055 4.527 4.527 0 01-.001-9.055" fill="#DF4E6F"/><path d="M298.338 196.444l.704 1.214 3.329-1.923-.7-1.213-3.333 1.922zm-1.393-3.134l5.896-3.404.704 1.214-5.896 3.404-.704-1.214m94.238 20.743l.704 1.214 3.329-1.923-.701-1.214-3.332 1.923zm-1.394-3.134l5.897-3.404.704 1.214-5.897 3.404-.704-1.214" fill="#313961"/><path d="M447.108 219.028l62.689 36.194-8.001 4.619 13.155 1.699c1.567.202 2.968-.078 4.333-.867l79.24-45.753c2.193-1.266 3.449-3.441 3.449-5.973 0-2.534-1.256-4.708-3.449-5.974l-61.811-35.683-89.605 51.738" fill="#6FA6B0"/><path d="M588.683 142.787v66.885l-86.887 50.169-68.08-39.307v-66.885l86.881-50.167 68.086 39.305" fill="#DCDCD7"/><path d="M501.796 259.841l-68.08-39.307v-66.885l68.08 39.307v66.885" fill="#F1F0EB"/><path d="M433.716 153.649l68.08 39.307 86.887-50.169-68.086-39.305-86.881 50.167m78.324 50.214l38.362-22.149-26.792 27.682-11.57-5.533m38.73 13.833l33.255-19.199 1.616 6.028-34.871 13.171" fill="#F1F0EB"/><path d="M482.114 234.733l-6.173-3.563.471-.82 6.172 3.563-.47.82zm20.708-16.248l-22.169-12.799.474-.82 22.169 12.799-.474.82zm-61.055-8.14l31.733 18.321-.477.821-31.734-18.321.478-.821m-5.808-41.685l9.515 5.494-.474.821-9.515-5.495.474-.82zm13.53 8.906l-2.798-1.615.474-.821 2.798 1.615-.474.821" fill="#DCDCD7"/><path d="M430.164 147.922l71.398 32.898c30.846-13.55 56.311-35.213 78.83-62.298l-71.405-32.896c-18.596 27.866-50.425 48.978-78.823 62.296" fill="#FFFFFE"/><path d="M510.742 94.638l19.94 8.524-.552 1.291-19.937-8.524.549-1.291m-1.737 3.904l12.196 5.214-.551 1.291-12.194-5.214.549-1.291" fill="#585E8E"/><path d="M500.42 124.728c11.439 0 20.711 6.837 20.711 15.269 0 8.433-9.272 15.27-20.711 15.27-11.437 0-20.711-6.837-20.711-15.27 0-8.432 9.274-15.269 20.711-15.269" fill="#F1F0EB"/><path d="M519.889 145.215c-2.89 5.863-10.516 10.052-19.469 10.052-6.442 0-12.197-2.169-15.993-5.57l15.993-9.7 19.469 5.218" fill="#BDD781"/><path d="M518.319 132.312c1.789 2.257 2.812 4.883 2.812 7.685 0 1.833-.439 3.59-1.242 5.218l-19.469-5.218 17.899-7.685" fill="#FBE0B5"/><path d="M581.549 264.001c16.519 0 29.915 7.221 29.915 16.129 0 8.908-13.396 16.128-29.915 16.128-16.523 0-29.916-7.22-29.916-16.128 0-8.908 13.393-16.129 29.916-16.129" fill="#6FA6B0"/><path d="M597.739 244.131l-1.337-8.703c-.736-4.786 2.579-9.305 7.365-10.04l8.705-1.338 1.337 8.702c.736 4.787-2.579 9.305-7.365 10.041l-8.705 1.338" fill="#76BA4C"/><path d="M596.345 249.281l.648 14.379c3.958-.518 7.018-4.157 6.837-8.128-.18-3.971-3.53-6.77-7.485-6.251zm-.24-5.298c6.869-.9 12.692 3.961 13.003 10.858.311 6.896-5.005 13.217-11.875 14.117l.322 7.15c.184 4.032-2.469 7.802-6.908 10.639-4.411 2.82-10.595 4.721-17.496 5.033-6.905.311-13.233-1.024-17.881-3.434-4.677-2.425-7.659-5.941-7.843-9.972l-1.676-37.146c-.184-4.031 2.472-7.802 6.908-10.639 4.411-2.819 10.594-4.719 17.499-5.031 6.902-.313 13.23 1.022 17.878 3.433 4.676 2.425 7.658 5.94 7.842 9.972l.227 5.02" fill="#FFFFFE"/><path d="M599.341 252.108c-3.976.339-7.198 3.836-7.198 7.81 0 3.975 3.222 6.923 7.198 6.584 3.976-.339 7.199-3.837 7.199-7.811 0-3.975-3.223-6.922-7.199-6.583zm0-5.303c6.905-.589 12.501 4.529 12.501 11.433s-5.596 12.978-12.501 13.566c-6.904.59-12.501-4.53-12.501-11.433 0-6.904 5.597-12.978 12.501-13.566" fill="#DCDCD7"/><path d="M574.251 227.226c6.912 0 13.173 1.619 17.708 4.237 4.56 2.634 7.382 6.28 7.382 10.316v37.184c0 4.035-2.822 7.682-7.382 10.315-4.535 2.618-10.796 4.239-17.708 4.239-6.912 0-13.169-1.621-17.704-4.239-4.563-2.633-7.386-6.28-7.386-10.315v-37.184c0-4.036 2.823-7.682 7.386-10.316 4.535-2.618 10.792-4.237 17.704-4.237" fill="#DCDCD7"/><path d="M574.251 227.228c13.923 0 25.207 6.515 25.207 14.551 0 8.037-11.284 14.552-25.207 14.552-13.919 0-25.207-6.515-25.207-14.552 0-8.036 11.288-14.551 25.207-14.551" fill="#FFFFFE"/><path d="M574.251 230.231c11.051 0 20.004 5.17 20.004 11.548s-8.953 11.549-20.004 11.549c-11.047 0-20.004-5.171-20.004-11.549 0-6.378 8.957-11.548 20.004-11.548" fill="#313961"/><path d="M77.347 216.386l9.66-7.75c5.313-4.263 13.148-3.403 17.411 1.91l7.751 9.66-9.661 7.751c-5.313 4.263-13.148 3.403-17.41-1.91l-7.751-9.661m14.563-30.753l9.395-1.444c5.167-.794 10.044 2.783 10.839 7.95l1.444 9.394-9.394 1.444c-5.167.795-10.044-2.783-10.839-7.95l-1.445-9.394m95.775 176.529l-4.005-10.297c-2.203-5.66-8.638-8.49-14.3-6.286l-10.294 4.004 4.005 10.294c2.203 5.663 8.638 8.493 14.299 6.289l10.295-4.004" fill="#76BA4C"/><path d="M250.043 85.806a6.178 6.178 0 016.179 6.179 6.178 6.178 0 01-6.179 6.179 6.178 6.178 0 01-6.179-6.179 6.178 6.178 0 016.179-6.179m-25.024-1.15a3.449 3.449 0 110 6.898 3.449 3.449 0 010-6.898m227.364 15.52a3.96 3.96 0 013.961 3.963 3.96 3.96 0 11-7.923 0 3.964 3.964 0 013.962-3.963m142.982 116.545a2.586 2.586 0 110 5.174 2.586 2.586 0 010-5.174m-485.576 25.01a3.73 3.73 0 11-.001 7.461 3.73 3.73 0 01.001-7.461m36.645 27.511a2.086 2.086 0 11-.002 4.172 2.086 2.086 0 01.002-4.172m123.298 30.681a3.306 3.306 0 11.002 6.61 3.306 3.306 0 01-.002-6.61m-23.639 106.633a3.376 3.376 0 110 6.753 3.379 3.379 0 01-3.377-3.379 3.375 3.375 0 013.377-3.374" fill="#FFFFFE"/><path d="M600.137 174.645l.701 1.214 3.332-1.923-.704-1.214-3.329 1.923zm-1.393-3.134l5.896-3.404.704 1.214-5.897 3.404-.703-1.214M81.732 258.976l.703 1.214 3.33-1.922-.703-1.215-3.33 1.923zm-1.393-3.134l5.896-3.404.703 1.214-5.896 3.404-.703-1.214m317.735 102.217l.7 1.213 3.332-1.921-.704-1.213-3.328 1.921zm-1.394-3.134l5.897-3.403.7 1.213-5.897 3.407-.7-1.217" fill="#313961"/></svg>