<?xml version="1.0" encoding="UTF-8"?>
<!DOCTYPE svg PUBLIC "-//W3C//DTD SVG 1.1//EN" "http://www.w3.org/Graphics/SVG/1.1/DTD/svg11.dtd">
<svg version="1.1" xmlns="http://www.w3.org/2000/svg" xmlns:xlink="http://www.w3.org/1999/xlink" x="0" y="0" width="650" height="450" viewBox="0, 0, 650, 450">
  <g id="Layer_1">
    <path d="M325,113.493 C503.218,113.493 647.694,186.827 647.694,277.289 C647.694,367.752 503.218,441.085 325,441.085 C146.781,441.085 2.306,367.752 2.306,277.289 C2.306,186.827 146.781,113.493 325,113.493" fill="#D6D6D6"/>
    <path d="M429.163,65.749 L429.163,186.455 L342.276,236.624 L274.196,197.318 L274.196,76.611 L361.077,26.444 L429.163,65.749" fill="#DCDCD7"/>
    <path d="M342.276,236.624 L274.196,197.318 L274.196,76.611 L342.276,115.917 L342.276,236.624" fill="#F1F0EB"/>
    <path d="M274.196,76.611 L342.276,115.917 L429.163,65.749 L361.077,26.444 L274.196,76.611" fill="#FFFFFE"/>
    <path d="M286.357,83.632 L324.798,105.826 C351.692,102.886 383.125,79.411 405.732,53.59 L370.967,34.776 L286.357,83.632" fill="#F1F0EB"/>
    <path d="M293.506,148.11 L305.371,154.959 L304.43,156.6 L292.565,149.751 L293.506,148.11 z M281.656,104.988 L308.176,120.299 L307.231,121.94 L280.712,106.629 L281.656,104.988 z M317.606,127.931 L309.421,123.205 L310.369,121.564 L318.554,126.289 L317.606,127.931 z M302.116,172.391 L341.494,195.125 L340.542,196.766 L301.165,174.032 L302.116,172.391" fill="#DCDCD7"/>
    <path d="M351.052,145.376 L401.215,116.414 L396.924,132.298 L351.052,145.376" fill="#BCBEBA"/>
    <path d="M397.589,168.114 L425.612,151.936 L425.612,157.851 L397.589,168.114" fill="#F1F0EB"/>
    <path d="M253.363,57.584 C276.057,70.686 298.749,83.788 321.444,96.891 C349.28,97.077 383.694,73.342 408.328,46.722 C385.633,33.62 362.937,20.519 340.245,7.417 C315.045,32.615 292.251,55.783 253.363,57.584" fill="#FFFFFE"/>
    <path d="M341.444,16.536 L341.098,17.143 L346.602,20.322 L346.952,19.715 L341.444,16.536 z M343.277,14.263 L352.042,19.323 L351.692,19.93 L342.927,14.87 L343.277,14.263" fill="#585E8E"/>
    <path d="M303.273,70.683 C303.305,70.679 313.139,69.235 319.357,65.414 L323.393,67.745 C319.283,70.899 313.086,72.826 308.784,73.864 L303.273,70.683" fill="#E77F98"/>
    <path d="M294.737,65.586 C294.752,65.583 300.422,65.083 304.957,62.886 L309.718,65.634 C306.499,67.445 302.686,68.283 300.111,68.688 L294.737,65.586" fill="#FBE0B5"/>
    <path d="M286.432,60.79 C286.474,60.783 300.864,58.195 308.629,52.266 L312.513,54.51 C306.941,59.454 297.447,62.452 291.801,63.891 L286.432,60.79" fill="#FBE0B5"/>
    <path d="M291.762,272.711 L215.157,228.484 L179.104,249.379 L179.035,249.339 L133.974,275.439 L211.151,319.994 L206.815,322.498 L221.045,323.973 C222.553,324.129 223.892,323.842 225.205,323.085 L291.762,284.658 C293.956,283.392 295.211,281.217 295.211,278.685 C295.211,276.152 293.956,273.977 291.762,272.711" fill="#6FA6B0"/>
    <path d="M285.477,158.031 L288.42,268.772 L250.795,291.847 L162.613,244.013 L159.673,133.265 C159.615,131.084 160.645,129.182 162.503,128.038 L194.202,108.525 C196.066,107.377 198.237,107.318 200.162,108.362 L282.364,152.956 C284.288,153.998 285.42,155.846 285.477,158.031" fill="#FFFFFE"/>
    <path d="M288.066,161.369 L288.066,275.586 L249.844,297.652 L162.963,247.497 L162.963,133.28 L201.116,111.168 L288.066,161.369" fill="#313961"/>
    <path d="M288.066,161.369 L288.066,275.586 L249.844,297.652 L249.844,183.436 L288.066,161.369" fill="#313961"/>
    <path d="M283.598,169.108 L254.313,186.016 L254.313,289.914 L283.598,273.006 L283.598,169.108" fill="#F5B96D"/>
    <path d="M162.963,133.28 L249.844,183.436 L288.066,161.369 L201.116,111.168 L162.963,133.28" fill="#585E8E"/>
    <path d="M166.975,130.954 L247.915,177.682 L278.098,160.255 L197.104,113.493 L166.975,130.954" fill="#F1F0EB"/>
    <path d="M268.954,253.891 C274.302,250.804 278.639,252.636 278.639,257.984 C278.639,263.331 274.302,270.169 268.954,273.256 C263.608,276.344 259.273,274.512 259.273,269.164 C259.273,263.816 263.608,256.979 268.954,253.891" fill="#313961"/>
    <path d="M166.975,130.954 L243.041,174.868 L268.791,160.001 L192.671,116.053 L166.975,130.954" fill="#FFFFFE"/>
    <path d="M241.595,183.397 L244.535,294.139 L206.912,317.213 L121.752,271.018 C119.829,269.976 118.696,268.128 118.638,265.943 L115.789,158.632 C115.731,156.45 116.761,154.548 118.62,153.404 L150.318,133.891 C152.183,132.743 154.353,132.684 156.278,133.728 L238.482,178.322 C240.403,179.365 241.536,181.212 241.595,183.397" fill="#FFFFFE"/>
    <path d="M245.036,186.212 L245.036,300.429 L206.815,322.498 L119.933,272.34 L119.933,158.123 L158.086,136.011 L245.036,186.212" fill="#313961"/>
    <path d="M245.036,186.212 L245.036,300.429 L206.815,322.498 L206.815,208.279 L245.036,186.212" fill="#313961"/>
    <path d="M240.568,193.951 L211.283,210.859 L211.283,314.758 L240.568,297.85 L240.568,193.951" fill="#DF4E6F"/>
    <path d="M119.933,158.123 L206.815,208.279 L245.036,186.212 L158.086,136.011 L119.933,158.123" fill="#585E8E"/>
    <path d="M123.945,155.798 L204.885,202.525 L235.068,185.098 L154.074,138.337 L123.945,155.798" fill="#F1F0EB"/>
    <path d="M225.925,278.734 C231.273,275.647 235.608,277.479 235.608,282.827 C235.608,288.175 231.273,295.013 225.925,298.101 C220.578,301.189 216.243,299.357 216.243,294.008 C216.243,288.66 220.578,281.822 225.925,278.734" fill="#313961"/>
    <path d="M123.945,155.798 L200.011,199.712 L225.761,184.844 L149.641,140.896 L123.945,155.798" fill="#FFFFFE"/>
    <path d="M233.477,277.918 C236.859,277.475 239.217,279.506 239.217,283.449 C239.217,288.797 234.882,295.635 229.534,298.724 C224.187,301.808 219.852,299.979 219.852,294.631 C219.852,294.291 219.869,293.948 219.903,293.598 C220.37,297.616 224.002,298.858 228.414,296.311 C233.144,293.58 236.978,287.532 236.978,282.803 C236.978,279.968 235.599,278.251 233.477,277.918" fill="#FFFFFE"/>
    <path d="M134.36,381.087 L36.771,325.42 L96.214,291.101 L179.85,339.385 L134.36,381.087" fill="#6FA6B0"/>
    <path d="M105.708,268.759 L124.337,300.991 L178.689,317.868 L199.531,343.46 L134.36,381.087 L109.849,357.613 L59.976,338.151 L41.875,302.894 L105.708,268.759" fill="#F1F0EB"/>
    <path d="M105.708,268.759 L124.337,300.991 L59.976,338.151 L41.875,302.894 L105.708,268.759" fill="#FFFFFE"/>
    <path d="M178.689,317.868 L199.531,343.46 L134.36,381.087 L109.849,357.613 L178.689,317.868" fill="#FFFFFE"/>
    <path d="M222.962,366.407 L271.674,338.285 C273.418,337.277 275.151,338.197 276.849,339.279 L299.647,353.849 L351.349,383.698 C352.626,384.437 353.362,385.707 353.362,387.185 C353.362,388.66 352.63,389.93 351.349,390.67 L304.932,417.469 C303.393,418.356 301.717,418.71 300.072,418.53 L289.194,418.035 L293.531,415.53 L243.604,386.704 L221.725,372.265 C220.737,371.614 220.793,370.22 221.038,369.06 C221.282,367.903 221.938,367.001 222.962,366.407" fill="#6FA6B0"/>
    <path d="M215.688,355.951 L266.318,326.718 C268.062,325.713 270.146,326.216 271.493,327.716 L290.199,346.375 L341.901,376.223 C343.181,376.962 343.913,378.232 343.913,379.707 L343.913,385.544 C343.913,387.023 343.181,388.289 341.901,389.028 L293.567,416.934 C291.009,418.413 288.08,418.413 285.519,416.934 L230.427,385.031 L214.618,367.642 C214.066,366.994 213.659,366.22 213.659,365.402 L213.659,359.569 C213.659,359.251 213.695,358.929 213.763,358.604 C214.008,357.443 214.663,356.541 215.688,355.951" fill="#CDC7C2"/>
    <path d="M215.688,355.951 L266.318,326.718 C268.062,325.713 270.064,326.294 271.493,327.716 L290.199,346.375 L341.901,376.223 C343.181,376.962 343.913,378.232 343.913,379.707 C343.913,381.186 343.181,382.456 341.901,383.195 L293.566,411.098 C291.009,412.576 288.08,412.576 285.519,411.098 L232.24,380.337 L214.45,361.808 C213.631,360.952 213.519,359.76 213.763,358.604 C214.008,357.443 214.663,356.541 215.688,355.951" fill="#F1F0EB"/>
    <path d="M232.504,372.084 L277.677,345.668 C278.497,345.186 279.01,344.437 279.155,343.496 C279.304,342.555 279.046,341.685 278.413,340.974 L270.408,332.028 C269.428,330.935 267.857,330.683 266.584,331.416 L221.502,357.44 C220.686,357.91 220.172,358.646 220.012,359.573 C219.852,360.503 220.09,361.366 220.7,362.088 L228.615,371.427 C229.585,372.573 231.207,372.841 232.504,372.084" fill="#313961"/>
    <path d="M313.011,380.387 L305.774,384.568 C305.466,384.745 305.293,385.045 305.293,385.399 C305.293,385.753 305.466,386.053 305.774,386.23 L313.018,390.411 C313.323,390.588 313.673,390.588 313.977,390.411 L321.218,386.234 C321.522,386.057 321.695,385.756 321.695,385.403 C321.695,385.049 321.522,384.748 321.218,384.571 L313.97,380.387 C313.666,380.213 313.315,380.213 313.011,380.387" fill="#313961"/>
    <path d="M325.565,373.142 L318.324,377.32 C318.02,377.497 317.847,377.797 317.847,378.151 C317.847,378.505 318.02,378.805 318.324,378.982 L325.572,383.167 C325.877,383.34 326.227,383.34 326.531,383.167 L333.768,378.986 C334.076,378.809 334.249,378.508 334.249,378.155 C334.249,377.801 334.076,377.5 333.768,377.323 L326.524,373.142 C326.22,372.965 325.87,372.965 325.565,373.142" fill="#313961"/>
    <path d="M287.907,380.387 L280.666,384.568 C280.362,384.745 280.188,385.045 280.188,385.399 C280.188,385.753 280.362,386.053 280.666,386.23 L287.914,390.415 C288.218,390.588 288.568,390.588 288.872,390.415 L296.11,386.234 C296.418,386.057 296.591,385.756 296.591,385.403 C296.591,385.049 296.418,384.748 296.11,384.571 L288.865,380.387 C288.561,380.213 288.211,380.213 287.907,380.387" fill="#313961"/>
    <path d="M300.457,373.142 L293.22,377.32 C292.916,377.497 292.739,377.797 292.739,378.151 C292.739,378.505 292.916,378.805 293.22,378.982 L300.464,383.167 C300.772,383.34 301.119,383.34 301.427,383.167 L308.664,378.986 C308.968,378.809 309.145,378.508 309.145,378.155 C309.145,377.801 308.968,377.5 308.664,377.323 L301.419,373.142 C301.112,372.965 300.765,372.965 300.457,373.142" fill="#313961"/>
    <path d="M275.353,373.142 L268.115,377.32 C267.808,377.497 267.634,377.797 267.634,378.151 C267.634,378.505 267.808,378.805 268.115,378.982 L275.36,383.167 C275.664,383.34 276.014,383.34 276.318,383.167 L283.556,378.986 C283.864,378.809 284.037,378.508 284.037,378.155 C284.037,377.801 283.864,377.5 283.556,377.323 L276.311,373.142 C276.007,372.965 275.657,372.965 275.353,373.142" fill="#313961"/>
    <path d="M287.907,365.894 L280.666,370.072 C280.362,370.249 280.188,370.553 280.188,370.903 C280.188,371.257 280.362,371.557 280.666,371.734 L287.914,375.919 C288.218,376.096 288.568,376.096 288.872,375.919 L296.11,371.738 C296.418,371.564 296.591,371.26 296.591,370.907 C296.591,370.556 296.418,370.252 296.11,370.075 L288.865,365.894 C288.561,365.717 288.211,365.717 287.907,365.894" fill="#313961"/>
    <path d="M262.8,365.894 L255.561,370.072 C255.256,370.249 255.081,370.553 255.081,370.903 C255.081,371.257 255.256,371.557 255.561,371.734 L262.806,375.919 C263.111,376.096 263.461,376.096 263.766,375.919 L271.005,371.738 C271.31,371.564 271.486,371.26 271.486,370.907 C271.486,370.556 271.31,370.252 271.005,370.075 L263.759,365.894 C263.455,365.717 263.105,365.717 262.8,365.894" fill="#313961"/>
    <path d="M275.353,358.646 L268.115,362.824 C267.808,363.001 267.634,363.305 267.634,363.655 C267.634,364.009 267.808,364.313 268.115,364.486 L275.36,368.671 C275.664,368.848 276.014,368.848 276.318,368.671 L283.559,364.49 C283.864,364.316 284.037,364.012 284.037,363.659 C284.037,363.308 283.864,363.004 283.559,362.827 L276.311,358.646 C276.007,358.469 275.657,358.469 275.353,358.646" fill="#313961"/>
    <path d="M287.907,351.398 L280.666,355.576 C280.362,355.753 280.188,356.057 280.188,356.41 C280.188,356.761 280.362,357.065 280.666,357.238 L287.91,361.423 C288.218,361.6 288.568,361.6 288.872,361.423 L296.11,357.245 C296.418,357.068 296.591,356.764 296.591,356.414 C296.591,356.06 296.418,355.756 296.11,355.583 L288.865,351.398 C288.561,351.221 288.211,351.221 287.907,351.398" fill="#313961"/>
    <path d="M268.115,393.478 L275.36,397.659 C275.664,397.836 276.014,397.836 276.318,397.659 L283.556,393.482 C283.864,393.305 284.037,393.001 284.037,392.651 C284.037,392.297 283.864,391.996 283.556,391.819 L276.311,387.635 C276.007,387.458 275.657,387.458 275.353,387.635 L268.115,391.816 C267.808,391.993 267.634,392.293 267.634,392.647 C267.634,392.997 267.808,393.301 268.115,393.478" fill="#313961"/>
    <path d="M255.561,386.23 L262.806,390.415 C263.111,390.588 263.461,390.588 263.766,390.415 L271.005,386.234 C271.31,386.057 271.483,385.756 271.483,385.403 C271.483,385.049 271.31,384.748 271.005,384.571 L263.759,380.387 C263.455,380.213 263.104,380.213 262.799,380.387 L255.561,384.568 C255.255,384.745 255.081,385.045 255.081,385.399 C255.081,385.753 255.255,386.053 255.561,386.23" fill="#313961"/>
    <path d="M284.285,396.973 L293.22,391.816 L300.457,387.635 C300.765,387.458 301.112,387.458 301.419,387.635 L308.664,391.819 C308.968,391.996 309.145,392.297 309.145,392.651 C309.145,393.001 308.968,393.305 308.664,393.482 L301.423,397.659 L301.409,397.67 L296.124,400.719 L296.11,400.73 L292.491,402.817 L288.872,404.907 C288.568,405.084 288.218,405.084 287.91,404.907 L280.666,400.726 C280.362,400.549 280.188,400.245 280.188,399.895 C280.188,399.541 280.362,399.237 280.666,399.064 L284.285,396.973" fill="#DF4E6F"/>
    <path d="M300.482,368.678 L305.756,371.724 L305.774,371.734 L313.018,375.919 C313.323,376.096 313.673,376.096 313.977,375.919 L321.218,371.741 C321.522,371.564 321.695,371.26 321.695,370.907 C321.695,370.556 321.522,370.252 321.218,370.075 L317.592,367.985 L305.042,360.737 L301.419,358.646 C301.112,358.469 300.765,358.469 300.457,358.646 L293.22,362.824 C292.916,363.001 292.739,363.305 292.739,363.655 C292.739,364.009 292.916,364.313 293.22,364.486 L300.464,368.671 L300.482,368.678" fill="#313961"/>
    <path d="M243.008,378.982 L250.253,383.167 C250.558,383.34 250.908,383.34 251.213,383.167 L258.451,378.986 C258.757,378.809 258.932,378.508 258.932,378.155 C258.932,377.801 258.757,377.5 258.451,377.323 L251.207,373.142 C250.901,372.965 250.551,372.965 250.246,373.142 L243.008,377.32 C242.702,377.497 242.527,377.797 242.527,378.151 C242.527,378.505 242.702,378.805 243.008,378.982" fill="#313961"/>
    <path d="M301.122,314.567 L435.867,236.765 C438.428,235.287 441.357,235.287 443.918,236.765 L549.702,297.843 C550.979,298.582 551.711,299.848 551.711,301.327 C551.711,302.806 550.979,304.072 549.702,304.811 L414.957,382.615 C413.603,383.397 412.142,383.765 410.688,383.719 L395.216,383.8 C395.216,383.8 396.712,380.843 399.315,378.229 L301.122,321.536 C299.842,320.8 299.11,319.53 299.11,318.052 C299.11,316.577 299.842,315.307 301.122,314.567" fill="#6FA6B0"/>
    <path d="M266.177,176.873 L401.109,98.969 C402.319,98.271 403.68,98.232 404.929,98.858 C406.174,99.485 406.956,100.602 407.119,101.988 L421.388,224.425 C421.767,227.685 420.26,230.685 417.416,232.326 L282.495,310.231 C281.285,310.927 279.923,310.97 278.674,310.344 C277.429,309.718 276.647,308.6 276.485,307.213 L262.207,184.774 C261.827,181.514 263.334,178.514 266.177,176.873" fill="#CDC7C2"/>
    <path d="M536.486,301.419 L536.486,297.05 C536.486,295.572 535.754,294.302 534.474,293.566 L428.689,232.487 C426.132,231.009 423.199,231.009 420.642,232.487 L285.894,310.291 C284.617,311.03 283.885,312.296 283.885,313.775 L283.885,318.147 C283.885,319.622 284.617,320.892 285.894,321.631 L391.682,382.707 C394.243,384.186 397.172,384.186 399.733,382.707 L534.474,304.903 C535.754,304.168 536.486,302.898 536.486,301.419" fill="#CDC7C2"/>
    <path d="M285.894,310.291 L420.642,232.487 C423.199,231.009 426.132,231.009 428.689,232.487 L534.474,293.566 C535.754,294.302 536.486,295.572 536.486,297.05 C536.486,298.525 535.754,299.795 534.474,300.535 L399.733,378.335 C397.172,379.814 394.243,379.814 391.682,378.335 L285.894,317.259 C284.617,316.52 283.885,315.254 283.885,313.775 C283.885,312.296 284.617,311.03 285.894,310.291" fill="#F1F0EB"/>
    <path d="M268.844,177.356 L403.776,99.452 C404.986,98.754 406.348,98.714 407.593,99.341 C408.841,99.968 409.623,101.085 409.786,102.471 L424.052,224.908 C424.434,228.168 422.927,231.168 420.083,232.809 L285.158,310.715 C283.952,311.412 282.59,311.451 281.341,310.825 C280.093,310.199 279.311,309.081 279.152,307.694 L264.872,185.257 C264.493,181.997 266,178.997 268.844,177.356" fill="#F1F0EB"/>
    <path d="M288.452,304.164 L418.07,229.321 C419.521,228.483 420.246,227.038 420.051,225.374 L406.493,109.023 C406.33,107.637 405.548,106.52 404.303,105.893 C403.054,105.267 401.692,105.306 400.483,106.004 L270.857,180.844 C269.406,181.681 268.681,183.126 268.872,184.791 L282.442,301.143 C282.604,302.53 283.386,303.648 284.635,304.274 C285.88,304.9 287.242,304.861 288.452,304.164" fill="#313961"/>
    <path d="M375.477,305.211 L366.97,310.124 C366.514,310.386 366.252,310.842 366.252,311.37 C366.252,311.9 366.514,312.353 366.97,312.618 L377.469,318.678 C377.925,318.943 378.452,318.943 378.908,318.678 L387.416,313.768 C387.872,313.503 388.134,313.05 388.134,312.519 C388.134,311.992 387.872,311.539 387.416,311.274 L376.917,305.211 C376.457,304.949 375.934,304.949 375.477,305.211 z M390.246,296.686 L381.742,301.596 C381.282,301.861 381.02,302.314 381.02,302.841 C381.02,303.372 381.282,303.824 381.742,304.09 L392.237,310.149 C392.697,310.414 393.22,310.414 393.677,310.149 L402.184,305.239 C402.64,304.974 402.906,304.521 402.906,303.991 C402.906,303.464 402.64,303.011 402.184,302.745 L391.685,296.686 C391.229,296.421 390.705,296.421 390.246,296.686 z M405.018,288.158 L396.51,293.067 C396.054,293.333 395.792,293.785 395.792,294.316 C395.792,294.843 396.054,295.296 396.51,295.561 L407.009,301.624 C407.465,301.886 407.989,301.886 408.449,301.624 L416.953,296.711 C417.412,296.449 417.674,295.993 417.674,295.466 C417.674,294.935 417.412,294.482 416.953,294.217 L406.457,288.158 C405.997,287.894 405.474,287.894 405.018,288.158 z M419.786,279.63 C420.246,279.366 420.769,279.366 421.226,279.63 L431.724,285.691 C432.181,285.955 432.443,286.409 432.443,286.937 C432.443,287.466 432.181,287.919 431.724,288.184 L423.217,293.096 C422.761,293.357 422.237,293.357 421.781,293.096 L411.282,287.034 C410.822,286.77 410.561,286.316 410.561,285.787 C410.561,285.259 410.822,284.805 411.282,284.541 L419.786,279.63 z M358.707,295.533 C359.167,295.268 359.69,295.268 360.146,295.533 L370.645,301.592 C371.102,301.858 371.367,302.31 371.367,302.837 C371.367,303.368 371.102,303.821 370.645,304.086 L362.138,308.996 C361.682,309.261 361.158,309.261 360.698,308.996 L350.203,302.936 C349.743,302.671 349.481,302.218 349.481,301.688 C349.481,301.161 349.743,300.708 350.203,300.443 L358.707,295.533 z M373.479,287.004 L364.971,291.914 C364.515,292.179 364.253,292.632 364.253,293.163 C364.253,293.69 364.515,294.143 364.971,294.408 L375.47,300.467 C375.926,300.733 376.453,300.733 376.91,300.467 L385.414,295.558 C385.873,295.292 386.135,294.84 386.135,294.312 C386.135,293.782 385.873,293.329 385.414,293.064 L374.918,287.004 C374.458,286.74 373.935,286.74 373.479,287.004 z M388.247,278.476 C388.707,278.212 389.23,278.212 389.687,278.476 L400.186,284.537 C400.642,284.801 400.904,285.255 400.904,285.784 C400.904,286.312 400.642,286.766 400.186,287.03 L391.678,291.942 C391.222,292.204 390.698,292.204 390.242,291.942 L379.743,285.88 C379.283,285.616 379.022,285.162 379.022,284.634 C379.022,284.105 379.283,283.651 379.743,283.387 L388.247,278.476 z M403.019,269.949 L394.512,274.86 C394.055,275.123 393.794,275.577 393.794,276.106 C393.794,276.635 394.055,277.088 394.512,277.353 L405.01,283.414 C405.467,283.678 405.994,283.678 406.45,283.414 L414.954,278.503 C415.414,278.238 415.676,277.785 415.676,277.256 C415.676,276.727 415.414,276.274 414.954,276.009 L404.459,269.949 C404.002,269.684 403.475,269.684 403.019,269.949 z M417.791,261.421 C418.247,261.157 418.771,261.157 419.227,261.421 L429.726,267.482 C430.186,267.746 430.447,268.2 430.447,268.728 C430.447,269.257 430.186,269.711 429.726,269.975 L421.219,274.885 C420.762,275.15 420.239,275.15 419.782,274.885 L409.284,268.825 C408.827,268.561 408.562,268.106 408.562,267.578 C408.562,267.05 408.827,266.596 409.284,266.332 L417.791,261.421 z M341.105,318.646 C341.561,318.911 341.823,319.364 341.823,319.895 C341.823,320.422 341.561,320.878 341.105,321.14 L332.598,326.049 C332.141,326.315 331.618,326.315 331.158,326.049 L320.663,319.99 C320.203,319.728 319.941,319.272 319.941,318.745 C319.941,318.214 320.203,317.762 320.663,317.496 L329.166,312.586 C329.626,312.321 330.15,312.321 330.606,312.586 L341.105,318.646 z M357.872,328.328 C358.332,328.593 358.593,329.046 358.593,329.576 C358.593,330.103 358.332,330.556 357.872,330.821 L349.368,335.735 C348.908,335.996 348.385,335.996 347.928,335.735 L337.43,329.672 C336.973,329.406 336.711,328.954 336.711,328.427 C336.711,327.896 336.973,327.443 337.43,327.178 L345.937,322.268 C346.393,322.003 346.917,322.003 347.377,322.268 L357.872,328.328 z M352.201,321.143 L362.7,327.206 C363.157,327.468 363.68,327.468 364.136,327.206 L372.644,322.293 C373.1,322.031 373.362,321.575 373.362,321.048 C373.362,320.521 373.1,320.064 372.644,319.803 L362.145,313.74 C361.689,313.478 361.165,313.478 360.705,313.74 L352.201,318.653 C351.742,318.915 351.48,319.371 351.48,319.898 C351.48,320.425 351.742,320.881 352.201,321.143 z M335.431,311.461 L345.93,317.525 C346.386,317.786 346.91,317.786 347.369,317.525 L355.873,312.611 C356.333,312.349 356.595,311.897 356.595,311.366 C356.595,310.839 356.333,310.383 355.873,310.121 L345.378,304.058 C344.918,303.796 344.395,303.796 343.938,304.058 L335.431,308.971 C334.975,309.233 334.713,309.689 334.713,310.216 C334.713,310.743 334.975,311.2 335.431,311.461 z M307.787,312.558 L314.391,316.371 C314.847,316.633 315.371,316.633 315.831,316.371 L324.334,311.458 C324.794,311.196 325.056,310.74 325.056,310.213 C325.056,309.686 324.794,309.229 324.334,308.968 L317.734,305.154 C317.274,304.889 316.75,304.889 316.294,305.154 L307.787,310.064 C307.33,310.33 307.069,310.782 307.069,311.313 C307.069,311.84 307.33,312.293 307.787,312.558 z M322.559,304.03 C322.099,303.764 321.837,303.311 321.837,302.784 C321.837,302.254 322.099,301.801 322.559,301.536 L331.062,296.626 C331.522,296.361 332.046,296.361 332.502,296.626 L339.106,300.439 C339.563,300.701 339.824,301.157 339.824,301.684 C339.824,302.215 339.563,302.668 339.106,302.933 L330.599,307.843 C330.143,308.108 329.619,308.108 329.159,307.843 L322.559,304.03 z M337.327,295.501 L343.931,299.314 C344.388,299.58 344.915,299.58 345.371,299.314 L353.875,294.404 C354.335,294.139 354.596,293.686 354.596,293.156 C354.596,292.629 354.335,292.176 353.875,291.911 L347.27,288.098 C346.814,287.834 346.291,287.834 345.834,288.098 L337.327,293.007 C336.871,293.272 336.609,293.729 336.609,294.256 C336.609,294.783 336.871,295.239 337.327,295.501 z M352.099,286.974 C351.639,286.71 351.377,286.257 351.377,285.728 C351.377,285.199 351.639,284.745 352.099,284.481 L360.603,279.571 C361.063,279.306 361.586,279.306 362.042,279.571 L368.647,283.383 C369.103,283.648 369.365,284.101 369.365,284.63 C369.365,285.158 369.103,285.612 368.647,285.877 L360.139,290.787 C359.683,291.051 359.159,291.051 358.703,290.787 L352.099,286.974 z M366.867,278.447 L373.472,282.26 C373.928,282.524 374.455,282.524 374.911,282.26 L383.419,277.349 C383.875,277.085 384.137,276.631 384.137,276.102 C384.137,275.574 383.875,275.12 383.419,274.856 L376.814,271.043 C376.354,270.779 375.831,270.779 375.375,271.043 L366.867,275.954 C366.411,276.218 366.149,276.672 366.149,277.2 C366.149,277.729 366.411,278.183 366.867,278.447 z M381.639,269.919 C381.179,269.655 380.918,269.201 380.918,268.673 C380.918,268.144 381.179,267.69 381.639,267.426 L390.143,262.515 C390.603,262.251 391.126,262.251 391.583,262.515 L398.187,266.328 C398.643,266.592 398.909,267.046 398.909,267.574 C398.909,268.103 398.643,268.557 398.187,268.821 L389.683,273.732 C389.223,273.996 388.7,273.996 388.24,273.732 L381.639,269.919 z M396.408,261.392 L403.012,265.204 C403.472,265.468 403.995,265.468 404.452,265.204 L412.959,260.293 C413.415,260.029 413.677,259.576 413.677,259.047 C413.677,258.518 413.415,258.065 412.959,257.801 L406.355,253.987 C405.895,253.724 405.371,253.724 404.915,253.987 L396.408,258.898 C395.951,259.163 395.69,259.616 395.69,260.145 C395.69,260.674 395.951,261.128 396.408,261.392 z M411.18,252.864 C410.72,252.6 410.458,252.146 410.458,251.617 C410.458,251.089 410.72,250.635 411.18,250.371 L419.683,245.461 C420.14,245.196 420.663,245.196 421.123,245.461 L427.727,249.273 C428.184,249.538 428.445,249.991 428.445,250.52 C428.445,251.049 428.184,251.502 427.727,251.767 L419.223,256.677 C418.764,256.941 418.24,256.941 417.784,256.677 L411.18,252.864 z M470.32,286.178 C469.861,286.442 469.337,286.442 468.881,286.178 L457.59,279.66 C457.133,279.396 456.871,278.942 456.871,278.413 C456.871,277.885 457.133,277.431 457.59,277.167 L466.097,272.257 C466.553,271.992 467.077,271.992 467.536,272.257 L478.824,278.774 C479.28,279.038 479.542,279.492 479.542,280.021 C479.542,280.549 479.28,281.003 478.824,281.267 L470.32,286.178 z M455.548,294.705 C455.092,294.97 454.569,294.97 454.109,294.705 L442.821,288.188 C442.361,287.924 442.099,287.47 442.099,286.941 C442.099,286.412 442.361,285.959 442.821,285.695 L451.325,280.784 C451.785,280.519 452.308,280.519 452.765,280.784 L464.056,287.301 C464.512,287.566 464.774,288.019 464.774,288.548 C464.774,289.077 464.512,289.53 464.056,289.795 L455.548,294.705 z M440.78,303.234 L449.287,298.324 C449.744,298.059 450.005,297.606 450.005,297.075 C450.005,296.548 449.744,296.095 449.287,295.83 L437.996,289.312 C437.536,289.047 437.013,289.047 436.556,289.312 L428.049,294.224 C427.593,294.486 427.331,294.939 427.331,295.469 C427.331,295.996 427.593,296.453 428.049,296.714 L439.34,303.234 C439.797,303.499 440.324,303.499 440.78,303.234 z M381.703,337.344 C381.243,337.61 380.72,337.61 380.263,337.344 L368.968,330.825 C368.512,330.56 368.25,330.107 368.25,329.58 C368.25,329.049 368.512,328.596 368.968,328.331 L377.476,323.421 C377.932,323.156 378.456,323.156 378.915,323.421 L390.207,329.941 C390.667,330.206 390.928,330.659 390.928,331.189 C390.928,331.716 390.667,332.169 390.207,332.434 L381.703,337.344 z M421.785,297.839 C422.244,297.574 422.768,297.574 423.224,297.839 L434.515,304.359 C434.975,304.62 435.237,305.077 435.237,305.604 C435.237,306.134 434.975,306.587 434.515,306.849 L396.471,328.819 C396.015,329.081 395.491,329.081 395.032,328.819 L383.74,322.296 C383.281,322.035 383.019,321.582 383.019,321.051 C383.019,320.524 383.281,320.068 383.74,319.806 L421.785,297.839 z M431.452,264.569 L436.503,267.485 C436.963,267.75 437.225,268.204 437.225,268.732 C437.225,269.261 436.963,269.714 436.503,269.978 L433.238,271.864 L426.051,276.013 C425.594,276.277 425.332,276.731 425.332,277.26 C425.332,277.788 425.594,278.242 426.051,278.506 L436.549,284.567 C437.006,284.831 437.533,284.831 437.989,284.567 L461.265,271.129 C461.721,270.865 461.983,270.411 461.983,269.883 C461.983,269.354 461.721,268.9 461.265,268.636 L433.999,252.894 C433.539,252.63 433.016,252.63 432.559,252.894 L424.052,257.804 C423.596,258.068 423.334,258.522 423.334,259.05 C423.334,259.58 423.596,260.033 424.052,260.297 L431.452,264.569 z M366.935,345.873 L375.438,340.963 C375.895,340.698 376.156,340.245 376.156,339.718 C376.156,339.187 375.895,338.734 375.438,338.469 L364.144,331.95 C363.687,331.684 363.164,331.684 362.704,331.95 L354.2,336.86 C353.74,337.125 353.478,337.578 353.478,338.108 C353.478,338.635 353.74,339.088 354.2,339.353 L365.495,345.873 C365.951,346.138 366.475,346.138 366.935,345.873" fill="#313961"/>
    <path d="M410.447,328.71 L451.806,304.833 C452.192,304.61 452.637,304.61 453.023,304.833 L483.363,322.349 C483.748,322.576 483.971,322.958 483.971,323.404 C483.971,323.853 483.748,324.235 483.363,324.458 L441.894,348.398 C441.505,348.625 441.063,348.621 440.674,348.398 L410.444,330.814 C410.062,330.591 409.839,330.206 409.839,329.76 C409.842,329.314 410.062,328.932 410.447,328.71" fill="#DCDCD7"/>
    <path d="M410.447,328.71 L451.806,304.833 C452.195,304.61 452.637,304.61 453.023,304.833 L483.363,322.349 C483.748,322.576 483.971,322.958 483.971,323.404 C483.971,323.651 483.904,323.878 483.776,324.069 C483.677,323.913 483.536,323.782 483.363,323.679 L453.023,306.163 C452.637,305.94 452.195,305.94 451.806,306.163 L410.447,330.04 C410.274,330.139 410.136,330.273 410.034,330.429 C409.906,330.238 409.839,330.008 409.839,329.76 C409.842,329.314 410.062,328.932 410.447,328.71" fill="#CDC7C2"/>
    <path d="M292.452,286.75 L409.74,219.035 L410.09,219.642 L292.802,287.357 L292.452,286.75" fill="#F1F0EB"/>
    <path d="M293.082,282.853 L408.643,216.128 C409.747,215.492 410.299,214.394 410.15,213.129 L399.846,124.712 C399.722,123.659 399.131,122.81 398.183,122.334 C397.235,121.858 396.199,121.888 395.279,122.418 L279.711,189.142 C278.611,189.778 278.059,190.876 278.204,192.141 L288.515,280.559 C288.639,281.613 289.233,282.461 290.181,282.938 C291.129,283.414 292.162,283.384 293.082,282.853" fill="#585E8E"/>
    <path d="M298.112,269.114 C298.098,269.019 292.778,235.816 306.014,228.97 C312.527,225.602 319.874,229.087 327.493,232.702 C335.261,236.385 343.326,240.209 350.684,236.652 C357.104,233.549 359.287,219.741 361.784,203.944 C364.586,186.221 367.776,166.041 377.982,155.013 C377.543,154.347 377.285,153.549 377.285,152.69 C377.285,150.361 379.174,148.473 381.501,148.473 C383.832,148.473 385.721,150.361 385.721,152.69 C385.721,155.019 383.832,156.907 381.501,156.907 C380.539,156.907 379.651,156.585 378.94,156.042 C369.078,166.773 365.93,186.676 363.167,204.158 C360.61,220.346 358.374,234.494 351.292,237.916 C343.33,241.765 334.957,237.794 326.895,233.971 C319.591,230.507 312.551,227.169 306.655,230.218 C294.327,236.594 299.481,268.808 299.495,268.9 L298.112,269.114" fill="#FFFFFE"/>
    <path d="M381.565,148.195 C384.066,148.195 386.093,150.222 386.093,152.722 C386.093,155.223 384.066,157.249 381.565,157.249 C379.064,157.249 377.037,155.223 377.037,152.722 C377.037,150.222 379.064,148.195 381.565,148.195" fill="#DF4E6F"/>
    <path d="M298.338,196.444 L299.042,197.658 L302.371,195.735 L301.671,194.522 L298.338,196.444 z M296.945,193.31 L302.841,189.906 L303.545,191.12 L297.649,194.524 L296.945,193.31" fill="#313961"/>
    <path d="M391.183,214.053 L391.887,215.267 L395.216,213.344 L394.515,212.13 L391.183,214.053 z M389.789,210.919 L395.686,207.515 L396.39,208.729 L390.493,212.133 L389.789,210.919" fill="#313961"/>
    <path d="M447.108,219.028 L509.797,255.222 L501.796,259.841 L514.951,261.54 C516.518,261.742 517.919,261.462 519.284,260.673 L598.524,214.92 C600.717,213.654 601.973,211.479 601.973,208.947 C601.973,206.413 600.717,204.239 598.524,202.973 L536.713,167.29 L447.108,219.028" fill="#6FA6B0"/>
    <path d="M588.683,142.787 L588.683,209.672 L501.796,259.841 L433.716,220.534 L433.716,153.649 L520.597,103.482 L588.683,142.787" fill="#DCDCD7"/>
    <path d="M501.796,259.841 L433.716,220.534 L433.716,153.649 L501.796,192.956 L501.796,259.841" fill="#F1F0EB"/>
    <path d="M433.716,153.649 L501.796,192.956 L588.683,142.787 L520.597,103.482 L433.716,153.649" fill="#F1F0EB"/>
    <path d="M512.04,203.863 L550.402,181.714 L523.61,209.396 L512.04,203.863" fill="#F1F0EB"/>
    <path d="M550.77,217.696 L584.025,198.497 L585.641,204.525 L550.77,217.696" fill="#F1F0EB"/>
    <path d="M482.114,234.733 L475.941,231.17 L476.412,230.35 L482.584,233.913 L482.114,234.733 z M502.822,218.485 L480.653,205.686 L481.127,204.866 L503.296,217.665 L502.822,218.485 z M441.767,210.345 L473.5,228.666 L473.023,229.487 L441.289,211.166 L441.767,210.345" fill="#DCDCD7"/>
    <path d="M435.959,168.66 L445.474,174.154 L445,174.975 L435.485,169.48 L435.959,168.66 z M449.489,177.566 L446.691,175.951 L447.165,175.13 L449.963,176.745 L449.489,177.566" fill="#DCDCD7"/>
    <path d="M430.164,147.922 L501.562,180.82 C532.408,167.27 557.873,145.607 580.392,118.522 L508.987,85.626 C490.391,113.492 458.562,134.604 430.164,147.922" fill="#FFFFFE"/>
    <path d="M510.742,94.638 L530.682,103.162 L530.13,104.453 L510.193,95.929 L510.742,94.638" fill="#585E8E"/>
    <path d="M509.005,98.542 L521.201,103.756 L520.65,105.047 L508.456,99.833 L509.005,98.542" fill="#585E8E"/>
    <path d="M500.42,124.728 C511.859,124.728 521.131,131.565 521.131,139.997 C521.131,148.43 511.859,155.267 500.42,155.267 C488.983,155.267 479.709,148.43 479.709,139.997 C479.709,131.565 488.983,124.728 500.42,124.728" fill="#F1F0EB"/>
    <path d="M519.889,145.215 C516.999,151.078 509.373,155.267 500.42,155.267 C493.978,155.267 488.223,153.098 484.427,149.697 L500.42,139.997 L519.889,145.215" fill="#BDD781"/>
    <path d="M518.319,132.312 C520.108,134.569 521.131,137.195 521.131,139.997 C521.131,141.83 520.692,143.587 519.889,145.215 L500.42,139.997 L518.319,132.312" fill="#FBE0B5"/>
    <path d="M581.549,264.001 C598.068,264.001 611.464,271.222 611.464,280.13 C611.464,289.038 598.068,296.258 581.549,296.258 C565.026,296.258 551.633,289.038 551.633,280.13 C551.633,271.222 565.026,264.001 581.549,264.001" fill="#6FA6B0"/>
    <path d="M597.739,244.131 L596.402,235.428 C595.666,230.642 598.981,226.123 603.767,225.388 L612.472,224.05 L613.809,232.752 C614.545,237.539 611.23,242.057 606.444,242.793 L597.739,244.131" fill="#76BA4C"/>
    <path d="M596.345,249.281 L596.993,263.66 C600.951,263.142 604.011,259.503 603.83,255.532 C603.65,251.561 600.3,248.762 596.345,249.281 z M596.105,243.983 C602.974,243.083 608.797,247.944 609.108,254.841 C609.419,261.737 604.103,268.058 597.233,268.958 L597.555,276.108 C597.739,280.14 595.086,283.91 590.647,286.747 C586.236,289.567 580.052,291.468 573.151,291.78 C566.246,292.091 559.918,290.756 555.27,288.346 C550.593,285.921 547.611,282.405 547.427,278.374 L545.751,241.228 C545.567,237.197 548.223,233.426 552.659,230.589 C557.07,227.77 563.253,225.87 570.158,225.558 C577.06,225.245 583.388,226.58 588.036,228.991 C592.712,231.416 595.694,234.931 595.878,238.963 L596.105,243.983" fill="#FFFFFE"/>
    <path d="M599.341,252.108 C595.365,252.447 592.143,255.944 592.143,259.918 C592.143,263.893 595.365,266.841 599.341,266.502 C603.317,266.163 606.54,262.665 606.54,258.691 C606.54,254.716 603.317,251.769 599.341,252.108 z M599.341,246.805 C606.246,246.216 611.842,251.334 611.842,258.238 C611.842,265.142 606.246,271.216 599.341,271.804 C592.437,272.394 586.84,267.274 586.84,260.371 C586.84,253.467 592.437,247.393 599.341,246.805" fill="#DCDCD7"/>
    <path d="M574.251,227.226 C581.163,227.226 587.424,228.845 591.959,231.463 C596.519,234.097 599.341,237.743 599.341,241.779 L599.341,278.963 C599.341,282.998 596.519,286.645 591.959,289.278 C587.424,291.896 581.163,293.517 574.251,293.517 C567.339,293.517 561.082,291.896 556.547,289.278 C551.984,286.645 549.161,282.998 549.161,278.963 L549.161,241.779 C549.161,237.743 551.984,234.097 556.547,231.463 C561.082,228.845 567.339,227.226 574.251,227.226" fill="#DCDCD7"/>
    <path d="M574.251,227.228 C588.174,227.228 599.458,233.743 599.458,241.779 C599.458,249.816 588.174,256.331 574.251,256.331 C560.332,256.331 549.044,249.816 549.044,241.779 C549.044,233.743 560.332,227.228 574.251,227.228" fill="#FFFFFE"/>
    <path d="M574.251,230.231 C585.302,230.231 594.255,235.401 594.255,241.779 C594.255,248.157 585.302,253.328 574.251,253.328 C563.204,253.328 554.247,248.157 554.247,241.779 C554.247,235.401 563.204,230.231 574.251,230.231" fill="#313961"/>
    <path d="M77.347,216.386 L87.007,208.636 C92.32,204.373 100.155,205.233 104.418,210.546 L112.169,220.206 L102.508,227.957 C97.195,232.22 89.36,231.36 85.098,226.047 L77.347,216.386" fill="#76BA4C"/>
    <path d="M91.91,185.633 L101.305,184.189 C106.472,183.395 111.349,186.972 112.144,192.139 L113.588,201.533 L104.194,202.977 C99.027,203.772 94.15,200.194 93.355,195.027 L91.91,185.633" fill="#76BA4C"/>
    <path d="M187.685,362.162 L183.68,351.865 C181.477,346.205 175.042,343.375 169.38,345.579 L159.086,349.583 L163.091,359.877 C165.294,365.54 171.729,368.37 177.39,366.166 L187.685,362.162" fill="#76BA4C"/>
    <path d="M250.043,85.806 C253.456,85.806 256.222,88.572 256.222,91.985 C256.222,95.398 253.456,98.164 250.043,98.164 C246.63,98.164 243.864,95.398 243.864,91.985 C243.864,88.572 246.63,85.806 250.043,85.806" fill="#FFFFFE"/>
    <path d="M225.019,84.656 C226.924,84.656 228.468,86.2 228.468,88.105 C228.468,90.009 226.924,91.553 225.019,91.553 C223.114,91.553 221.57,90.009 221.57,88.105 C221.57,86.2 223.114,84.656 225.019,84.656" fill="#FFFFFE"/>
    <path d="M452.383,100.176 C454.572,100.176 456.344,101.95 456.344,104.139 C456.344,106.327 454.572,108.101 452.383,108.101 C450.197,108.101 448.421,106.327 448.421,104.139 C448.421,101.95 450.197,100.176 452.383,100.176" fill="#FFFFFE"/>
    <path d="M595.365,216.721 C596.794,216.721 597.951,217.878 597.951,219.307 C597.951,220.736 596.794,221.894 595.365,221.894 C593.936,221.894 592.78,220.736 592.78,219.307 C592.78,217.878 593.936,216.721 595.365,216.721" fill="#FFFFFE"/>
    <path d="M109.789,241.731 C111.849,241.731 113.519,243.402 113.519,245.461 C113.519,247.522 111.849,249.192 109.789,249.192 C107.729,249.192 106.058,247.522 106.058,245.461 C106.058,243.402 107.729,241.731 109.789,241.731" fill="#FFFFFE"/>
    <path d="M146.434,269.242 C147.585,269.242 148.519,270.176 148.519,271.328 C148.519,272.48 147.585,273.414 146.434,273.414 C145.282,273.414 144.348,272.48 144.348,271.328 C144.348,270.176 145.282,269.242 146.434,269.242" fill="#FFFFFE"/>
    <path d="M269.732,299.923 C271.557,299.923 273.039,301.405 273.039,303.23 C273.039,305.055 271.557,306.534 269.732,306.534 C267.907,306.534 266.428,305.055 266.428,303.23 C266.428,301.405 267.907,299.923 269.732,299.923" fill="#FFFFFE"/>
    <path d="M246.093,406.556 C247.957,406.556 249.47,408.066 249.47,409.93 C249.47,411.795 247.957,413.309 246.093,413.309 C244.228,413.309 242.716,411.795 242.716,409.93 C242.716,408.066 244.228,406.556 246.093,406.556" fill="#FFFFFE"/>
    <path d="M600.137,174.645 L600.838,175.859 L604.17,173.936 L603.466,172.722 L600.137,174.645 z M598.744,171.511 L604.64,168.107 L605.344,169.321 L599.447,172.725 L598.744,171.511" fill="#313961"/>
    <path d="M81.732,258.976 L82.435,260.19 L85.765,258.268 L85.062,257.053 L81.732,258.976 z M80.339,255.842 L86.235,252.438 L86.938,253.652 L81.042,257.056 L80.339,255.842" fill="#313961"/>
    <path d="M398.074,358.059 L398.774,359.272 L402.106,357.351 L401.402,356.138 L398.074,358.059 z M396.68,354.925 L402.577,351.522 L403.277,352.735 L397.38,356.142 L396.68,354.925" fill="#313961"/>
  </g>
</svg>
