<?xml version="1.0" encoding="UTF-8"?>
<!DOCTYPE svg PUBLIC "-//W3C//DTD SVG 1.1//EN" "http://www.w3.org/Graphics/SVG/1.1/DTD/svg11.dtd">
<svg version="1.1" xmlns="http://www.w3.org/2000/svg" xmlns:xlink="http://www.w3.org/1999/xlink" x="0" y="0" width="200" height="200" viewBox="0, 0, 200, 200">
  <g id="Layer_1">
    <path d="M183.765,70.224 C182.072,70.224 180.686,71.604 180.686,73.303 C180.686,75.001 182.072,76.383 183.765,76.383 C185.465,76.383 186.845,75.001 186.845,73.303 C186.845,71.604 185.465,70.224 183.765,70.224 z M183.765,78.23 C181.049,78.23 178.838,76.02 178.838,73.303 C178.838,70.586 181.049,68.376 183.765,68.376 C186.481,68.376 188.693,70.586 188.693,73.303 C188.693,76.02 186.481,78.23 183.765,78.23" fill="#002A9B"/>
    <path d="M131.781,118.48 L134.169,123.795 L138.099,119.275 L131.781,118.48 z M133.899,126.622 C133.851,126.622 133.803,126.619 133.754,126.611 C133.418,126.562 133.129,126.344 132.99,126.034 L129.236,117.677 C129.087,117.348 129.129,116.966 129.343,116.676 C129.557,116.386 129.914,116.235 130.269,116.28 L140.2,117.531 C140.565,117.577 140.876,117.821 141.007,118.164 C141.138,118.508 141.07,118.897 140.828,119.174 L134.652,126.279 C134.46,126.499 134.186,126.622 133.899,126.622" fill="#6BD0FF"/>
    <path d="M18.285,157.946 C18.047,157.946 17.812,157.861 17.627,157.697 L3.52,145.28 L4.837,143.784 L17.233,154.695 L16.839,138.658 C16.831,138.336 16.98,138.03 17.237,137.837 C17.495,137.643 17.83,137.587 18.137,137.684 L26.815,140.439 L29.633,132.958 L31.499,133.661 L28.347,142.026 C28.16,142.522 27.617,142.786 27.113,142.625 L18.866,140.007 L19.281,156.925 C19.291,157.321 19.066,157.685 18.707,157.852 C18.572,157.915 18.428,157.946 18.285,157.946" fill="#6BD0FF"/>
    <path d="M73.421,131.715 C73.421,131.715 82.497,140.341 95.639,140.341 L80.18,154.487 L67.974,132.937 L73.421,131.715" fill="#71CFF5"/>
    <path d="M117.845,131.822 C117.845,131.822 108.932,140.339 96,140.339 L111.253,154.889 L123.306,132.937 L117.845,131.822" fill="#71CFF5"/>
    <path d="M55.043,170 L56.891,170 L56.891,190.324 L55.043,190.324 z" fill="#002A9B"/>
    <path d="M95.206,199.563 L94.987,199.563 C72.342,199.563 50.455,191.423 33.357,176.642 L33.009,176.342 L33.039,175.884 C34.49,153.649 51.124,134.768 72.592,130.987 C72.746,130.967 72.854,130.945 72.958,130.925 C73.073,130.903 73.185,130.882 73.289,130.867 L73.702,130.808 L74.019,131.077 C80.488,136.577 87.965,139.484 95.639,139.484 C103.352,139.484 110.825,136.613 117.248,131.183 L117.58,130.902 L118.008,130.979 C125.681,132.352 132.967,135.585 139.078,140.329 C141.135,141.925 143.078,143.704 144.851,145.617 L143.496,146.873 C141.79,145.034 139.923,143.323 137.945,141.788 C132.182,137.315 125.33,134.238 118.104,132.875 C111.419,138.409 103.66,141.331 95.639,141.331 C87.654,141.331 79.889,138.372 73.158,132.768 C73.062,132.786 72.964,132.802 72.867,132.814 C52.42,136.415 36.508,154.349 34.915,175.546 C51.625,189.845 72.94,197.715 94.987,197.715 L95.203,197.715 C103.724,197.696 112.157,196.523 120.265,194.231 L120.768,196.01 C112.497,198.348 103.897,199.543 95.206,199.563" fill="#002A9B"/>
    <path d="M80.223,156.373 L79.64,155.344 C77.571,151.693 75.494,148.041 73.417,144.389 C71.332,140.724 69.247,137.058 67.17,133.393 L68.778,132.482 C70.855,136.147 72.938,139.811 75.023,143.476 C76.905,146.785 78.788,150.095 80.664,153.404 C82.823,151.349 85.109,149.152 87.396,146.954 C89.993,144.457 92.591,141.96 95.003,139.671 L96.275,141.011 C93.866,143.298 91.271,145.792 88.676,148.286 C86.082,150.779 83.488,153.273 81.08,155.559 L80.223,156.373" fill="#002A9B"/>
    <path d="M111.123,156.369 L110.267,155.561 C107.479,152.931 104.416,150.001 101.454,147.167 C99.241,145.05 97.051,142.956 95.003,141.011 L96.275,139.671 C98.325,141.617 100.516,143.713 102.73,145.832 C105.39,148.376 108.131,150.997 110.679,153.408 L122.445,132.665 L124.052,133.577 L111.123,156.369" fill="#002A9B"/>
    <path d="M96.714,184.963 L79.643,155.351 L81.244,154.427 L96.609,181.083 L110.305,154.069 L111.953,154.905 L96.714,184.963" fill="#002A9B"/>
    <path d="M139.422,170.616 L167.752,170.616 L167.752,163.225 L139.422,163.225 z M137.574,161.377 L169.6,161.377 L169.6,172.464 L137.574,172.464 z" fill="#002A9B"/>
    <path d="M129.603,179.043 C132.007,178.86 134.973,178.791 138.321,179.065 C149.071,179.948 153.143,183.505 160.866,183.648 C164.839,183.722 170.721,182.911 178.044,178.342 C178.425,178.105 183.174,190.401 176.233,193.016 C161.119,192.949 145.998,192.882 130.881,192.815 C124.371,189.208 128.215,179.149 129.603,179.043" fill="#71CFF5"/>
    <path d="M141.673,172.464 C134.319,172.464 128.336,178.446 128.336,185.801 L128.336,186.967 C128.336,190.176 130.947,192.788 134.157,192.788 L173.018,192.788 C176.227,192.788 178.838,190.176 178.838,186.967 L178.838,185.801 C178.838,178.446 172.858,172.464 165.504,172.464 L141.673,172.464 z M173.018,194.635 L134.157,194.635 C129.929,194.635 126.488,191.196 126.488,186.967 L126.488,185.801 C126.488,177.428 133.3,170.616 141.673,170.616 L165.504,170.616 C173.874,170.616 180.686,177.428 180.686,185.801 L180.686,186.967 C180.686,191.196 177.249,194.635 173.018,194.635" fill="#002A9B"/>
    <path d="M176.011,122.221 C175.691,121.262 176.202,120.221 177.163,119.898 L187.695,116.345 C190.066,103.012 187.356,92.291 186.469,89.145 C182.275,90.801 164.512,98.365 154.522,118.526 C144.529,138.687 149.269,157.406 150.494,161.746 C154.682,160.088 172.451,152.525 182.441,132.364 C184.449,128.319 185.841,124.34 186.802,120.516 L178.333,123.372 C177.372,123.696 176.338,123.18 176.011,122.221" fill="#71CFF5"/>
    <path d="M144.064,187.009 L142.282,186.52 C145.191,175.898 148.72,165.32 152.761,155.078 C156.795,144.861 161.433,134.746 166.551,125.015 L168.189,125.875 C163.102,135.548 158.489,145.601 154.479,155.757 C150.463,165.936 146.959,176.451 144.064,187.009" fill="#002A9B"/>
    <path d="M54.819,122.438 C52.451,122.438 49.681,122.063 46.775,120.901 C44.435,119.974 42.275,118.656 40.35,116.98 C37.746,117.633 35.078,117.963 32.41,117.963 C25.41,117.963 18.74,115.763 13.121,111.599 C5.968,106.28 1.279,98.211 0.254,89.458 C0.086,88.25 -0,86.929 -0,85.553 C-0,67.683 14.539,53.144 32.41,53.144 C39.675,53.144 46.542,55.495 52.269,59.942 C52.434,60.081 55.531,62.728 57.967,65.837 L56.398,67.066 C54.089,64.12 51.042,61.514 51.012,61.488 C45.672,57.343 39.228,55.137 32.41,55.137 C15.638,55.137 1.993,68.782 1.993,85.553 C1.993,86.838 2.073,88.067 2.231,89.206 C3.195,97.436 7.597,105.007 14.309,109.999 C19.581,113.905 25.841,115.97 32.41,115.97 C35.082,115.97 37.756,115.617 40.357,114.919 C40.684,114.831 41.036,114.917 41.287,115.146 C43.134,116.831 45.228,118.144 47.512,119.049 C51.653,120.705 55.494,120.602 58.093,120.183 C56.594,118.532 54.891,115.941 54.365,112.352 C54.071,110.439 54.166,108.469 54.65,106.505 C54.689,106.344 54.768,106.196 54.879,106.073 C56.483,104.308 57.878,102.361 59.028,100.284 L60.772,101.25 C59.589,103.386 58.162,105.393 56.529,107.221 C56.157,108.849 56.093,110.475 56.336,112.056 C56.969,116.369 59.652,119.059 60.776,120.016 C61.059,120.256 61.184,120.635 61.101,120.998 C61.018,121.36 60.74,121.646 60.38,121.74 C59.087,122.075 57.148,122.438 54.819,122.438" fill="#6BD0FF"/>
    <path d="M67.317,94.63 C67.197,94.018 66.09,93.43 64.917,92.806 C62.632,91.591 59.502,89.928 58.512,85.808 C56.983,79.453 58.914,77.033 60.2,76.157 C61.672,75.154 63.703,75.21 65.256,76.298 L64.196,77.811 C63.424,77.271 62.21,77.022 61.241,77.683 C59.721,78.719 59.381,81.523 60.308,85.376 C61.104,88.686 63.591,90.008 65.784,91.175 C67.424,92.046 68.841,92.799 69.13,94.274 L67.317,94.63" fill="#002A9B"/>
    <path d="M125.739,94.421 L123.927,94.066 C124.204,92.646 125.326,91.887 126.513,91.084 C128.139,89.984 129.982,88.736 130.79,85.376 C131.737,81.438 131.454,78.508 130.033,77.54 C129.315,77.051 128.295,77.124 127.433,77.728 L126.373,76.214 C127.87,75.166 129.714,75.087 131.072,76.012 C132.315,76.859 134.162,79.256 132.586,85.808 C131.61,89.865 129.263,91.454 127.549,92.614 C126.477,93.339 125.865,93.781 125.739,94.421" fill="#002A9B"/>
    <path d="M66.084,81.926 C62.381,76.091 58.956,62.842 69.613,50.192 C72.769,46.445 77.518,43.825 82.111,41.292 C87.607,38.261 92.798,35.398 93.339,31.322 L93.462,30.399 L94.384,30.529 C96.483,30.824 101.155,32.964 104.256,38.922 C107.51,38.471 110.811,38.878 114.081,40.135 L114.182,40.182 C133.79,50.576 129.96,70.206 128.319,75.974 L128.051,76.933 C127.589,78.592 127.285,79.687 126.527,81.115 L124.894,80.248 C125.558,78.999 125.827,78.034 126.271,76.437 L126.542,75.469 C128.52,68.514 131.192,51.324 113.366,41.84 C110.201,40.633 107.013,40.3 103.893,40.849 L103.203,40.971 L102.9,40.34 C100.471,35.286 96.887,33.203 94.966,32.567 C93.739,36.989 88.514,39.871 83.004,42.91 C78.559,45.362 73.962,47.898 71.026,51.382 C61.059,63.214 64.21,75.526 67.644,80.936 L66.084,81.926" fill="#002A9B"/>
    <path d="M67.654,82.186 L65.814,82.022 C66.029,79.596 66.646,74.884 68.374,70.588 C69.424,67.976 70.777,65.479 72.395,63.165 L72.864,62.493 L73.587,62.878 C87.692,70.398 102.037,70.821 110.136,63.954 C111.729,62.603 113.233,61.327 113.405,57.5 L113.497,55.413 L114.978,56.886 C115.335,57.241 115.805,57.659 116.349,58.143 C118.561,60.113 121.905,63.091 123.59,67.139 C126.029,72.993 126.689,78.316 126.494,81.347 L124.65,81.228 C124.823,78.535 124.203,73.415 121.884,67.849 C120.361,64.191 117.206,61.382 115.12,59.523 C115.096,59.501 115.072,59.48 115.048,59.459 C114.463,62.707 112.813,64.106 111.33,65.363 C102.795,72.602 87.995,72.397 73.451,64.894 C72.115,66.903 70.985,69.046 70.088,71.277 C68.449,75.353 67.86,79.861 67.654,82.186" fill="#002A9B"/>
    <path d="M96.489,108.13 C93.059,108.13 88.473,105.626 88.279,105.519 L89.171,103.901 C89.214,103.925 93.535,106.282 96.489,106.282 C99.772,106.282 103.74,103.94 103.78,103.917 L104.726,105.504 C104.546,105.611 100.275,108.13 96.489,108.13" fill="#002A9B"/>
    <path d="M95.796,99.121 C92.952,99.121 91.177,97.69 91.103,97.629 L90.766,97.352 L90.751,80.661 C90.75,78.981 89.382,77.614 87.702,77.614 L78.448,77.614 L78.448,75.767 L87.702,75.767 C90.4,75.767 92.596,77.962 92.599,80.66 L92.613,96.424 C93.142,96.738 94.268,97.273 95.796,97.273 C97.952,97.273 99.308,96.208 99.321,96.197 L100.49,97.629 C100.416,97.69 98.642,99.121 95.796,99.121" fill="#002A9B"/>
    <path d="M96.809,123.755 C91.319,123.755 86.157,121.617 82.275,117.735 L75.016,110.477 C72.255,107.714 70.126,104.472 68.691,100.84 L68.658,100.743 C68.636,100.661 66.397,92.33 65.688,79.935 L67.532,79.829 C68.202,91.534 70.248,99.525 70.429,100.211 C71.771,103.586 73.754,106.6 76.323,109.17 L83.581,116.429 C87.115,119.961 91.812,121.908 96.809,121.908 C101.845,121.908 106.742,119.833 110.246,116.217 L117.117,109.124 C119.378,106.79 121.246,103.864 122.828,100.179 C123.994,97.463 124.546,91.083 124.676,78.846 L126.523,78.865 C126.39,91.528 125.811,97.915 124.525,100.908 C122.852,104.803 120.864,107.911 118.443,110.409 L111.572,117.502 C107.723,121.476 102.342,123.755 96.809,123.755" fill="#002A9B"/>
    <path d="M74.07,132.785 L73.285,131.112 C81.154,127.418 81.995,117.34 82.002,117.239 L83.845,117.376 C83.811,117.835 82.906,128.637 74.07,132.785" fill="#002A9B"/>
    <path d="M118.142,132.791 C109.231,128.79 109.481,118.069 109.497,117.615 L111.343,117.675 C111.34,117.774 111.13,127.617 118.898,131.105 L118.142,132.791" fill="#002A9B"/>
    <path d="M100.396,114.213 C100.378,114.203 98.424,113.191 96.311,113.191 C95.733,113.191 95.14,113.267 94.55,113.417 L94.096,111.626 C94.834,111.438 95.58,111.343 96.311,111.343 C98.895,111.343 101.165,112.529 101.261,112.58 L100.396,114.213" fill="#002A9B"/>
    <path d="M85.223,84.081 C85.223,85.271 84.257,86.237 83.067,86.237 C81.876,86.237 80.911,85.271 80.911,84.081 C80.911,82.891 81.876,81.926 83.067,81.926 C84.257,81.926 85.223,82.891 85.223,84.081" fill="#002A9B"/>
    <path d="M110.475,84.081 C110.475,85.271 109.509,86.237 108.319,86.237 C107.128,86.237 106.163,85.271 106.163,84.081 C106.163,82.891 107.128,81.926 108.319,81.926 C109.509,81.926 110.475,82.891 110.475,84.081" fill="#002A9B"/>
    <path d="M15.01,78.846 L17.473,78.846 L17.473,80.694 L15.01,80.694 z M19.937,78.846 L22.4,78.846 L22.4,80.694 L19.937,80.694 z M24.864,78.846 L27.328,78.846 L27.328,80.694 L24.864,80.694 z M29.791,78.846 L32.255,78.846 L32.255,80.694 L29.791,80.694 z M34.718,78.846 L37.182,78.846 L37.182,80.694 L34.718,80.694 z M39.646,78.846 L42.109,78.846 L42.109,80.694 L39.646,80.694 z M44.573,78.846 L47.037,78.846 L47.037,80.694 L44.573,80.694 z" fill="#002A9B"/>
    <path d="M15.01,86.237 L47.037,86.237 L47.037,88.085 L15.01,88.085 z" fill="#002A9B"/>
    <path d="M15.01,94.244 L30.407,94.244 L30.407,96.091 L15.01,96.091 z" fill="#002A9B"/>
    <path d="M55.549,200 C38.891,192.995 26.901,182.683 19.776,175.266 L21.109,173.986 C28.113,181.278 39.898,191.414 56.265,198.296 L55.549,200" fill="#002A9B"/>
    <path d="M15.508,170.533 C13.211,167.804 11.884,165.89 11.717,165.552 L13.374,164.736 L12.546,165.144 L13.362,164.712 C13.455,164.875 14.602,166.587 16.922,169.342 L15.508,170.533" fill="#002A9B"/>
    <path d="M103.772,30.806 L101.779,30.806 L101.779,7.593 C101.779,7.533 101.784,7.473 101.795,7.414 C102.175,5.339 103.343,3.499 104.92,2.493 C106.183,1.686 107.618,1.442 109.074,1.785 L165.368,1.785 L171.977,1.173 L172.156,3.158 L165.51,3.774 C165.479,3.777 165.448,3.779 165.418,3.779 L108.953,3.779 C108.868,3.779 108.785,3.767 108.703,3.747 C107.739,3.496 106.827,3.64 105.992,4.173 C104.895,4.873 104.069,6.182 103.772,7.687 L103.772,30.806" fill="#6BD0FF"/>
    <path d="M159.111,96.149 L159.111,94.156 C163.09,94.156 166.446,90.952 166.446,87.161 L166.446,6.82 C166.44,5.352 167.013,3.971 168.072,2.936 C169.187,1.842 170.77,1.24 172.353,1.284 C175.291,1.364 177.68,3.905 177.68,6.949 L177.68,45.768 C177.68,47.666 179.226,49.209 181.123,49.209 L181.487,49.209 C183.384,49.209 184.923,47.666 184.923,45.768 L184.923,32.472 C184.923,29.69 186.826,27.289 189.444,26.763 C190.996,26.451 192.579,26.773 193.897,27.669 C195.381,28.676 196.422,30.312 196.761,32.156 C196.767,32.214 196.773,32.274 196.773,32.333 L196.773,67.144 L194.778,67.144 L194.778,32.427 C194.525,31.141 193.798,30.011 192.782,29.318 C192.16,28.898 191.15,28.453 189.832,28.717 C188.144,29.057 186.919,30.636 186.919,32.472 L186.919,45.768 C186.919,48.765 184.48,51.203 181.487,51.203 L181.123,51.203 C178.124,51.203 175.685,48.765 175.685,45.768 L175.685,6.949 C175.685,4.975 174.17,3.327 172.297,3.276 C171.219,3.247 170.197,3.642 169.464,4.36 C168.799,5.013 168.436,5.884 168.442,6.814 L168.442,87.161 C168.442,92.033 164.167,96.149 159.111,96.149" fill="#6BD0FF"/>
    <path d="M159.302,96.164 L130.184,96.164 L130.184,94.17 L153.66,94.17 C151.689,92.575 150.433,90.163 150.433,87.469 L150.433,86.926 L136.959,86.926 L136.959,84.932 L151.43,84.932 C151.985,84.932 152.428,85.378 152.428,85.929 L152.428,87.469 C152.428,91.164 155.514,94.17 159.302,94.17 C159.85,94.17 160.299,94.617 160.299,95.168 C160.299,95.718 159.85,96.164 159.302,96.164" fill="#6BD0FF"/>
    <path d="M143.118,29.501 L156.666,29.501 L156.666,31.494 L143.118,31.494 z" fill="#6BD0FF"/>
    <path d="M128.336,41.203 L156.666,41.203 L156.666,43.196 L128.336,43.196 z" fill="#6BD0FF"/>
    <path d="M136.343,54.137 L156.666,54.137 L156.666,56.13 L136.343,56.13 z" fill="#6BD0FF"/>
    <path d="M149.891,67.071 L156.666,67.071 L156.666,69.064 L149.891,69.064 z" fill="#6BD0FF"/>
    <path d="M136.343,67.071 L143.733,67.071 L143.733,69.064 L136.343,69.064 z" fill="#6BD0FF"/>
    <path d="M118.454,30.631 C117.562,31.523 116.116,31.523 115.225,30.631 C114.332,29.74 114.332,28.294 115.225,27.402 C116.116,26.51 117.562,26.51 118.454,27.402 C119.346,28.294 119.346,29.74 118.454,30.631" fill="#002A9B"/>
    <path d="M124.417,30.731 L122.615,30.323 C123.067,28.325 122.474,26.27 121.03,24.826 C119.552,23.348 117.378,22.756 115.351,23.282 L114.887,21.494 C117.539,20.804 120.396,21.58 122.336,23.519 C124.232,25.415 125.009,28.11 124.417,30.731" fill="#002A9B"/>
    <path d="M130.145,31.199 L128.321,30.899 C128.928,27.212 127.711,23.433 125.067,20.789 C122.432,18.154 118.659,16.936 114.973,17.53 L114.679,15.707 C118.949,15.018 123.32,16.429 126.373,19.482 C129.437,22.546 130.847,26.925 130.145,31.199" fill="#002A9B"/>
    <path d="M135.919,31.124 L134.082,30.922 C134.66,25.659 132.846,20.494 129.104,16.752 C125.334,12.983 120.134,11.171 114.84,11.782 L114.628,9.946 C120.487,9.27 126.239,11.275 130.41,15.446 C134.551,19.586 136.558,25.3 135.919,31.124" fill="#002A9B"/>
    <path d="M18.042,52.441 C15.901,46.95 15.072,41.166 15.578,35.252 C16.452,25.037 21.251,15.775 29.092,9.17 C36.933,2.565 46.881,-0.591 57.091,0.283 C72.029,1.561 84.939,11.513 89.982,25.638 L88.104,26.308 C83.324,12.916 71.084,3.48 56.922,2.268 C47.242,1.44 37.81,4.432 30.376,10.694 C22.943,16.956 18.392,25.737 17.564,35.421 C17.084,41.03 17.869,46.512 19.899,51.717 L18.042,52.441" fill="#6BD0FF"/>
    <path d="M32.772,48.925 C32.299,45.534 32.059,41.987 32.059,38.381 C32.059,28.074 34.011,18.526 37.557,11.497 C41.296,4.083 46.582,-0 52.441,-0 C62.568,-0 70.605,12.297 72.44,30.599 L70.456,30.798 C68.73,13.568 61.49,1.993 52.441,1.993 C41.958,1.993 34.053,17.636 34.053,38.381 C34.053,41.895 34.286,45.35 34.746,48.65 L32.772,48.925" fill="#6BD0FF"/>
    <path d="M51.275,1.242 L53.268,1.242 L53.268,52.362 L51.275,52.362 z" fill="#6BD0FF"/>
    <path d="M16.241,38.739 L70.441,38.739 L70.441,40.733 L16.241,40.733 z" fill="#6BD0FF"/>
    <path d="M21.169,19.646 L77.216,19.646 L77.216,21.64 L21.169,21.64 z" fill="#6BD0FF"/>
  </g>
</svg>
