<svg xmlns="http://www.w3.org/2000/svg" width="200" height="200"><path d="M183.765 70.224a3.085 3.085 0 00-3.079 3.079 3.086 3.086 0 003.079 3.08c1.7 0 3.08-1.382 3.08-3.08a3.081 3.081 0 00-3.08-3.079zm0 8.006a4.933 4.933 0 01-4.927-4.927 4.933 4.933 0 014.927-4.927 4.934 4.934 0 014.928 4.927 4.934 4.934 0 01-4.928 4.927" fill="#002A9B"/><path d="M131.781 118.48l2.388 5.315 3.93-4.52-6.318-.795zm2.118 8.142a.996.996 0 01-.909-.588l-3.754-8.357a.994.994 0 011.033-1.397l9.931 1.251a.998.998 0 01.628 1.643l-6.176 7.105a.997.997 0 01-.753.343M18.285 157.946a.99.99 0 01-.658-.249L3.52 145.28l1.317-1.496 12.396 10.911-.394-16.037a.997.997 0 011.298-.974l8.678 2.755 2.818-7.481 1.866.703-3.152 8.365a.997.997 0 01-1.234.599l-8.247-2.618.415 16.918a.994.994 0 01-.996 1.021" fill="#6BD0FF"/><path d="M73.421 131.715s9.076 8.626 22.218 8.626L80.18 154.487l-12.206-21.55 5.447-1.222m44.424.107s-8.913 8.517-21.845 8.517l15.253 14.55 12.053-21.952-5.461-1.115" fill="#71CFF5"/><path d="M55.043 170h1.848v20.324h-1.848z" fill="#002A9B"/><path d="M95.206 199.563h-.219c-22.645 0-44.532-8.14-61.63-22.921l-.348-.3.03-.458c1.451-22.235 18.085-41.116 39.553-44.897.154-.02.262-.042.366-.062a7.53 7.53 0 01.331-.058l.413-.059.317.269c6.469 5.5 13.946 8.407 21.62 8.407 7.713 0 15.186-2.871 21.609-8.301l.332-.281.428.077c7.673 1.373 14.959 4.606 21.07 9.35 2.057 1.596 4 3.375 5.773 5.288l-1.355 1.256a46.388 46.388 0 00-5.551-5.085c-5.763-4.473-12.615-7.55-19.841-8.913-6.685 5.534-14.444 8.456-22.465 8.456-7.985 0-15.75-2.959-22.481-8.563a4.758 4.758 0 01-.291.046c-20.447 3.601-36.359 21.535-37.952 42.732 16.71 14.299 38.025 22.169 60.072 22.169h.216a92.89 92.89 0 0025.062-3.484l.503 1.779a94.764 94.764 0 01-25.562 3.553" fill="#002A9B"/><path d="M80.223 156.373l-.583-1.029a8188.117 8188.117 0 00-6.223-10.955 7664.39 7664.39 0 01-6.247-10.996l1.608-.911c2.077 3.665 4.16 7.329 6.245 10.994 1.882 3.309 3.765 6.619 5.641 9.928 2.159-2.055 4.445-4.252 6.732-6.45a1656.81 1656.81 0 017.607-7.283l1.272 1.34c-2.409 2.287-5.004 4.781-7.599 7.275-2.594 2.493-5.188 4.987-7.596 7.273l-.857.814" fill="#002A9B"/><path d="M111.123 156.369l-.856-.808c-2.788-2.63-5.851-5.56-8.813-8.394a2517.681 2517.681 0 00-6.451-6.156l1.272-1.34a2226.9 2226.9 0 016.455 6.161 2114.52 2114.52 0 007.949 7.576l11.766-20.743 1.607.912-12.929 22.792" fill="#002A9B"/><path d="M96.714 184.963l-17.071-29.612 1.601-.924 15.365 26.656 13.696-27.014 1.648.836-15.239 30.058m42.708-14.347h28.33v-7.391h-28.33zm-1.848-9.239H169.6v11.087h-32.026z" fill="#002A9B"/><path d="M129.603 179.043a55.446 55.446 0 018.718.022c10.75.883 14.822 4.44 22.545 4.583 3.973.074 9.855-.737 17.178-5.306.381-.237 5.13 12.059-1.811 14.674l-45.352-.201c-6.51-3.607-2.666-13.666-1.278-13.772" fill="#71CFF5"/><path d="M141.673 172.464c-7.354 0-13.337 5.982-13.337 13.337v1.166a5.828 5.828 0 005.821 5.821h38.861a5.828 5.828 0 005.82-5.821v-1.166c0-7.355-5.98-13.337-13.334-13.337h-23.831zm31.345 22.171h-38.861c-4.228 0-7.669-3.439-7.669-7.668v-1.166c0-8.373 6.812-15.185 15.185-15.185h23.831c8.37 0 15.182 6.812 15.182 15.185v1.166c0 4.229-3.437 7.668-7.668 7.668" fill="#002A9B"/><path d="M176.011 122.221c-.32-.959.191-2 1.152-2.323l10.532-3.553c2.371-13.333-.339-24.054-1.226-27.2-4.194 1.656-21.957 9.22-31.947 29.381-9.993 20.161-5.253 38.88-4.028 43.22 4.188-1.658 21.957-9.221 31.947-29.382a58.733 58.733 0 004.361-11.848l-8.469 2.856a1.833 1.833 0 01-2.322-1.151" fill="#71CFF5"/><path d="M144.064 187.009l-1.782-.489a306.851 306.851 0 0110.479-31.442 307.188 307.188 0 0113.79-30.063l1.638.86a305.481 305.481 0 00-13.71 29.882 305.903 305.903 0 00-10.415 31.252" fill="#002A9B"/><path d="M54.819 122.438c-2.368 0-5.138-.375-8.044-1.537a22.234 22.234 0 01-6.425-3.921 32.652 32.652 0 01-7.94.983c-7 0-13.67-2.2-19.289-6.364C5.968 106.28 1.279 98.211.254 89.458A28.596 28.596 0 010 85.553c0-17.87 14.539-32.409 32.41-32.409 7.265 0 14.132 2.351 19.859 6.798.165.139 3.262 2.786 5.698 5.895l-1.569 1.229c-2.309-2.946-5.356-5.552-5.386-5.578-5.34-4.145-11.784-6.351-18.602-6.351-16.772 0-30.417 13.645-30.417 30.416 0 1.285.08 2.514.238 3.653.964 8.23 5.366 15.801 12.078 20.793a30.196 30.196 0 0018.101 5.971c2.672 0 5.346-.353 7.947-1.051a.998.998 0 01.93.227 20.318 20.318 0 006.225 3.903c4.141 1.656 7.982 1.553 10.581 1.134-1.499-1.651-3.202-4.242-3.728-7.831-.294-1.913-.199-3.883.285-5.847a.994.994 0 01.229-.432 30.804 30.804 0 004.149-5.789l1.744.966a32.906 32.906 0 01-4.243 5.971 12.853 12.853 0 00-.193 4.835c.633 4.313 3.316 7.003 4.44 7.96a.996.996 0 01-.396 1.724 22.387 22.387 0 01-5.561.698" fill="#6BD0FF"/><path d="M67.317 94.63c-.12-.612-1.227-1.2-2.4-1.824-2.285-1.215-5.415-2.878-6.405-6.998-1.529-6.355.402-8.775 1.688-9.651 1.472-1.003 3.503-.947 5.056.141l-1.06 1.513c-.772-.54-1.986-.789-2.955-.128-1.52 1.036-1.86 3.84-.933 7.693.796 3.31 3.283 4.632 5.476 5.799 1.64.871 3.057 1.624 3.346 3.099l-1.813.356m58.422-.209l-1.812-.355c.277-1.42 1.399-2.179 2.586-2.982 1.626-1.1 3.469-2.348 4.277-5.708.947-3.938.664-6.868-.757-7.836-.718-.489-1.738-.416-2.6.188l-1.06-1.514c1.497-1.048 3.341-1.127 4.699-.202 1.243.847 3.09 3.244 1.514 9.796-.976 4.057-3.323 5.646-5.037 6.806-1.072.725-1.684 1.167-1.81 1.807" fill="#002A9B"/><path d="M66.084 81.926c-3.703-5.835-7.128-19.084 3.529-31.734 3.156-3.747 7.905-6.367 12.498-8.9 5.496-3.031 10.687-5.894 11.228-9.97l.123-.923.922.13c2.099.295 6.771 2.435 9.872 8.393 3.254-.451 6.555-.044 9.825 1.213l.101.047c19.608 10.394 15.778 30.024 14.137 35.792l-.268.959c-.462 1.659-.766 2.754-1.524 4.182l-1.633-.867c.664-1.249.933-2.214 1.377-3.811l.271-.968c1.978-6.955 4.65-24.145-13.176-33.629-3.165-1.207-6.353-1.54-9.473-.991l-.69.122-.303-.631c-2.429-5.054-6.013-7.137-7.934-7.773-1.227 4.422-6.452 7.304-11.962 10.343-4.445 2.452-9.042 4.988-11.978 8.472-9.967 11.832-6.816 24.144-3.382 29.554l-1.56.99" fill="#002A9B"/><path d="M67.654 82.186l-1.84-.164c.215-2.426.832-7.138 2.56-11.434a37.16 37.16 0 014.021-7.423l.469-.672.723.385c14.105 7.52 28.45 7.943 36.549 1.076 1.593-1.351 3.097-2.627 3.269-6.454l.092-2.087 1.481 1.473c.357.355.827.773 1.371 1.257 2.212 1.97 5.556 4.948 7.241 8.996 2.439 5.854 3.099 11.177 2.904 14.208l-1.844-.119c.173-2.693-.447-7.813-2.766-13.379-1.523-3.658-4.678-6.467-6.764-8.326a4.139 4.139 0 00-.072-.064c-.585 3.248-2.235 4.647-3.718 5.904-8.535 7.239-23.335 7.034-37.879-.469a35.367 35.367 0 00-3.363 6.383c-1.639 4.076-2.228 8.584-2.434 10.909m28.835 25.944c-3.43 0-8.016-2.504-8.21-2.611l.892-1.618c.043.024 4.364 2.381 7.318 2.381 3.283 0 7.251-2.342 7.291-2.365l.946 1.587c-.18.107-4.451 2.626-8.237 2.626" fill="#002A9B"/><path d="M95.796 99.121c-2.844 0-4.619-1.431-4.693-1.492l-.337-.277-.015-16.691a3.053 3.053 0 00-3.049-3.047h-9.254v-1.847h9.254a4.904 4.904 0 014.897 4.893l.014 15.764a6.302 6.302 0 003.183.849c2.156 0 3.512-1.065 3.525-1.076l1.169 1.432c-.074.061-1.848 1.492-4.694 1.492" fill="#002A9B"/><path d="M96.809 123.755a20.42 20.42 0 01-14.534-6.02l-7.259-7.258a28.235 28.235 0 01-6.325-9.637l-.033-.097c-.022-.082-2.261-8.413-2.97-20.808l1.844-.106c.67 11.705 2.716 19.696 2.897 20.382a26.397 26.397 0 005.894 8.959l7.258 7.259a18.591 18.591 0 0013.228 5.479 18.81 18.81 0 0013.437-5.691l6.871-7.093c2.261-2.334 4.129-5.26 5.711-8.945 1.166-2.716 1.718-9.096 1.848-21.333l1.847.019c-.133 12.663-.712 19.05-1.998 22.043-1.673 3.895-3.661 7.003-6.082 9.501l-6.871 7.093a20.661 20.661 0 01-14.763 6.253" fill="#002A9B"/><path d="M74.07 132.785l-.785-1.673c7.869-3.694 8.71-13.772 8.717-13.873l1.843.137c-.034.459-.939 11.261-9.775 15.409m44.072.006c-8.911-4.001-8.661-14.722-8.645-15.176l1.846.06c-.003.099-.213 9.942 7.555 13.43l-.756 1.686m-17.746-18.578c-.018-.01-1.972-1.022-4.085-1.022-.578 0-1.171.076-1.761.226l-.454-1.791a8.99 8.99 0 012.215-.283c2.584 0 4.854 1.186 4.95 1.237l-.865 1.633M85.223 84.081a2.157 2.157 0 01-4.312 0 2.155 2.155 0 014.312 0m25.252 0a2.157 2.157 0 01-4.312 0 2.155 2.155 0 014.312 0M15.01 78.846h2.463v1.848H15.01zm4.927 0H22.4v1.848h-2.463zm4.927 0h2.464v1.848h-2.464zm4.927 0h2.464v1.848h-2.464zm4.927 0h2.464v1.848h-2.464zm4.928 0h2.463v1.848h-2.463zm4.927 0h2.464v1.848h-2.464zM15.01 86.237h32.027v1.848H15.01zm0 8.007h15.397v1.847H15.01zM55.549 200c-16.658-7.005-28.648-17.317-35.773-24.734l1.333-1.28c7.004 7.292 18.789 17.428 35.156 24.31L55.549 200m-40.041-29.467c-2.297-2.729-3.624-4.643-3.791-4.981l1.657-.816-.828.408.816-.432c.093.163 1.24 1.875 3.56 4.63l-1.414 1.191" fill="#002A9B"/><path d="M103.772 30.806h-1.993V7.593c0-.06.005-.12.016-.179.38-2.075 1.548-3.915 3.125-4.921a5.295 5.295 0 014.154-.708h56.294l6.609-.612.179 1.985-6.646.616a.963.963 0 01-.092.005h-56.465c-.085 0-.168-.012-.25-.032-.964-.251-1.876-.107-2.711.426-1.097.7-1.923 2.009-2.22 3.514v23.119" fill="#6BD0FF"/><path d="M159.111 96.149v-1.993c3.979 0 7.335-3.204 7.335-6.995V6.82a5.356 5.356 0 011.626-3.884c1.115-1.094 2.698-1.696 4.281-1.652 2.938.08 5.327 2.621 5.327 5.665v38.819a3.446 3.446 0 003.443 3.441h.364a3.44 3.44 0 003.436-3.441V32.472c0-2.782 1.903-5.183 4.521-5.709a5.825 5.825 0 014.453.906c1.484 1.007 2.525 2.643 2.864 4.487.006.058.012.118.012.177v34.811h-1.995V32.427c-.253-1.286-.98-2.416-1.996-3.109-.622-.42-1.632-.865-2.95-.601-1.688.34-2.913 1.919-2.913 3.755v13.296a5.441 5.441 0 01-5.432 5.435h-.364a5.442 5.442 0 01-5.438-5.435V6.949c0-1.974-1.515-3.622-3.388-3.673-1.078-.029-2.1.366-2.833 1.084a3.381 3.381 0 00-1.022 2.454v80.347c0 4.872-4.275 8.988-9.331 8.988" fill="#6BD0FF"/><path d="M159.302 96.164h-29.118V94.17h23.476c-1.971-1.595-3.227-4.007-3.227-6.701v-.543h-13.474v-1.994h14.471c.555 0 .998.446.998.997v1.54c0 3.695 3.086 6.701 6.874 6.701a.998.998 0 010 1.994m-16.184-66.663h13.548v1.993h-13.548zm-14.782 11.702h28.33v1.993h-28.33zm8.007 12.934h20.323v1.993h-20.323zm13.548 12.934h6.775v1.993h-6.775zm-13.548 0h7.39v1.993h-7.39z" fill="#6BD0FF"/><path d="M118.454 30.631a2.283 2.283 0 11-3.229-3.227 2.283 2.283 0 013.229 3.227m5.963.1l-1.802-.408a5.894 5.894 0 00-1.585-5.497 5.946 5.946 0 00-5.679-1.544l-.464-1.788a7.803 7.803 0 017.449 2.025 7.733 7.733 0 012.081 7.212" fill="#002A9B"/><path d="M130.145 31.199l-1.824-.3a11.653 11.653 0 00-3.254-10.11 11.681 11.681 0 00-10.094-3.259l-.294-1.823a13.53 13.53 0 0111.694 3.775 13.51 13.51 0 013.772 11.717" fill="#002A9B"/><path d="M135.919 31.124l-1.837-.202a17.276 17.276 0 00-4.978-14.17 17.27 17.27 0 00-14.264-4.97l-.212-1.836a19.103 19.103 0 0115.782 5.5 19.113 19.113 0 015.509 15.678" fill="#002A9B"/><path d="M18.042 52.441c-2.141-5.491-2.97-11.275-2.464-17.189.874-10.215 5.673-19.477 13.514-26.082C36.933 2.565 46.881-.591 57.091.283c14.938 1.278 27.848 11.23 32.891 25.355l-1.878.67c-4.78-13.392-17.02-22.828-31.182-24.04-9.68-.828-19.112 2.164-26.546 8.426-7.433 6.262-11.984 15.043-12.812 24.727-.48 5.609.305 11.091 2.335 16.296l-1.857.724" fill="#6BD0FF"/><path d="M32.772 48.925a76.612 76.612 0 01-.713-10.544c0-10.307 1.952-19.855 5.498-26.884C41.296 4.083 46.582 0 52.441 0 62.568 0 70.605 12.297 72.44 30.599l-1.984.199C68.73 13.568 61.49 1.993 52.441 1.993c-10.483 0-18.388 15.643-18.388 36.388 0 3.514.233 6.969.693 10.269l-1.974.275" fill="#6BD0FF"/><path d="M51.275 1.242h1.993v51.12h-1.993z" fill="#6BD0FF"/><path d="M16.241 38.739h54.2v1.994h-54.2zm4.928-19.093h56.047v1.994H21.169z" fill="#6BD0FF"/></svg>