<svg xmlns="http://www.w3.org/2000/svg" width="900" height="500"><path d="M698.105 250c0 136.749-111.08 247.605-248.105 247.605-137.025 0-248.105-110.856-248.105-247.605C201.895 113.252 312.975 2.395 450 2.395c137.025 0 248.105 110.857 248.105 247.605" fill="#D6D6D6"/><path d="M646.588 401.067H253.412c45.367 58.715 116.55 96.538 196.588 96.538s151.22-37.823 196.588-96.538" fill="#2EA7B9"/><path d="M286.921 280.913c-12.091 0-21.892-9.782-21.892-21.848 0-12.066 9.801-21.848 21.892-21.848 12.09 0 21.891 9.782 21.891 21.848 0 12.066-9.801 21.848-21.891 21.848zm48.502-30.684h-6.012c-1.055-5.365-3.025-9.956-5.833-14.356l4.349-4.333a2.515 2.515 0 000-3.564l-9.365-9.345a2.532 2.532 0 00-3.575.001l-4.263 4.244a43.296 43.296 0 00-14.317-6.045v-6.138c0-1.393-1.11-2.75-2.506-2.75h-13.245c-1.396 0-2.589 1.357-2.589 2.75v6.001a43.274 43.274 0 00-14.369 5.82l-4.333-4.34a2.522 2.522 0 00-3.567 0l-9.362 9.347a2.519 2.519 0 00.002 3.568l4.252 4.395c-2.878 4.361-4.924 8.749-6.056 14.43h-6.15c-1.397 0-2.473.824-2.473 2.218v13.218c0 1.393 1.076 2.236 2.473 2.236h6.012c1.054 5.049 3.025 10.114 5.832 14.514l-4.348 4.411a2.563 2.563 0 000 3.604l9.365 9.364a2.532 2.532 0 003.576.009l4.229-4.238a43.173 43.173 0 0014.284 6.05v6.137c0 1.394 1.176 2.751 2.572 2.751h13.244c1.397 0 2.524-1.357 2.524-2.751v-6c5.06-1.053 9.993-3.019 14.402-5.821l4.349 4.34a2.531 2.531 0 003.576 0l9.366-9.346a2.52 2.52 0 000-3.568l-4.251-4.08c2.878-4.361 4.925-9.38 6.057-14.114h6.15c1.396 0 2.407-1.456 2.407-2.85v-13.217c0-1.393-1.011-2.552-2.407-2.552" fill="#397FCD"/><path d="M239.607 194.664c-8.629 0-15.624-6.98-15.624-15.592 0-8.611 6.995-15.592 15.624-15.592 8.628 0 15.623 6.981 15.623 15.592 0 8.612-6.995 15.592-15.623 15.592zm34.615-21.898h-4.291c-.752-3.828-2.159-7.106-4.162-10.246l3.103-3.091a1.794 1.794 0 000-2.544l-6.684-6.67a1.806 1.806 0 00-2.551.001l-3.043 3.028a30.94 30.94 0 00-10.217-4.314v-4.38c0-.994-.792-1.963-1.788-1.963h-9.453c-.996 0-1.848.969-1.848 1.963v4.282a30.891 30.891 0 00-10.255 4.155l-3.092-3.098a1.802 1.802 0 00-2.547 0l-6.681 6.67a1.799 1.799 0 00.002 2.547l3.035 3.137c-2.055 3.112-3.515 6.244-4.323 10.298h-4.389c-.996 0-1.765.589-1.765 1.583v9.433c0 .995.769 1.596 1.765 1.596h4.291c.753 3.604 2.159 7.219 4.162 10.358l-3.103 3.149a1.828 1.828 0 000 2.572l6.684 6.683a1.809 1.809 0 002.552.007l3.018-3.026a30.804 30.804 0 0010.195 4.318v4.381c0 .994.838 1.962 1.835 1.962h9.452c.997 0 1.801-.968 1.801-1.962v-4.283a30.998 30.998 0 0010.278-4.154l3.105 3.098a1.808 1.808 0 002.552 0l6.684-6.671a1.799 1.799 0 000-2.546l-3.035-2.912c2.054-3.112 3.516-6.695 4.324-10.073h4.389c.997 0 1.718-1.039 1.718-2.033v-9.434c0-.994-.721-1.821-1.718-1.821" fill="#EE3645"/><path d="M606.671 348.147H293.327V167.625a3.193 3.193 0 013.196-3.19h306.955a3.19 3.19 0 013.193 3.19v180.522" fill="#5C5C5C"/><path d="M308.343 179.42h283.314v153.741H308.343z" fill="#FFF"/><path d="M606.671 348.147H293.327v34.106a3.191 3.191 0 003.196 3.187h306.955a3.188 3.188 0 003.193-3.187v-34.106" fill="#F3F3F3"/><path d="M501.177 416.695H398.823a5.15 5.15 0 00-5.157 5.146 5.153 5.153 0 005.157 5.147h102.354a5.153 5.153 0 005.157-5.147 5.15 5.15 0 00-5.157-5.146" fill="#F5F5F5"/><path d="M481.288 385.44h-62.577l-5.5 31.255h73.578l-5.501-31.255m-22.972-18.012c0 4.585-3.723 8.302-8.316 8.302-4.593 0-8.317-3.717-8.317-8.302 0-4.584 3.724-8.298 8.317-8.298s8.316 3.714 8.316 8.298" fill="#E5E5E5"/><path d="M653.248 69.712c0-19.867-16.138-35.973-36.046-35.973-19.906 0-36.043 16.106-36.043 35.973 0 6.263 1.772 12.446 4.944 17.839 1.602 2.729 3.559 5.161 5.732 7.457 2.07 2.192 4.841 3.616 6.812 5.88 1.701 1.956 1.903 4.318 2.725 6.658a7.16 7.16 0 006.756 4.783h18.175a7.162 7.162 0 006.745-4.75c.699-1.96 1.177-4.46 2.265-6.218 1.358-2.19 4.388-3.313 6.252-5.089 2.389-2.278 4.509-4.74 6.246-7.556 3.498-5.68 5.437-12.329 5.437-19.004" fill="#FFAE23"/><path d="M628.054 47.257c-.372 0-.751-.074-1.116-.23a24.32 24.32 0 00-2.534-.927 2.824 2.824 0 01-1.882-3.525 2.831 2.831 0 013.53-1.877 30.36 30.36 0 013.122 1.141 2.821 2.821 0 011.482 3.709 2.83 2.83 0 01-2.602 1.709m16.708 25.279a2.828 2.828 0 01-2.832-2.824c0-6.838-2.746-13.201-7.74-17.918a2.819 2.819 0 01-.11-3.991 2.83 2.83 0 013.998-.11c6.046 5.71 9.513 13.736 9.513 22.019a2.828 2.828 0 01-2.829 2.824" fill="#FFF5E9"/><path d="M609.096 81.356a6.515 6.515 0 01-3.619-1.087l-3.233-2.154a1.525 1.525 0 011.694-2.535l3.233 2.153a3.5 3.5 0 003.931-.053l2.392-1.689a6.533 6.533 0 017.589.041l2.236 1.611a3.487 3.487 0 003.948.08l3.506-2.319a1.528 1.528 0 012.116.428 1.522 1.522 0 01-.429 2.113l-3.502 2.319a6.57 6.57 0 01-7.432-.15l-2.233-1.612a3.473 3.473 0 00-4.034-.021l-2.396 1.689a6.53 6.53 0 01-3.767 1.186" fill="#FFE2BB"/><path d="M609.255 115.084c-.73 0-1.379-.527-1.503-1.273l-6.465-38.483a1.525 1.525 0 011.255-1.755 1.525 1.525 0 011.758 1.251l6.465 38.483a1.526 1.526 0 01-1.51 1.777m15.974 0a1.523 1.523 0 01-1.506-1.785l6.646-38.381a1.53 1.53 0 013.013.519l-6.65 38.382a1.524 1.524 0 01-1.503 1.265" fill="#FFECD3"/><path d="M629.483 127.75h-24.559a.722.722 0 01-.723-.722v-13.977c0-.398.322-.722.723-.722h24.559c.4 0 .723.324.723.722v13.977a.723.723 0 01-.723.722" fill="#5C5C5C"/><path d="M617.202 133.657c-4.431 0-8.025-3.585-8.025-8.007v-5.313c0-4.422 3.594-8.008 8.025-8.008 4.433 0 8.024 3.586 8.024 8.008v5.313c0 4.422-3.591 8.007-8.024 8.007" fill="#5C5C5C"/><path d="M604.201 115.519h26.005v3.049h-26.005zm0 5.95h26.005v3.049h-26.005z" fill="#818181"/><path d="M617.354 26.537a1.647 1.647 0 01-1.648-1.646V13.956c0-.909.737-1.646 1.648-1.646.911 0 1.648.737 1.648 1.646v10.935c0 .909-.737 1.646-1.648 1.646m23.995 7.304a1.639 1.639 0 01-1.24-.233 1.644 1.644 0 01-.479-2.279l5.994-9.151a1.654 1.654 0 012.286-.477c.762.497.975 1.518.478 2.278l-5.997 9.152a1.638 1.638 0 01-1.042.71m23.272 11.766l-9.63 5.218a1.65 1.65 0 01-2.236-.661 1.643 1.643 0 01.663-2.232l9.626-5.218a1.65 1.65 0 012.237.661 1.645 1.645 0 01-.66 2.232m-70.688-11.766c.415.087.861.016 1.24-.233a1.644 1.644 0 00.479-2.279l-5.997-9.151a1.65 1.65 0 00-2.283-.477 1.646 1.646 0 00-.478 2.278l5.997 9.152c.248.381.627.625 1.042.71m-23.272 11.766l9.63 5.218a1.65 1.65 0 002.236-.661 1.643 1.643 0 00-.663-2.232l-9.626-5.218a1.655 1.655 0 00-2.24.661 1.646 1.646 0 00.663 2.232" fill="#FFCF89"/><path d="M549.029 478.504l56.848-15.723c.628-.173.631-1.057.007-1.238l-56.706-16.239-.149 33.2" fill="#FCDBDF"/><path d="M549.104 445.304l-.153 33.2-222.791-1.012.152-33.2 222.792 1.012" fill="#FFAE23"/><path d="M548.994 469.498l-.043 9.006-222.79-1.012.041-9.005 222.792 1.011m.11-24.194l-.043 9.002-222.79-1.008.041-9.006 222.792 1.012" fill="#FFCF89"/><path d="M293.65 460.744c-.042 9.168 7.371 16.635 16.558 16.674l15.953.074.151-33.2-15.953-.074c-9.186-.039-16.667 7.357-16.709 16.526" fill="#F68E98"/><path d="M343.383 444.37l-.151 33.2-17.071-.078.151-33.2 17.071.078" fill="#FCDBDF"/><path d="M605.884 461.543l-22.847-6.544c.029 4.418.05 9.65.029 14.089l22.811-6.307c.628-.173.631-1.057.007-1.238M536.276 78.118H331.19c8.984 0 16.267 7.269 16.267 16.235V333.16h205.085V94.353c0-8.966-7.28-16.235-16.266-16.235" fill="#5C5C5C"/><path d="M331.19 78.118c-8.985 0-16.267 7.269-16.267 16.235v43.387c0 8.966-7.284 16.234-16.267 16.234h32.534c8.984 0 16.267-7.268 16.267-16.234V94.353c0-8.966-7.283-16.235-16.267-16.235" fill="#EE3645"/><path d="M314.923 116.046v21.694c0 8.966-7.284 16.234-16.267 16.234-8.985 0-16.268-7.268-16.268-16.234v-21.694h32.535" fill="#5C5C5C"/><path d="M427.777 134.427h-38.836a2.264 2.264 0 01-2.266-2.262 2.264 2.264 0 012.266-2.261h38.836a2.263 2.263 0 012.266 2.261 2.264 2.264 0 01-2.266 2.262" fill="#3CD2E9"/><path d="M486.77 134.427h-26.187a2.265 2.265 0 01-2.267-2.262 2.264 2.264 0 012.267-2.261h26.187a2.263 2.263 0 012.266 2.261 2.264 2.264 0 01-2.266 2.262" fill="#FFF"/><path d="M451.635 134.427h-13.539a2.264 2.264 0 01-2.266-2.262 2.263 2.263 0 012.266-2.261h13.539a2.263 2.263 0 012.266 2.261 2.264 2.264 0 01-2.266 2.262m27.088 28.805h-67.294a2.265 2.265 0 01-2.267-2.262 2.264 2.264 0 012.267-2.261h67.294a2.263 2.263 0 012.266 2.261 2.264 2.264 0 01-2.266 2.262" fill="#FFAE23"/><path d="M402.481 163.232h-13.54a2.264 2.264 0 01-2.266-2.262 2.264 2.264 0 012.266-2.261h13.54a2.264 2.264 0 012.266 2.261 2.264 2.264 0 01-2.266 2.262m-13.54 28.805h57.809a2.264 2.264 0 002.266-2.262 2.264 2.264 0 00-2.266-2.261h-57.809a2.264 2.264 0 00-2.266 2.261 2.264 2.264 0 002.266 2.262" fill="#3CD2E9"/><path d="M455.698 192.037h13.539a2.264 2.264 0 002.266-2.262 2.263 2.263 0 00-2.266-2.261h-13.539a2.263 2.263 0 00-2.266 2.261 2.264 2.264 0 002.266 2.262" fill="#FFF"/><path d="M476.935 148.829h38.836a2.263 2.263 0 002.266-2.261 2.263 2.263 0 00-2.266-2.261h-38.836a2.264 2.264 0 00-2.266 2.261 2.264 2.264 0 002.266 2.261" fill="#EE3645"/><path d="M388.941 148.829h47.427a2.264 2.264 0 002.266-2.261 2.264 2.264 0 00-2.266-2.261h-47.427a2.264 2.264 0 00-2.266 2.261 2.264 2.264 0 002.266 2.261" fill="#FFF"/><path d="M446.754 148.829h19.863a2.263 2.263 0 002.266-2.261 2.263 2.263 0 00-2.266-2.261h-19.863a2.263 2.263 0 00-2.266 2.261 2.263 2.263 0 002.266 2.261" fill="#3CD2E9"/><path d="M427.777 177.634h-38.836a2.264 2.264 0 01-2.266-2.261 2.264 2.264 0 012.266-2.262h38.836a2.264 2.264 0 012.266 2.262 2.263 2.263 0 01-2.266 2.261" fill="#FFAE23"/><path d="M515.771 177.634h-47.426a2.264 2.264 0 01-2.266-2.261 2.264 2.264 0 012.266-2.262h47.426a2.264 2.264 0 012.266 2.262 2.263 2.263 0 01-2.266 2.261" fill="#3CD2E9"/><path d="M457.959 177.634h-19.863a2.263 2.263 0 01-2.266-2.261 2.264 2.264 0 012.266-2.262h19.863a2.264 2.264 0 012.266 2.262 2.263 2.263 0 01-2.266 2.261" fill="#FFF"/><path d="M409.922 120.024H377.41a2.264 2.264 0 01-2.266-2.261 2.264 2.264 0 012.266-2.261h32.512a2.264 2.264 0 012.266 2.261 2.264 2.264 0 01-2.266 2.261" fill="#EE3645"/><path d="M435.897 120.024h-16.701a2.263 2.263 0 01-2.266-2.261 2.263 2.263 0 012.266-2.261h16.701a2.263 2.263 0 012.266 2.261 2.263 2.263 0 01-2.266 2.261" fill="#3CD2E9"/><path d="M448.219 206.439h-26.188a2.263 2.263 0 01-2.265-2.261 2.264 2.264 0 012.265-2.262h26.188a2.264 2.264 0 012.266 2.262 2.263 2.263 0 01-2.266 2.261" fill="#FFF"/><path d="M413.084 206.439H377.41a2.264 2.264 0 01-2.266-2.261 2.264 2.264 0 012.266-2.262h35.674a2.264 2.264 0 012.266 2.262 2.264 2.264 0 01-2.266 2.261" fill="#EE3645"/><path d="M453.074 223.764h-64.133a2.264 2.264 0 01-2.266-2.261 2.264 2.264 0 012.266-2.262h64.133a2.263 2.263 0 012.266 2.262 2.264 2.264 0 01-2.266 2.261" fill="#3CD2E9"/><path d="M476.932 223.764h-13.54a2.264 2.264 0 01-2.266-2.261 2.264 2.264 0 012.266-2.262h13.54a2.264 2.264 0 012.266 2.262 2.264 2.264 0 01-2.266 2.261" fill="#FFAE23"/><path d="M478.723 252.569h-67.294a2.265 2.265 0 01-2.267-2.262 2.264 2.264 0 012.267-2.261h67.294a2.263 2.263 0 012.266 2.261 2.264 2.264 0 01-2.266 2.262" fill="#FFF"/><path d="M402.481 252.569h-13.54a2.264 2.264 0 01-2.266-2.262 2.264 2.264 0 012.266-2.261h13.54a2.264 2.264 0 012.266 2.261 2.264 2.264 0 01-2.266 2.262m-13.54 28.805h57.809a2.264 2.264 0 002.266-2.262 2.264 2.264 0 00-2.266-2.261h-57.809a2.264 2.264 0 00-2.266 2.261 2.264 2.264 0 002.266 2.262" fill="#3CD2E9"/><path d="M455.698 281.374h13.539a2.264 2.264 0 002.266-2.262 2.263 2.263 0 00-2.266-2.261h-13.539a2.263 2.263 0 00-2.266 2.261 2.264 2.264 0 002.266 2.262" fill="#FFF"/><path d="M388.941 238.166h47.427a2.264 2.264 0 002.266-2.261 2.264 2.264 0 00-2.266-2.261h-47.427a2.264 2.264 0 00-2.266 2.261 2.264 2.264 0 002.266 2.261" fill="#EE3645"/><path d="M446.754 238.166h19.863a2.263 2.263 0 002.266-2.261 2.263 2.263 0 00-2.266-2.261h-19.863a2.263 2.263 0 00-2.266 2.261 2.263 2.263 0 002.266 2.261" fill="#3CD2E9"/><path d="M427.777 266.971h-38.836a2.264 2.264 0 01-2.266-2.261 2.264 2.264 0 012.266-2.262h38.836a2.264 2.264 0 012.266 2.262 2.263 2.263 0 01-2.266 2.261" fill="#FFAE23"/><path d="M515.771 266.971h-47.426a2.264 2.264 0 01-2.266-2.261 2.264 2.264 0 012.266-2.262h47.426a2.264 2.264 0 012.266 2.262 2.263 2.263 0 01-2.266 2.261" fill="#3CD2E9"/><path d="M457.959 266.971h-19.863a2.263 2.263 0 01-2.266-2.261 2.264 2.264 0 012.266-2.262h19.863a2.264 2.264 0 012.266 2.262 2.263 2.263 0 01-2.266 2.261m-9.74 28.805h-26.188a2.263 2.263 0 01-2.265-2.261 2.264 2.264 0 012.265-2.262h26.188a2.264 2.264 0 012.266 2.262 2.263 2.263 0 01-2.266 2.261" fill="#FFF"/><path d="M413.084 295.776H377.41a2.264 2.264 0 01-2.266-2.261 2.264 2.264 0 012.266-2.262h35.674a2.264 2.264 0 012.266 2.262 2.264 2.264 0 01-2.266 2.261" fill="#EE3645"/><path d="M382.657 105.592c-.211 0-.426-.043-.631-.132l-7.514-3.273a1.579 1.579 0 01.037-2.909l7.514-3.046a1.578 1.578 0 111.19 2.923l-4.037 1.637 4.074 1.776a1.576 1.576 0 01-.633 3.024m14.811 0a1.576 1.576 0 01-.633-3.024l4.074-1.776-4.037-1.637a1.578 1.578 0 111.19-2.923l7.514 3.046a1.579 1.579 0 01.037 2.909l-7.514 3.273c-.206.089-.42.132-.631.132m-8.348 1.847a1.583 1.583 0 01-1.53-1.982l2.745-10.356a1.582 1.582 0 011.933-1.122 1.578 1.578 0 011.124 1.929l-2.745 10.356a1.582 1.582 0 01-1.527 1.175m-6.463 212.836c-.211 0-.426-.042-.631-.132l-7.514-3.273a1.577 1.577 0 01.037-2.908l7.514-3.047a1.578 1.578 0 111.19 2.924l-4.037 1.637 4.074 1.775a1.576 1.576 0 01-.633 3.024m14.811 0a1.576 1.576 0 01-.633-3.024l4.074-1.775-4.037-1.637a1.578 1.578 0 111.19-2.924l7.514 3.047c.589.239.977.807.986 1.441a1.579 1.579 0 01-.949 1.467l-7.514 3.273c-.206.089-.42.132-.631.132m-8.348 1.847a1.579 1.579 0 01-1.53-1.982l2.745-10.355a1.582 1.582 0 011.933-1.123 1.578 1.578 0 011.124 1.929l-2.745 10.356a1.58 1.58 0 01-1.527 1.175" fill="#FFF"/><path d="M665.373 207.943h-86.192c-5.182 0-9.382 4.191-9.382 9.362v64.586c0 5.171 4.2 9.362 9.382 9.362h7.213v23.721c0 2.326 2.818 3.492 4.466 1.846l25.618-25.567h48.895c5.178 0 9.378-4.191 9.378-9.362v-64.586c0-5.171-4.2-9.362-9.378-9.362" fill="#EE3645"/><path d="M604.467 261.405a3.79 3.79 0 01-1.521-.317l-18.073-7.873c-1.4-.611-2.3-2-2.282-3.527a3.803 3.803 0 012.371-3.467l18.073-7.328a3.806 3.806 0 014.955 2.087 3.792 3.792 0 01-2.091 4.944l-9.712 3.938 9.8 4.269a3.793 3.793 0 01-1.52 7.274m35.62 0a3.793 3.793 0 01-1.524-7.274l9.801-4.269-9.712-3.938a3.79 3.79 0 01-2.091-4.944 3.805 3.805 0 014.955-2.087l18.073 7.328a3.8 3.8 0 012.371 3.467 3.797 3.797 0 01-2.283 3.527l-18.073 7.873a3.772 3.772 0 01-1.517.317m-20.078 4.443c-.323 0-.649-.041-.975-.127a3.792 3.792 0 01-2.704-4.639l6.603-24.909a3.801 3.801 0 014.646-2.698 3.793 3.793 0 012.705 4.639l-6.603 24.909a3.8 3.8 0 01-3.672 2.825" fill="#FFF"/><path d="M278.911 49.701h104.558c3.439 7.305 10.874 12.365 19.497 12.365 7.873 0 14.756-4.22 18.511-10.515a.84.84 0 00-.719-1.272h-20.986l-5.614-9.704 5.614-9.704h20.986a.84.84 0 00.719-1.273c-3.755-6.295-10.638-10.514-18.511-10.514-8.623 0-16.058 5.06-19.497 12.365H278.911c-3.439-7.305-10.875-12.365-19.497-12.365-7.874 0-14.756 4.219-18.512 10.514a.84.84 0 00.719 1.273h20.986l5.614 9.704-5.614 9.704h-20.986a.84.84 0 00-.719 1.272c3.756 6.295 10.638 10.515 18.512 10.515 8.622 0 16.058-5.06 19.497-12.365" fill="#FFAE23"/><path d="M292.584 40.575a3.871 3.871 0 013.876-3.868h69.459a3.871 3.871 0 013.876 3.868 3.872 3.872 0 01-3.876 3.868H296.46a3.872 3.872 0 01-3.876-3.868" fill="#EA9F1F"/></svg>