<svg version="1.1" id="Layer_1" xmlns="http://www.w3.org/2000/svg" x="0" y="0" viewBox="0 0 512 512" xml:space="preserve"><style>.st6{fill:#aac3d7}.st9{fill:#329682}.st10{fill:#fff}.st11{fill:#9b5faa}.st15{fill:#784687}</style><path d="M404.241 352.8h-304v-216c0-66.274 53.726-120 120-120h64c66.274 0 120 53.726 120 120v216z" fill="#7dc8aa"/><path d="M308.241 216.8h24c13.255 0 24-10.745 24-24v-24c0-13.255-10.745-24-24-24h-104c-13.255 0-24 10.745-24 24v40l8 16v16c0 8.836 7.163 16 16 16h-24c-8.837 0-16-7.164-16-16v-112h-48v32c0 8.836 7.163 16 16 16v64c0 26.51 21.49 48 48 48h40v22.059c0 6.365 2.529 12.47 7.029 16.971l8.971 8.971c-8.836 0-16 7.164-16 16h112c0-8.836-7.163-16-16-16l8.971-8.971a23.998 23.998 0 007.029-16.97V240.8h-64v-8c0-8.836 7.164-16 16-16z" fill="#147864"/><path class="st9" d="M180.241 144.8h-20a4 4 0 00-4 4c0 6.627 5.373 12 12 12h4c0 8.837 7.164 16 16 16v-24a8 8 0 00-8-8zm72 112h-24c-8.837 0-16-7.163-16-16v-16l-8-16v-40c0-13.255 10.745-24 24-24h104c13.255 0 24 10.745 24 24h-72a8 8 0 00-8 8v32l-8 16v16c0 8.837-7.163 16-16 16zm-80-176a8 8 0 000 16v16h-32a8 8 0 000 16h48v-32c0-8.836-7.163-16-16-16z"/><path d="M232.241 200.8h-4c-8.837 0-16-7.163-16-16v-6.667a4 4 0 014-4h4c8.837 0 16 7.163 16 16v6.667a4 4 0 01-4 4zm16 0h4c8.837 0 16-7.163 16-16v-6.667a4 4 0 00-4-4h-4c-8.837 0-16 7.163-16 16v6.667a4 4 0 004 4z" fill="#323232"/><circle class="st6" cx="221.575" cy="183.467" r="4"/><circle class="st6" cx="258.908" cy="183.467" r="4"/><path class="st9" d="M364.241 256.8c0-13.255-10.745-24-24-24s-24 10.745-24 24c0 7.107 3.091 13.489 8 17.884V352.8h32v-78.116c4.909-4.395 8-10.777 8-17.884z"/><path class="st10" d="M372.241 144.8a8 8 0 01-8-8c0-44.112-35.888-80-80-80a8 8 0 010-16c52.935 0 96 43.065 96 96a8 8 0 01-8 8zm0 40a8 8 0 01-8-8v-8a8 8 0 0116 0v8a8 8 0 01-8 8z"/><circle class="st11" cx="252.241" cy="464.8" r="32"/><circle class="st11" cx="364.241" cy="464.8" r="32"/><circle class="st11" cx="140.241" cy="464.8" r="32"/><path fill="#faa51e" d="M452.241 400.8h-400l48-48h304z"/><path d="M404.241 464.8h-304c-26.51 0-48-21.49-48-48v-16h400v16c0 26.51-21.49 48-48 48z" fill="#463c4b"/><path d="M252.241 464.8h152c26.51 0 48-21.49 48-48h-176c-13.255 0-24 10.745-24 24v24z" fill="#32283c"/><path fill="#d76e28" d="M452.241 400.8l-48-48h-152v48z"/><circle class="st11" cx="76.241" cy="376.8" r="10.667"/><circle class="st11" cx="193.575" cy="376.8" r="10.667"/><circle class="st15" cx="310.908" cy="376.8" r="10.667"/><circle class="st15" cx="428.241" cy="376.8" r="10.667"/><path class="st10" d="M172.241 68.8c11.028 0 20 8.972 20 20s-8.972 20-20 20-20-8.972-20-20 8.972-20 20-20m0-4c-13.255 0-24 10.745-24 24s10.745 24 24 24 24-10.745 24-24-10.745-24-24-24z"/><circle class="st10" cx="172.241" cy="88.8" r="8"/></svg>