<?xml version="1.0" encoding="UTF-8"?>
<!DOCTYPE svg PUBLIC "-//W3C//DTD SVG 1.1//EN" "http://www.w3.org/Graphics/SVG/1.1/DTD/svg11.dtd">
<svg version="1.1" xmlns="http://www.w3.org/2000/svg" xmlns:xlink="http://www.w3.org/1999/xlink" x="0" y="0" width="70" height="70" viewBox="0, 0, 70, 70">
  <g id="Layer_1">
    <path d="M35,22.939 L43.086,22.939 L43.086,36.688 L35,36.688 z" fill="#BFBFBA"/>
    <path d="M21.869,9.121 L23.042,9.121 L23.042,19.509 L21.869,19.509 z" fill="#9C9D99"/>
    <path d="M23.732,14.278 L23.732,15.435 L27.684,15.435 L27.684,10.325 C25.502,10.325 23.732,12.095 23.732,14.278" fill="#BFBFBA"/>
    <path d="M21.066,21.385 L21.066,22.939 L25.018,22.939 L25.018,16.079 C22.835,16.079 21.066,18.455 21.066,21.385" fill="#BFBFBA"/>
    <path d="M23.732,15.435 L27.684,15.435 L27.684,22.939 L23.732,22.939 z" fill="#9C9D99"/>
    <path d="M35,39.324 L35,45.944 L33.746,53.18 L26.398,53.18 L27.86,39.324 L35,39.324" fill="#FFFFFE"/>
    <path d="M27.09,7.063 L42.91,7.063 L42.91,22.939 L27.09,22.939 z" fill="#FFFFFE"/>
    <path d="M35,7.063 L42.911,7.063 L42.911,22.939 L35,22.939 z" fill="#BFBFBA"/>
    <path d="M41.69,15.001 C41.69,11.307 38.695,8.311 35,8.311 L35,15.001 L41.69,15.001" fill="#191C31"/>
    <path d="M35,8.311 C31.305,8.311 28.31,11.307 28.31,15.001 L35,15.001 L35,8.311" fill="#2C314D"/>
    <path d="M28.31,15.001 C28.31,18.696 31.305,21.692 35,21.692 L35,15.001 L28.31,15.001" fill="#191C31"/>
    <path d="M35,15.001 L35,21.692 C38.695,21.692 41.69,18.696 41.69,15.001 L35,15.001" fill="#0B0E16"/>
    <path d="M26.914,22.939 L35,22.939 L35,36.688 L26.914,36.688 z" fill="#FFFFFE"/>
    <path d="M27.09,36.688 L27.09,22.993 C27.09,21.33 25.742,19.981 24.078,19.981 L24.078,36.688 L27.09,36.688" fill="#BFBFBA"/>
    <path d="M24.078,36.688 L24.078,19.981 C22.414,19.981 21.066,21.33 21.066,22.993 L21.066,36.688 L24.078,36.688" fill="#FFFFFE"/>
    <path d="M21.066,36.688 L24.078,36.688 L24.078,44.549 L21.066,44.549 z" fill="#BFBFBA"/>
    <path d="M24.078,36.688 L27.09,36.688 L27.09,44.549 L24.078,44.549 z" fill="#9C9D99"/>
    <path d="M28.153,45.944 C28.153,43.693 26.329,41.868 24.078,41.868 L24.078,45.944 L28.153,45.944" fill="#BFBFBA"/>
    <path d="M24.078,41.868 C21.827,41.868 20.003,43.693 20.003,45.944 L24.078,45.944 L24.078,41.868" fill="#FFFFFE"/>
    <path d="M20.003,45.944 C20.003,48.194 21.827,50.018 24.078,50.018 L24.078,45.944 L20.003,45.944" fill="#BFBFBA"/>
    <path d="M24.078,45.944 L24.078,50.018 C26.329,50.018 28.153,48.194 28.153,45.944 L24.078,45.944" fill="#9C9D99"/>
    <path d="M27.09,25.688 L32.254,25.688 L32.254,29.813 L27.09,29.813 z" fill="#44609D"/>
    <path d="M27.09,29.813 L32.254,29.813 L32.254,33.94 L27.09,33.94 z" fill="#6895C2"/>
    <path d="M27.86,39.324 L35,39.324 L35,36.688 L27.09,36.688 L27.86,39.324" fill="#6895C2"/>
    <path d="M33.746,53.18 L26.398,53.18 L26.652,50.773 L34.164,50.773 L33.746,53.18" fill="#E4E4DF"/>
    <path d="M26.398,53.18 L33.746,53.18 L33.746,63.853 L26.398,63.853 z" fill="#BFBFBA"/>
    <path d="M34.362,66.323 C34.362,62.727 31.447,59.811 27.85,59.811 L27.85,66.323 L34.362,66.323" fill="#9C9D99"/>
    <path d="M27.85,59.811 C24.253,59.811 21.338,62.727 21.338,66.323 L27.85,66.323 L27.85,59.811" fill="#FFFFFE"/>
    <path d="M24.256,8.412 C24.256,8.804 23.939,9.121 23.546,9.121 L17.876,9.121 C17.484,9.121 17.167,8.804 17.167,8.412 L17.167,4.386 C17.167,3.994 17.484,3.677 17.876,3.677 L23.546,3.677 C23.939,3.677 24.256,3.994 24.256,4.386 L24.256,8.412" fill="#FFFFFE"/>
    <path d="M19.44,8.138 C18.481,8.138 17.701,7.357 17.701,6.398 C17.701,5.44 18.481,4.66 19.44,4.66 C20.398,4.66 21.178,5.44 21.178,6.398 C21.178,7.357 20.398,8.138 19.44,8.138" fill="#ABACA8"/>
    <path d="M38.381,26.829 C38.381,27.06 38.193,27.247 37.962,27.247 L37.165,27.247 C36.934,27.247 36.746,27.06 36.746,26.829 L36.746,25.346 C36.746,25.114 36.934,24.927 37.165,24.927 L37.962,24.927 C38.193,24.927 38.381,25.114 38.381,25.346 L38.381,26.829" fill="#44609D"/>
    <path d="M40.589,26.829 C40.589,27.06 40.402,27.247 40.171,27.247 L39.374,27.247 C39.142,27.247 38.955,27.06 38.955,26.829 L38.955,25.346 C38.955,25.114 39.142,24.927 39.374,24.927 L40.171,24.927 C40.402,24.927 40.589,25.114 40.589,25.346 L40.589,26.829" fill="#6895C2"/>
    <path d="M38.165,35.252 C37.383,35.252 36.746,34.615 36.746,33.832 L36.746,29.92 C36.746,29.138 37.383,28.501 38.165,28.501 L38.963,28.501 C39.744,28.501 40.381,29.138 40.381,29.92 L40.381,33.832 C40.381,34.615 39.744,35.252 38.963,35.252 L38.165,35.252" fill="#FFFFFE"/>
    <path d="M39.381,33.832 C39.381,34.064 39.193,34.251 38.962,34.251 L38.165,34.251 C37.934,34.251 37.747,34.064 37.747,33.832 L37.747,29.92 C37.747,29.689 37.934,29.501 38.165,29.501 L38.962,29.501 C39.193,29.501 39.381,29.689 39.381,29.92 L39.381,33.832" fill="#6895C2"/>
    <path d="M35.378,11.098 C35.378,11.524 35.033,11.87 34.606,11.87 C34.179,11.87 33.834,11.524 33.834,11.098 C33.834,10.671 34.179,10.325 34.606,10.325 C35.033,10.325 35.378,10.671 35.378,11.098" fill="#FFFFFE"/>
    <path d="M34.107,14.208 C34.107,15.35 33.181,16.275 32.04,16.275 C30.898,16.275 29.973,15.35 29.973,14.208 C29.973,13.067 30.898,12.142 32.04,12.142 C33.181,12.142 34.107,13.067 34.107,14.208" fill="#FFFFFE"/>
    <path d="M21.066,36.688 L24.078,36.688 L24.078,37.96 L21.066,37.96 z" fill="#AAABA7"/>
    <path d="M24.078,36.688 L27.09,36.688 L27.09,37.96 L24.078,37.96 z" fill="#8C8D89"/>
    <path d="M35,24.211 L35,22.939 L35,24.211" fill="#0C0F15"/>
    <path d="M27.09,22.939 L35,22.939 L35,24.211 L27.09,24.211 z" fill="#E4E4DF"/>
    <path d="M20.845,6.398 C20.845,7.175 20.216,7.804 19.44,7.804 C18.664,7.804 18.034,7.175 18.034,6.398 C18.034,5.623 18.664,4.994 19.44,4.994 C20.216,4.994 20.845,5.623 20.845,6.398" fill="#963735"/>
    <path d="M19.44,4.994 C18.664,4.994 18.034,5.623 18.034,6.398 L20.845,6.398 C20.845,5.623 20.216,4.994 19.44,4.994" fill="#DE4B4A"/>
    <path d="M22.989,6.148 C22.578,6.148 22.244,5.815 22.244,5.404 C22.244,4.993 22.578,4.66 22.989,4.66 C23.399,4.66 23.732,4.993 23.732,5.404 C23.732,5.815 23.399,6.148 22.989,6.148" fill="#ABACA8"/>
    <path d="M22.989,8.138 C22.578,8.138 22.244,7.804 22.244,7.393 C22.244,6.982 22.578,6.65 22.989,6.65 C23.399,6.65 23.732,6.982 23.732,7.393 C23.732,7.804 23.399,8.138 22.989,8.138" fill="#ABACA8"/>
    <path d="M46.958,9.121 L48.131,9.121 L48.131,19.509 L46.958,19.509 z" fill="#9C9D99"/>
    <path d="M46.268,14.278 L46.268,15.435 L42.316,15.435 L42.316,10.325 C44.498,10.325 46.268,12.095 46.268,14.278" fill="#FFFFFE"/>
    <path d="M48.934,21.385 L48.934,22.939 L44.983,22.939 L44.983,16.079 C47.165,16.079 48.934,18.455 48.934,21.385" fill="#FFFFFE"/>
    <path d="M42.316,15.435 L46.268,15.435 L46.268,22.939 L42.316,22.939 z" fill="#9C9D99"/>
    <path d="M35,39.324 L35,45.944 L36.254,53.18 L43.602,53.18 L42.14,39.324 L35,39.324" fill="#BFBFBA"/>
    <path d="M48.934,36.688 L48.934,22.993 C48.934,21.33 47.586,19.981 45.922,19.981 L45.922,36.688 L48.934,36.688" fill="#BFBFBA"/>
    <path d="M45.922,36.688 L45.922,19.981 C44.259,19.981 42.911,21.33 42.911,22.993 L42.911,36.688 L45.922,36.688" fill="#FFFFFE"/>
    <path d="M42.911,36.688 L45.922,36.688 L45.922,44.549 L42.911,44.549 z" fill="#BFBFBA"/>
    <path d="M45.922,36.688 L48.934,36.688 L48.934,44.549 L45.922,44.549 z" fill="#9C9D99"/>
    <path d="M49.997,45.944 C49.997,43.693 48.173,41.868 45.922,41.868 L45.922,45.944 L49.997,45.944" fill="#BFBFBA"/>
    <path d="M45.922,41.868 C43.671,41.868 41.847,43.693 41.847,45.944 L45.922,45.944 L45.922,41.868" fill="#FFFFFE"/>
    <path d="M41.847,45.944 C41.847,48.194 43.671,50.018 45.922,50.018 L45.922,45.944 L41.847,45.944" fill="#9C9D99"/>
    <path d="M45.922,45.944 L45.922,50.018 C48.173,50.018 49.997,48.194 49.997,45.944 L45.922,45.944" fill="#D2D2CC"/>
    <path d="M42.14,39.324 L35,39.324 L35,36.688 L42.911,36.688 L42.14,39.324" fill="#44609D"/>
    <path d="M43.602,53.18 L36.254,53.18 L35.837,50.773 L36.254,53.18 L43.602,53.18 M43.602,53.18 L43.348,50.773 L43.602,53.18" fill="#0C0F15"/>
    <path d="M43.602,53.18 L36.254,53.18 L35.837,50.773 L43.348,50.773 L43.602,53.18" fill="#AAABA7"/>
    <path d="M36.254,53.18 L43.602,53.18 L43.602,63.853 L36.254,63.853 z" fill="#9C9D99"/>
    <path d="M35.638,66.323 C35.638,62.727 38.553,59.811 42.15,59.811 L42.15,66.323 L35.638,66.323" fill="#FFFFFE"/>
    <path d="M42.15,59.811 C45.747,59.811 48.662,62.727 48.662,66.323 L42.15,66.323 L42.15,59.811" fill="#BFBFBA"/>
    <path d="M45.745,8.412 C45.745,8.804 46.062,9.121 46.454,9.121 L52.124,9.121 C52.516,9.121 52.833,8.804 52.833,8.412 L52.833,4.386 C52.833,3.994 52.516,3.677 52.124,3.677 L46.454,3.677 C46.062,3.677 45.745,3.994 45.745,4.386 L45.745,8.412" fill="#FFFFFE"/>
    <path d="M42.911,36.688 L45.922,36.688 L45.922,37.96 L42.911,37.96 z" fill="#AAABA7"/>
    <path d="M45.922,36.688 L48.934,36.688 L48.934,37.96 L45.922,37.96 z" fill="#8C8D89"/>
    <path d="M52.124,3.677 L49.289,3.677 L49.289,9.121 L52.124,9.121 C52.516,9.121 52.833,8.804 52.833,8.412 L52.833,4.386 C52.833,3.994 52.516,3.677 52.124,3.677" fill="#BFBFBA"/>
    <path d="M35,22.939 L42.911,22.939 L42.911,24.211 L35,24.211 z" fill="#AAABA7"/>
    <path d="M47.781,8.446 C47.291,8.446 46.893,8.047 46.893,7.557 C46.893,7.067 47.291,6.668 47.781,6.668 C48.272,6.668 48.67,7.067 48.67,7.557 C48.67,8.047 48.272,8.446 47.781,8.446" fill="#ABACA8"/>
    <path d="M47.063,7.557 C47.063,7.954 47.385,8.276 47.781,8.276 C48.178,8.276 48.5,7.954 48.5,7.557 C48.5,7.16 48.178,6.839 47.781,6.839 C47.385,6.839 47.063,7.16 47.063,7.557" fill="#963735"/>
    <path d="M47.781,6.839 C48.178,6.839 48.5,7.16 48.5,7.558 L47.063,7.558 C47.063,7.16 47.385,6.839 47.781,6.839" fill="#DE4B4A"/>
    <path d="M47.781,6.129 C47.291,6.129 46.893,5.73 46.893,5.24 C46.893,4.751 47.291,4.352 47.781,4.352 C48.272,4.352 48.67,4.751 48.67,5.24 C48.67,5.73 48.272,6.129 47.781,6.129" fill="#ABACA8"/>
    <path d="M47.063,5.24 C47.063,5.638 47.385,5.958 47.781,5.958 C48.178,5.958 48.5,5.638 48.5,5.24 C48.5,4.844 48.178,4.522 47.781,4.522 C47.385,4.522 47.063,4.844 47.063,5.24" fill="#963735"/>
    <path d="M47.781,4.522 C48.178,4.522 48.5,4.844 48.5,5.24 L47.063,5.24 C47.063,4.844 47.385,4.522 47.781,4.522" fill="#DE4B4A"/>
    <path d="M50.797,8.446 C50.306,8.446 49.907,8.047 49.907,7.557 C49.907,7.067 50.306,6.668 50.797,6.668 C51.287,6.668 51.685,7.067 51.685,7.557 C51.685,8.047 51.287,8.446 50.797,8.446" fill="#82837F"/>
    <path d="M50.078,7.557 C50.078,7.954 50.399,8.276 50.797,8.276 C51.193,8.276 51.515,7.954 51.515,7.557 C51.515,7.16 51.193,6.839 50.797,6.839 C50.399,6.839 50.078,7.16 50.078,7.557" fill="#44609D"/>
    <path d="M50.797,6.839 C51.193,6.839 51.515,7.16 51.515,7.558 L50.078,7.558 C50.078,7.16 50.399,6.839 50.797,6.839" fill="#6895C2"/>
    <path d="M50.797,6.129 C50.306,6.129 49.907,5.73 49.907,5.24 C49.907,4.751 50.306,4.352 50.797,4.352 C51.287,4.352 51.685,4.751 51.685,5.24 C51.685,5.73 51.287,6.129 50.797,6.129" fill="#82837F"/>
    <path d="M50.078,5.24 C50.078,5.638 50.399,5.958 50.797,5.958 C51.193,5.958 51.515,5.638 51.515,5.24 C51.515,4.844 51.193,4.522 50.797,4.522 C50.399,4.522 50.078,4.844 50.078,5.24" fill="#44609D"/>
    <path d="M50.797,4.522 C51.193,4.522 51.515,4.844 51.515,5.24 L50.078,5.24 C50.078,4.844 50.399,4.522 50.797,4.522" fill="#6895C2"/>
    <path d="M46.653,25.161 L48.934,25.161 L48.934,29.965 L46.653,29.965 z" fill="#AAABA7"/>
  </g>
</svg>
