<?xml version="1.0" encoding="UTF-8"?>
<!DOCTYPE svg PUBLIC "-//W3C//DTD SVG 1.1//EN" "http://www.w3.org/Graphics/SVG/1.1/DTD/svg11.dtd">
<svg version="1.1" xmlns="http://www.w3.org/2000/svg" xmlns:xlink="http://www.w3.org/1999/xlink" x="0" y="0" width="70" height="70" viewBox="0, 0, 70, 70">
  <defs>
    <clipPath id="Clip_1">
      <path d="M6.021,13.714 C6.005,13.714 5.988,13.714 5.971,13.713 C5.506,13.69 4.998,13.237 5.082,12.733 C5.92,7.702 9.981,4.021 15.069,3.678 C15.085,3.677 15.1,3.677 15.115,3.677 C15.603,3.677 15.98,4.208 15.958,4.658 C15.931,5.211 15.486,5.512 14.978,5.547 C10.994,5.814 7.606,8.886 6.95,12.824 C6.869,13.312 6.545,13.714 6.021,13.714 z"/>
    </clipPath>
  </defs>
  <g id="Layer_1">
    <path d="M45.956,64.258 L29.452,64.258 C27.917,64.258 26.673,65.502 26.673,67.037 L45.956,67.037 L45.956,64.258" fill="#BFBFBA"/>
    <path d="M45.956,67.037 L26.673,67.037 C26.673,68.573 27.917,69.817 29.452,69.817 L45.956,69.817 L45.956,67.037" fill="#9A9B97"/>
    <path d="M45.956,69.817 L62.458,69.817 C63.993,69.817 65.237,68.573 65.237,67.037 L45.956,67.037 L45.956,69.817" fill="#BFBFBA"/>
    <path d="M45.956,67.037 L65.237,67.037 C65.237,65.502 63.993,64.258 62.458,64.258 L45.956,64.258 L45.956,67.037" fill="#FFFFFE"/>
    <path d="M58.208,57.566 C58.208,50.799 52.723,45.313 45.955,45.313 L45.955,57.566 L58.208,57.566" fill="#DE4B4A"/>
    <path d="M45.955,45.313 C39.188,45.313 33.702,50.799 33.702,57.566 L45.955,57.566 L45.955,45.313" fill="#963735"/>
    <path d="M16.635,40.893 L15.633,41.32 L5.972,18.635 L12.129,12.624 L12.889,13.404 L7.267,18.895 L16.635,40.893" fill="#BFBFBA"/>
    <path d="M14.132,13.767 L14.779,13.135 L20.213,18.699 L19.565,19.331 L14.132,13.767" fill="#963735"/>
    <path d="M28.223,26.902 L14.24,40.555 C13.229,41.543 13.209,43.164 14.197,44.175 L30.011,28.733 L28.223,26.902" fill="#963735"/>
    <path d="M30.011,28.733 L14.197,44.175 C15.184,45.186 16.805,45.206 17.817,44.218 L31.798,30.564 L30.011,28.733" fill="#6C2B2C"/>
    <path d="M11.459,9.733 C10.241,10.923 10.218,12.873 11.407,14.09 C12.596,15.307 14.546,15.331 15.763,14.142 L11.459,9.733" fill="#963735"/>
    <path d="M35.971,48.824 C39.741,52.685 45.927,52.759 49.788,48.988 L42.962,41.997 L35.971,48.824" fill="#BFBFBA"/>
    <path d="M18.505,16.951 C16.575,18.836 16.538,21.929 18.423,23.859 L21.919,20.446 L18.505,16.951" fill="#BFBFBA"/>
    <path d="M31.973,44.729 L38.964,37.902 L31.798,30.564 L17.817,44.218 L31.973,44.729" fill="#BFBFBA"/>
    <path d="M20.137,25.614 L23.632,22.201 L28.223,26.902 L20.316,34.622 L20.137,25.614" fill="#BFBFBA"/>
    <path d="M40.963,39.95 L33.972,46.776 L31.973,44.729 L38.964,37.902 L40.963,39.95" fill="#963735"/>
    <path d="M42.962,41.997 L35.971,48.824 L33.972,46.776 L40.963,39.95 L42.962,41.997" fill="#6C2B2C"/>
    <path d="M21.919,20.446 L18.423,23.859 L20.137,25.614 L23.632,22.201 L21.919,20.446" fill="#963735"/>
    <path d="M42.486,15.652 L42.936,14.66 L20.488,4.461 L14.332,10.472 L15.094,11.252 L20.716,5.762 L42.486,15.652" fill="#FFFFFE"/>
    <path d="M15.427,12.502 L14.779,13.135 L20.213,18.699 L20.86,18.066 L15.427,12.502" fill="#DE4B4A"/>
    <path d="M28.223,26.902 L42.205,13.249 C43.216,12.262 44.837,12.281 45.824,13.292 L30.011,28.733 L28.223,26.902" fill="#DE4B4A"/>
    <path d="M30.011,28.733 L45.824,13.292 C46.812,14.303 46.793,15.924 45.781,16.912 L31.798,30.564 L30.011,28.733" fill="#963735"/>
    <path d="M11.459,9.733 C12.676,8.545 14.627,8.568 15.815,9.785 C17.004,11.003 16.98,12.953 15.763,14.142 L11.459,9.733" fill="#DE4B4A"/>
    <path d="M49.953,35.171 C53.724,39.032 53.65,45.219 49.788,48.988 L42.962,41.997 L49.953,35.171" fill="#FFFFFE"/>
    <path d="M18.505,16.951 C20.436,15.066 23.529,15.103 25.415,17.033 L21.919,20.446 L18.505,16.951" fill="#FFFFFE"/>
    <path d="M45.956,31.076 L38.964,37.902 L31.798,30.564 L45.781,16.912 L45.956,31.076" fill="#FFFFFE"/>
    <path d="M27.128,18.788 L23.632,22.201 L28.223,26.902 L36.129,19.181 L27.128,18.788" fill="#FFFFFE"/>
    <path d="M40.963,39.95 L47.954,33.123 L45.956,31.076 L38.964,37.902 L40.963,39.95" fill="#DE4B4A"/>
    <path d="M42.962,41.997 L49.953,35.171 L47.954,33.123 L40.963,39.95 L42.962,41.997" fill="#963735"/>
    <path d="M21.919,20.446 L25.415,17.033 L27.128,18.788 L23.632,22.201 L21.919,20.446" fill="#DE4B4A"/>
    <path d="M33.702,57.566 L45.956,57.566 L45.956,64.258 L33.702,64.258 z" fill="#6C2B2C"/>
    <path d="M45.956,57.566 L58.208,57.566 L58.208,64.258 L45.956,64.258 z" fill="#963735"/>
    <path d="M37.179,62.251 C37.179,62.823 36.716,63.286 36.144,63.286 C35.572,63.286 35.108,62.823 35.108,62.251 C35.108,61.679 35.572,61.215 36.144,61.215 C36.716,61.215 37.179,61.679 37.179,62.251" fill="#FFFFFE"/>
    <path d="M40.864,62.251 C40.864,62.823 40.401,63.286 39.829,63.286 C39.257,63.286 38.793,62.823 38.793,62.251 C38.793,61.679 39.257,61.215 39.829,61.215 C40.401,61.215 40.864,61.679 40.864,62.251" fill="#FFFFFE"/>
    <path d="M44.549,62.251 C44.549,62.823 44.086,63.286 43.514,63.286 C42.942,63.286 42.479,62.823 42.479,62.251 C42.479,61.679 42.942,61.215 43.514,61.215 C44.086,61.215 44.549,61.679 44.549,62.251" fill="#FFFFFE"/>
    <path d="M49.432,62.251 C49.432,62.823 48.968,63.286 48.396,63.286 C47.825,63.286 47.361,62.823 47.361,62.251 C47.361,61.679 47.825,61.215 48.396,61.215 C48.968,61.215 49.432,61.679 49.432,62.251" fill="#FFFFFE"/>
    <path d="M53.118,62.251 C53.118,62.823 52.653,63.286 52.081,63.286 C51.509,63.286 51.046,62.823 51.046,62.251 C51.046,61.679 51.509,61.215 52.081,61.215 C52.653,61.215 53.118,61.679 53.118,62.251" fill="#FFFFFE"/>
    <path d="M56.803,62.251 C56.803,62.823 56.338,63.286 55.767,63.286 C55.194,63.286 54.731,62.823 54.731,62.251 C54.731,61.679 55.194,61.215 55.767,61.215 C56.338,61.215 56.803,61.679 56.803,62.251" fill="#FFFFFE"/>
    <path d="M14.838,11.006 C14.838,11.763 14.225,12.377 13.468,12.377 C12.712,12.377 12.098,11.763 12.098,11.006 C12.098,10.25 12.712,9.636 13.468,9.636 C14.225,9.636 14.838,10.25 14.838,11.006" fill="#FFFFFE"/>
    <g clip-path="url(#Clip_1)">
      <path d="M4.998,3.677 L15.98,3.677 L15.98,13.714 L4.998,13.714 z" fill="#2C2D3C"/>
    </g>
    <path d="M2.548,13.33 C2.531,13.33 2.515,13.33 2.497,13.329 C2.028,13.306 1.533,12.854 1.609,12.349 C2.103,9.092 3.627,6.032 6.102,3.824 C8.594,1.6 11.7,0.359 15.026,0.184 C15.039,0.184 15.051,0.183 15.064,0.183 C15.555,0.183 15.938,0.705 15.915,1.164 C15.888,1.712 15.443,2.026 14.935,2.052 C9.203,2.354 4.338,6.765 3.477,12.44 C3.403,12.928 3.067,13.33 2.548,13.33" fill="#2C2D3C"/>
  </g>
</svg>
